<?xml version="1.0"?>
<!DOCTYPE svg PUBLIC "-//W3C//DTD SVG 1.1//EN" "http://www.w3.org/Graphics/SVG/1.1/DTD/svg11.dtd">
<!--Phoronix Test Suite v10.4.0 [ http://www.phoronix-test-suite.com/ ]-->
<svg xmlns="http://www.w3.org/2000/svg" xmlns:xlink="http://www.w3.org/1999/xlink" version="1.1" font-family="sans-serif, droid-sans, helvetica, verdana, tahoma" viewbox="0 0 900 980" width="900" height="980" preserveAspectRatio="xMinYMin meet"><rect x="0" y="0" width="900" height="980" fill="#FEFEFE"/><g stroke="#757575" stroke-width="1"><rect x="166.6" y="52" width="10" height="10" fill="#f44336"/><rect x="352.6" y="52" width="10" height="10" fill="#673ab7"/><rect x="538.6" y="52" width="10" height="10" fill="#009688"/></g><g font-size="9" text-anchor="start" font-weight="bold"><text x="179.6" y="61" fill="#f44336">bpfcontain-passive</text><text x="365.6" y="61" fill="#673ab7">bpfcontain-allow</text><text x="551.6" y="61" fill="#009688">bpfcontain-complaining</text></g><path d="m74 22v9m-5-16v16m-5-28v28m-23-2h12.5c2.485281 0 4.5-2.014719 4.5-4.5s-2.014719-4.5-4.5-4.5h-8c-2.485281 0-4.5-2.014719-4.5-4.5s2.014719-4.5 4.5-4.5h12.5m-21 5h-11m11 13h-2c-4.970563 0-9-4.029437-9-9v-20m-24 40v-20c0-4.970563 4.0294373-9 9-9 4.970563 0 9 4.029437 9 9s-4.029437 9-9 9h-9" stroke="#231f20" stroke-width="4" fill="none" transform="translate(10,2)"/><text x="100" y="21" font-size="17" fill="#231f20" text-anchor="start">Result Overview</text><a xlink:href="http://www.phoronix-test-suite.com/" target="_blank"><text x="100" y="33" font-size="9" fill="#231f20" text-anchor="start">Phoronix Test Suite 10.4.0</text></a><g font-size="10" fill="#757575"/><g font-size="9" fill="#949494" text-anchor="middle"><text x="450" y="805" dominant-baseline="hanging">100%</text><text x="450" y="816" dominant-baseline="hanging">104%</text><text x="450" y="826" dominant-baseline="hanging">108%</text><text x="450" y="837" dominant-baseline="hanging">111%</text></g><g font-size="10.5" fill="#757575" font-weight="800" dominant-baseline="text-after-edge"><text x="775" y="530" text-anchor="start">OSBench</text><text x="655" y="783" text-anchor="start">Apache Benchmark</text><text x="378" y="847" text-anchor="end">OSBench</text><text x="159" y="673" text-anchor="end">OSBench</text><text x="159" y="383" text-anchor="end">Timed Linux Kernel Compilation</text><text x="378" y="209" text-anchor="end">OSBench</text><text x="655" y="273" text-anchor="start">OSBench</text></g><g font-size="10" fill="#757575" dominant-baseline="text-after-edge"><text x="775" y="540" text-anchor="start">Create Files</text><text x="655" y="793" text-anchor="start">S.W.P.S</text><text x="378" y="857" text-anchor="end">Create Threads</text><text x="159" y="683" text-anchor="end">Launch Programs</text><text x="159" y="398" text-anchor="end">Time To Compile</text><text x="378" y="224" text-anchor="end">Memory Allocations</text><text x="655" y="288" text-anchor="start">Create Processes</text></g><circle stroke="#949494" stroke-width="1" stroke-dasharray="10,10,10" cx="450" cy="530" r="273" fill="transparent"/><circle stroke="#949494" stroke-width="1" stroke-dasharray="10,10,10" cx="450" cy="530" r="284" fill="transparent"/><circle stroke="#949494" stroke-width="1" stroke-dasharray="10,10,10" cx="450" cy="530" r="294" fill="transparent"/><circle stroke="#949494" stroke-width="1" stroke-dasharray="10,10,10" cx="450" cy="530" r="305" fill="transparent"/><line x1="765" y1="530" x2="640" y2="765" stroke="#f44336" stroke-width="3"/><line x1="733" y1="530" x2="635" y2="758" stroke="#673ab7" stroke-width="3"/><line x1="723" y1="530" x2="622" y2="742" stroke="#009688" stroke-width="3"/><line x1="640" y1="765" x2="384" y2="816" stroke="#f44336" stroke-width="3"/><line x1="635" y1="758" x2="389" y2="796" stroke="#673ab7" stroke-width="3"/><line x1="622" y1="742" x2="388" y2="799" stroke="#009688" stroke-width="3"/><line x1="384" y1="816" x2="193" y2="655" stroke="#f44336" stroke-width="3"/><line x1="389" y1="796" x2="201" y2="651" stroke="#673ab7" stroke-width="3"/><line x1="388" y1="799" x2="204" y2="650" stroke="#009688" stroke-width="3"/><line x1="193" y1="655" x2="197" y2="407" stroke="#f44336" stroke-width="3"/><line x1="201" y1="651" x2="203" y2="410" stroke="#673ab7" stroke-width="3"/><line x1="204" y1="650" x2="204" y2="410" stroke="#009688" stroke-width="3"/><line x1="197" y1="407" x2="389" y2="264" stroke="#f44336" stroke-width="3"/><line x1="203" y1="410" x2="388" y2="260" stroke="#673ab7" stroke-width="3"/><line x1="204" y1="410" x2="388" y2="260" stroke="#009688" stroke-width="3"/><line x1="389" y1="264" x2="624" y2="315" stroke="#f44336" stroke-width="3"/><line x1="388" y1="260" x2="624" y2="315" stroke="#673ab7" stroke-width="3"/><line x1="388" y1="260" x2="622" y2="318" stroke="#009688" stroke-width="3"/><line x1="624" y1="315" x2="765" y2="530" stroke="#f44336" stroke-width="2"/><line x1="624" y1="315" x2="733" y2="530" stroke="#673ab7" stroke-width="2"/><line x1="622" y1="318" x2="723" y2="530" stroke="#009688" stroke-width="2"/></svg>
