<?xml version="1.0"?>
<!DOCTYPE svg PUBLIC "-//W3C//DTD SVG 1.1//EN" "http://www.w3.org/Graphics/SVG/1.1/DTD/svg11.dtd">
<!--Phoronix Test Suite v10.4.0 [ http://www.phoronix-test-suite.com/ ]-->
<svg xmlns="http://www.w3.org/2000/svg" xmlns:xlink="http://www.w3.org/1999/xlink" version="1.1" font-family="sans-serif, droid-sans, helvetica, verdana, tahoma" viewbox="0 0 1000 310" width="1000" height="310" preserveAspectRatio="xMinYMin meet"><rect x="0" y="0" width="1000" height="310" fill="#FEFEFE"/><g stroke="#757575" stroke-width="1"/><g font-size="9" text-anchor="start" font-weight="bold"/><rect x="30" y="88.5" width="960" height="120" fill="#BABABA" stroke="#757575" stroke-width="1"/><text x="988" y="100.5" font-size="10" fill="#065695" text-anchor="end" font-weight="bold">Phoronix Test Suite 10.4.0</text><g stroke="#757575" stroke-width="1" stroke-dasharray="5,5"><line x1="30" y1="190" x2="990" y2="190"/><line x1="30" y1="170" x2="990" y2="170"/><line x1="30" y1="150" x2="990" y2="150"/><line x1="30" y1="130" x2="990" y2="130"/><line x1="30" y1="110" x2="990" y2="110"/></g><g stroke="#757575" stroke-width="1"><line x1="26" y1="190" x2="34" y2="190"/><line x1="26" y1="170" x2="34" y2="170"/><line x1="26" y1="150" x2="34" y2="150"/><line x1="26" y1="130" x2="34" y2="130"/><line x1="26" y1="110" x2="34" y2="110"/></g><g stroke="#949494" stroke-width="1" stroke-dasharray="5,5"/><g font-size="10" fill="#065695" text-anchor="end"/><text x="98.5" y="212" font-size="6.5" fill="#231f20" text-anchor="middle" dominant-baseline="text-before-edge">OSBench</text><rect x="43.7" y="89" width="36" height="120" fill="#f44336" stroke="#949494" stroke-width="1"/><rect x="79.7" y="102" width="36" height="107" fill="#673ab7" stroke="#949494" stroke-width="1"/><rect x="115.7" y="106" width="36" height="103" fill="#009688" stroke="#949494" stroke-width="1"/><text x="235.5" y="212" font-size="6.5" fill="#231f20" text-anchor="middle" dominant-baseline="text-before-edge">OSBench</text><rect x="180.7" y="89" width="36" height="120" fill="#f44336" stroke="#949494" stroke-width="1"/><rect x="216.7" y="98" width="36" height="111" fill="#673ab7" stroke="#949494" stroke-width="1"/><rect x="252.7" y="97" width="36" height="112" fill="#009688" stroke="#949494" stroke-width="1"/><text x="372.5" y="212" font-size="6.5" fill="#231f20" text-anchor="middle" dominant-baseline="text-before-edge">OSBench</text><rect x="317.7" y="89" width="36" height="120" fill="#f44336" stroke="#949494" stroke-width="1"/><rect x="353.7" y="93" width="36" height="116" fill="#673ab7" stroke="#949494" stroke-width="1"/><rect x="389.7" y="95" width="36" height="114" fill="#009688" stroke="#949494" stroke-width="1"/><text x="509.5" y="212" font-size="6.5" fill="#231f20" text-anchor="middle" dominant-baseline="text-before-edge">OSBench</text><rect x="454.7" y="89" width="36" height="120" fill="#f44336" stroke="#949494" stroke-width="1"/><rect x="490.7" y="89" width="36" height="120" fill="#673ab7" stroke="#949494" stroke-width="1"/><rect x="526.7" y="91" width="36" height="118" fill="#009688" stroke="#949494" stroke-width="1"/><text x="646.5" y="212" font-size="6.5" fill="#231f20" text-anchor="middle" dominant-baseline="text-before-edge">OSBench</text><rect x="591.7" y="91" width="36" height="118" fill="#f44336" stroke="#949494" stroke-width="1"/><rect x="627.7" y="90" width="36" height="119" fill="#673ab7" stroke="#949494" stroke-width="1"/><rect x="663.7" y="89" width="36" height="120" fill="#009688" stroke="#949494" stroke-width="1"/><text x="783.5" y="212" font-size="6.5" fill="#231f20" text-anchor="middle" dominant-baseline="text-before-edge">Timed Linux Kernel Compilation</text><rect x="728.7" y="89" width="36" height="120" fill="#f44336" stroke="#949494" stroke-width="1"/><rect x="764.7" y="92" width="36" height="117" fill="#673ab7" stroke="#949494" stroke-width="1"/><rect x="800.7" y="93" width="36" height="116" fill="#009688" stroke="#949494" stroke-width="1"/><text x="920.5" y="212" font-size="6.5" fill="#231f20" text-anchor="middle" dominant-baseline="text-before-edge">Apache Benchmark</text><rect x="865.7" y="89" width="36" height="120" fill="#f44336" stroke="#949494" stroke-width="1"/><rect x="901.7" y="93" width="36" height="116" fill="#673ab7" stroke="#949494" stroke-width="1"/><rect x="937.7" y="101" width="36" height="108" fill="#009688" stroke="#949494" stroke-width="1"/><line x1="167" y1="209" x2="949" y2="209" stroke="#757575" stroke-width="10" stroke-dasharray="1,136"/><line x1="30" y1="209" x2="990" y2="209" stroke="#757575" stroke-width="1"/><text x="495" y="19" font-size="17" fill="#231f20" text-anchor="middle">bpfcontain-new-new</text><text x="990" y="85.5" font-size="7" fill="#949494" text-anchor="end">Phoronix Test Suite 10.4.0</text></svg>
