<?xml version="1.0"?>
<!DOCTYPE svg PUBLIC "-//W3C//DTD SVG 1.1//EN" "http://www.w3.org/Graphics/SVG/1.1/DTD/svg11.dtd">
<!--Phoronix Test Suite v10.4.0 [ http://www.phoronix-test-suite.com/ ]-->
<svg xmlns="http://www.w3.org/2000/svg" xmlns:xlink="http://www.w3.org/1999/xlink" version="1.1" font-family="sans-serif, droid-sans, helvetica, verdana, tahoma" viewbox="0 0 600 463" width="600" height="463" preserveAspectRatio="xMinYMin meet"><rect x="0" y="0" width="600" height="463" fill="#FEFEFE"/><g stroke="#757575" stroke-width="1"><line x1="191" y1="64" x2="191" y2="425"/><line x1="191" y1="424" x2="586" y2="424"/></g><text x="585" y="59" font-size="8" fill="#065695" text-anchor="end" font-weight="bold">Phoronix Test Suite 10.4.0</text><polygon points="200,56 191,61 191,51" fill="#065695" stroke="#949494" stroke-width="1"/><text x="203" y="59" font-size="8" font-weight="bold" fill="#065695" text-anchor="start">Messages Per Second, More Is Better</text><a xlink:href="https://openbenchmarking.org/test/pts/ipc-benchmark" target="_blank"><text x="6" y="19" font-size="17" fill="#231f20" text-anchor="start" font-weight="bold">IPC_benchmark</text></a><text x="6" y="36" font-size="11" font-weight="bold" fill="#231f20" text-anchor="start">Type: FIFO Named Pipe - Message Bytes: 128</text><path d="m74 22v9m-5-16v16m-5-28v28m-23-2h12.5c2.485281 0 4.5-2.014719 4.5-4.5s-2.014719-4.5-4.5-4.5h-8c-2.485281 0-4.5-2.014719-4.5-4.5s2.014719-4.5 4.5-4.5h12.5m-21 5h-11m11 13h-2c-4.970563 0-9-4.029437-9-9v-20m-24 40v-20c0-4.970563 4.0294373-9 9-9 4.970563 0 9 4.029437 9 9s-4.029437 9-9 9h-9" stroke="#231f20" stroke-width="4" fill="none" transform="translate(508,4)"/><line x1="191" y1="100" x2="191" y2="393" stroke="#757575" stroke-width="11" stroke-dasharray="1,35"/><g font-size="11" fill="#231f20" font-weight="bold"><text x="186" y="80" text-anchor="end">bpfbox-passive</text><text x="186" y="116" text-anchor="end">bpfbox-allow</text><text x="186" y="152" text-anchor="end">bpfbox-complaining</text><text x="186" y="188" text-anchor="end">bpfcontain-passive</text><text x="186" y="224" text-anchor="end">bpfcontain-allow</text><text x="186" y="260" text-anchor="end">bpfcontain-complaining</text><text x="186" y="296" text-anchor="end">apparmor-passive</text><text x="186" y="332" text-anchor="end">apparmor-allow</text><text x="186" y="368" text-anchor="end">apparmor-complaining</text><text x="186" y="404" text-anchor="end">base</text></g><g font-size="10" fill="#065695" text-anchor="middle"><text x="259" y="439">500K</text><text x="325" y="439">1000K</text><text x="391" y="439">1500K</text><text x="457" y="439">2000K</text><text x="523" y="439">2500K</text></g><g stroke="#BABABA" stroke-width="1"><line x1="259" y1="64" x2="259" y2="419" stroke-dasharray="5,5"/><line x1="259" y1="420" x2="259" y2="429"/><line x1="325" y1="64" x2="325" y2="419" stroke-dasharray="5,5"/><line x1="325" y1="420" x2="325" y2="429"/><line x1="391" y1="64" x2="391" y2="419" stroke-dasharray="5,5"/><line x1="391" y1="420" x2="391" y2="429"/><line x1="457" y1="64" x2="457" y2="419" stroke-dasharray="5,5"/><line x1="457" y1="420" x2="457" y2="429"/><line x1="523" y1="64" x2="523" y2="419" stroke-dasharray="5,5"/><line x1="523" y1="420" x2="523" y2="429"/></g><g stroke="#949494" stroke-width="1"><rect x="191" y="70" height="24" width="234" fill="#2196f3"/><rect x="191" y="106" height="24" width="262" fill="#2196f3"/><rect x="191" y="142" height="24" width="246" fill="#2196f3"/><rect x="191" y="178" height="24" width="265" fill="#2196f3"/><rect x="191" y="214" height="24" width="268" fill="#2196f3"/><rect x="191" y="250" height="24" width="245" fill="#2196f3"/><rect x="191" y="286" height="24" width="255" fill="#2196f3"/><rect x="191" y="322" height="24" width="243" fill="#2196f3"/><rect x="191" y="358" height="24" width="253" fill="#2196f3"/><rect x="191" y="394" height="24" width="283" fill="#2196f3"/></g><g font-size="8" fill="#065695" text-anchor="end"><text y="94" x="186">SE +/- 59638.61, N = 10</text><text y="130" x="186">SE +/- 60935.13, N = 10</text><text y="166" x="186">SE +/- 64466.44, N = 10</text><text y="202" x="186">SE +/- 60000.91, N = 10</text><text y="238" x="186">SE +/- 63879.49, N = 10</text><text y="274" x="186">SE +/- 30294.92, N = 10</text><text y="310" x="186">SE +/- 69471.43, N = 10</text><text y="346" x="186">SE +/- 65116.64, N = 10</text><text y="382" x="186">SE +/- 65683.52, N = 10</text><text y="418" x="186">SE +/- 45894.02, N = 10</text></g><g font-size="10" fill="#FFFFFF" font-weight="bold" text-anchor="end"><text x="420" y="88">1778673</text><text x="448" y="124">1994914</text><text x="432" y="160">1874708</text><text x="451" y="196">2015002</text><text x="454" y="232">2038609</text><text x="431" y="268">1869061</text><text x="441" y="304">1944016</text><text x="429" y="340">1850314</text><text x="439" y="376">1925624</text><text x="469" y="412">2151962</text></g><g stroke="#757575" stroke-width="1"><line x1="417" y1="70" x2="417" y2="78"/><line x1="433" y1="70" x2="433" y2="78"/><line x1="417" y1="70" x2="433" y2="70"/></g><g stroke="#757575" stroke-width="1"><line x1="445" y1="106" x2="445" y2="114"/><line x1="461" y1="106" x2="461" y2="114"/><line x1="445" y1="106" x2="461" y2="106"/></g><g stroke="#757575" stroke-width="1"><line x1="429" y1="142" x2="429" y2="150"/><line x1="445" y1="142" x2="445" y2="150"/><line x1="429" y1="142" x2="445" y2="142"/></g><g stroke="#757575" stroke-width="1"><line x1="448" y1="178" x2="448" y2="186"/><line x1="464" y1="178" x2="464" y2="186"/><line x1="448" y1="178" x2="464" y2="178"/></g><g stroke="#757575" stroke-width="1"><line x1="451" y1="214" x2="451" y2="222"/><line x1="467" y1="214" x2="467" y2="222"/><line x1="451" y1="214" x2="467" y2="214"/></g><g stroke="#757575" stroke-width="1"><line x1="437" y1="286" x2="437" y2="294"/><line x1="455" y1="286" x2="455" y2="294"/><line x1="437" y1="286" x2="455" y2="286"/></g><g stroke="#757575" stroke-width="1"><line x1="425" y1="322" x2="425" y2="330"/><line x1="443" y1="322" x2="443" y2="330"/><line x1="425" y1="322" x2="443" y2="322"/></g><g stroke="#757575" stroke-width="1"><line x1="435" y1="358" x2="435" y2="366"/><line x1="453" y1="358" x2="453" y2="366"/><line x1="435" y1="358" x2="453" y2="358"/></g><g stroke="#757575" stroke-width="1"><line x1="468" y1="394" x2="468" y2="402"/><line x1="480" y1="394" x2="480" y2="402"/><line x1="468" y1="394" x2="480" y2="394"/></g></svg>
