<?xml version="1.0"?>
<!DOCTYPE svg PUBLIC "-//W3C//DTD SVG 1.1//EN" "http://www.w3.org/Graphics/SVG/1.1/DTD/svg11.dtd">
<!--Phoronix Test Suite v10.4.0 [ http://www.phoronix-test-suite.com/ ]-->
<svg xmlns="http://www.w3.org/2000/svg" xmlns:xlink="http://www.w3.org/1999/xlink" version="1.1" font-family="sans-serif, droid-sans, helvetica, verdana, tahoma" viewbox="0 0 600 463" width="600" height="463" preserveAspectRatio="xMinYMin meet"><rect x="0" y="0" width="600" height="463" fill="#FEFEFE"/><g stroke="#757575" stroke-width="1"><line x1="191" y1="64" x2="191" y2="425"/><line x1="191" y1="424" x2="586" y2="424"/></g><text x="585" y="59" font-size="8" fill="#065695" text-anchor="end" font-weight="bold">Phoronix Test Suite 10.4.0</text><polygon points="200,56 191,61 191,51" fill="#065695" stroke="#949494" stroke-width="1"/><text x="203" y="59" font-size="8" font-weight="bold" fill="#065695" text-anchor="start">Messages Per Second, More Is Better</text><a xlink:href="https://openbenchmarking.org/test/pts/ipc-benchmark" target="_blank"><text x="6" y="19" font-size="17" fill="#231f20" text-anchor="start" font-weight="bold">IPC_benchmark</text></a><text x="6" y="36" font-size="11" font-weight="bold" fill="#231f20" text-anchor="start">Type: FIFO Named Pipe - Message Bytes: 256</text><path d="m74 22v9m-5-16v16m-5-28v28m-23-2h12.5c2.485281 0 4.5-2.014719 4.5-4.5s-2.014719-4.5-4.5-4.5h-8c-2.485281 0-4.5-2.014719-4.5-4.5s2.014719-4.5 4.5-4.5h12.5m-21 5h-11m11 13h-2c-4.970563 0-9-4.029437-9-9v-20m-24 40v-20c0-4.970563 4.0294373-9 9-9 4.970563 0 9 4.029437 9 9s-4.029437 9-9 9h-9" stroke="#231f20" stroke-width="4" fill="none" transform="translate(508,4)"/><line x1="191" y1="100" x2="191" y2="393" stroke="#757575" stroke-width="11" stroke-dasharray="1,35"/><g font-size="11" fill="#231f20" font-weight="bold"><text x="186" y="80" text-anchor="end">bpfbox-passive</text><text x="186" y="116" text-anchor="end">bpfbox-allow</text><text x="186" y="152" text-anchor="end">bpfbox-complaining</text><text x="186" y="188" text-anchor="end">bpfcontain-passive</text><text x="186" y="224" text-anchor="end">bpfcontain-allow</text><text x="186" y="260" text-anchor="end">bpfcontain-complaining</text><text x="186" y="296" text-anchor="end">apparmor-passive</text><text x="186" y="332" text-anchor="end">apparmor-allow</text><text x="186" y="368" text-anchor="end">apparmor-complaining</text><text x="186" y="404" text-anchor="end">base</text></g><g font-size="10" fill="#065695" text-anchor="middle"><text x="259" y="439">400K</text><text x="325" y="439">800K</text><text x="391" y="439">1200K</text><text x="457" y="439">1600K</text><text x="523" y="439">2000K</text></g><g stroke="#BABABA" stroke-width="1"><line x1="259" y1="64" x2="259" y2="419" stroke-dasharray="5,5"/><line x1="259" y1="420" x2="259" y2="429"/><line x1="325" y1="64" x2="325" y2="419" stroke-dasharray="5,5"/><line x1="325" y1="420" x2="325" y2="429"/><line x1="391" y1="64" x2="391" y2="419" stroke-dasharray="5,5"/><line x1="391" y1="420" x2="391" y2="429"/><line x1="457" y1="64" x2="457" y2="419" stroke-dasharray="5,5"/><line x1="457" y1="420" x2="457" y2="429"/><line x1="523" y1="64" x2="523" y2="419" stroke-dasharray="5,5"/><line x1="523" y1="420" x2="523" y2="429"/></g><g stroke="#949494" stroke-width="1"><rect x="191" y="70" height="24" width="289" fill="#2196f3"/><rect x="191" y="106" height="24" width="335" fill="#2196f3"/><rect x="191" y="142" height="24" width="316" fill="#2196f3"/><rect x="191" y="178" height="24" width="290" fill="#2196f3"/><rect x="191" y="214" height="24" width="320" fill="#2196f3"/><rect x="191" y="250" height="24" width="281" fill="#2196f3"/><rect x="191" y="286" height="24" width="287" fill="#2196f3"/><rect x="191" y="322" height="24" width="297" fill="#2196f3"/><rect x="191" y="358" height="24" width="302" fill="#2196f3"/><rect x="191" y="394" height="24" width="309" fill="#2196f3"/></g><g font-size="8" fill="#065695" text-anchor="end"><text y="94" x="186">SE +/- 61666.98, N = 10</text><text y="130" x="186">SE +/- 32868.39, N = 10</text><text y="166" x="186">SE +/- 64854.61, N = 10</text><text y="202" x="186">SE +/- 28243.13, N = 10</text><text y="238" x="186">SE +/- 35710.11, N = 10</text><text y="274" x="186">SE +/- 41767.79, N = 10</text><text y="310" x="186">SE +/- 27443.36, N = 10</text><text y="346" x="186">SE +/- 44671.59, N = 10</text><text y="382" x="186">SE +/- 61743.18, N = 10</text><text y="418" x="186">SE +/- 42772.83, N = 10</text></g><g font-size="10" fill="#FFFFFF" font-weight="bold" text-anchor="end"><text x="475" y="88">1762381</text><text x="521" y="124">2041510</text><text x="502" y="160">1924737</text><text x="476" y="196">1768352</text><text x="506" y="232">1947790</text><text x="467" y="268">1711865</text><text x="473" y="304">1750909</text><text x="483" y="340">1809075</text><text x="488" y="376">1841154</text><text x="495" y="412">1882711</text></g><g stroke="#757575" stroke-width="1"><line x1="470" y1="70" x2="470" y2="78"/><line x1="490" y1="70" x2="490" y2="78"/><line x1="470" y1="70" x2="490" y2="70"/></g><g stroke="#757575" stroke-width="1"><line x1="521" y1="106" x2="521" y2="114"/><line x1="531" y1="106" x2="531" y2="114"/><line x1="521" y1="106" x2="531" y2="106"/></g><g stroke="#757575" stroke-width="1"><line x1="496" y1="142" x2="496" y2="150"/><line x1="518" y1="142" x2="518" y2="150"/><line x1="496" y1="142" x2="518" y2="142"/></g><g stroke="#757575" stroke-width="1"><line x1="476" y1="178" x2="476" y2="186"/><line x1="486" y1="178" x2="486" y2="186"/><line x1="476" y1="178" x2="486" y2="178"/></g><g stroke="#757575" stroke-width="1"><line x1="505" y1="214" x2="505" y2="222"/><line x1="517" y1="214" x2="517" y2="222"/><line x1="505" y1="214" x2="517" y2="214"/></g><g stroke="#757575" stroke-width="1"><line x1="465" y1="250" x2="465" y2="258"/><line x1="479" y1="250" x2="479" y2="258"/><line x1="465" y1="250" x2="479" y2="250"/></g><g stroke="#757575" stroke-width="1"><line x1="473" y1="286" x2="473" y2="294"/><line x1="483" y1="286" x2="483" y2="294"/><line x1="473" y1="286" x2="483" y2="286"/></g><g stroke="#757575" stroke-width="1"><line x1="481" y1="322" x2="481" y2="330"/><line x1="495" y1="322" x2="495" y2="330"/><line x1="481" y1="322" x2="495" y2="322"/></g><g stroke="#757575" stroke-width="1"><line x1="483" y1="358" x2="483" y2="366"/><line x1="503" y1="358" x2="503" y2="366"/><line x1="483" y1="358" x2="503" y2="358"/></g><g stroke="#757575" stroke-width="1"><line x1="493" y1="394" x2="493" y2="402"/><line x1="507" y1="394" x2="507" y2="402"/><line x1="493" y1="394" x2="507" y2="394"/></g></svg>
