<?xml version="1.0"?>
<!DOCTYPE svg PUBLIC "-//W3C//DTD SVG 1.1//EN" "http://www.w3.org/Graphics/SVG/1.1/DTD/svg11.dtd">
<!--Phoronix Test Suite v10.4.0 [ http://www.phoronix-test-suite.com/ ]-->
<svg xmlns="http://www.w3.org/2000/svg" xmlns:xlink="http://www.w3.org/1999/xlink" version="1.1" font-family="sans-serif, droid-sans, helvetica, verdana, tahoma" viewbox="0 0 600 379" width="600" height="379" preserveAspectRatio="xMinYMin meet"><rect x="0" y="0" width="600" height="379" fill="#FEFEFE"/><g stroke="#757575" stroke-width="1"><line x1="191" y1="64" x2="191" y2="341"/><line x1="191" y1="340" x2="586" y2="340"/></g><text x="585" y="59" font-size="8" fill="#065695" text-anchor="end" font-weight="bold">Phoronix Test Suite 10.4.0</text><polygon points="200,56 191,61 191,51" fill="#065695" stroke="#949494" stroke-width="1"/><text x="203" y="59" font-size="8" font-weight="bold" fill="#065695" text-anchor="start">Messages Per Second, More Is Better</text><a xlink:href="https://openbenchmarking.org/test/pts/ipc-benchmark" target="_blank"><text x="6" y="19" font-size="17" fill="#231f20" text-anchor="start" font-weight="bold">IPC_benchmark</text></a><text x="6" y="36" font-size="11" font-weight="bold" fill="#231f20" text-anchor="start">Type: TCP Socket - Message Bytes: 2048</text><path d="m74 22v9m-5-16v16m-5-28v28m-23-2h12.5c2.485281 0 4.5-2.014719 4.5-4.5s-2.014719-4.5-4.5-4.5h-8c-2.485281 0-4.5-2.014719-4.5-4.5s2.014719-4.5 4.5-4.5h12.5m-21 5h-11m11 13h-2c-4.970563 0-9-4.029437-9-9v-20m-24 40v-20c0-4.970563 4.0294373-9 9-9 4.970563 0 9 4.029437 9 9s-4.029437 9-9 9h-9" stroke="#231f20" stroke-width="4" fill="none" transform="translate(508,4)"/><line x1="191" y1="110" x2="191" y2="329" stroke="#757575" stroke-width="11" stroke-dasharray="1,45"/><g font-size="11" fill="#231f20" font-weight="bold"><text x="186" y="85" text-anchor="end">bpfbox-passive</text><text x="186" y="131" text-anchor="end">bpfbox-allow</text><text x="186" y="177" text-anchor="end">bpfbox-complaining</text><text x="186" y="223" text-anchor="end">bpfcontain-passive</text><text x="186" y="269" text-anchor="end">bpfcontain-allow</text><text x="186" y="315" text-anchor="end">bpfcontain-complaining</text></g><g font-size="10" fill="#065695" text-anchor="middle"><text x="259" y="355">200K</text><text x="325" y="355">400K</text><text x="391" y="355">600K</text><text x="457" y="355">800K</text><text x="523" y="355">1000K</text></g><g stroke="#BABABA" stroke-width="1"><line x1="259" y1="64" x2="259" y2="335" stroke-dasharray="5,5"/><line x1="259" y1="336" x2="259" y2="345"/><line x1="325" y1="64" x2="325" y2="335" stroke-dasharray="5,5"/><line x1="325" y1="336" x2="325" y2="345"/><line x1="391" y1="64" x2="391" y2="335" stroke-dasharray="5,5"/><line x1="391" y1="336" x2="391" y2="345"/><line x1="457" y1="64" x2="457" y2="335" stroke-dasharray="5,5"/><line x1="457" y1="336" x2="457" y2="345"/><line x1="523" y1="64" x2="523" y2="335" stroke-dasharray="5,5"/><line x1="523" y1="336" x2="523" y2="345"/></g><g stroke="#949494" stroke-width="1"><rect x="191" y="70" height="34" width="294" fill="#2196f3"/><rect x="191" y="116" height="34" width="285" fill="#2196f3"/><rect x="191" y="162" height="34" width="268" fill="#2196f3"/><rect x="191" y="208" height="34" width="293" fill="#2196f3"/><rect x="191" y="254" height="34" width="281" fill="#2196f3"/><rect x="191" y="300" height="34" width="206" fill="#2196f3"/></g><g font-size="8" fill="#065695" text-anchor="end"><text y="101" x="186">SE +/- 4394.88, N = 10</text><text y="147" x="186">SE +/- 3268.01, N = 10</text><text y="193" x="186">SE +/- 1125.79, N = 10</text><text y="239" x="186">SE +/- 7796.59, N = 10</text><text y="285" x="186">SE +/- 2280.63, N = 10</text><text y="331" x="186">SE +/- 1837.42, N = 10</text></g><g font-size="10" fill="#FFFFFF" font-weight="bold" text-anchor="end"><text x="480" y="93">895665</text><text x="471" y="139">868215</text><text x="454" y="185">817240</text><text x="479" y="231">891269</text><text x="467" y="277">857301</text><text x="392" y="323">626949</text></g></svg>
