<?xml version="1.0"?>
<!DOCTYPE svg PUBLIC "-//W3C//DTD SVG 1.1//EN" "http://www.w3.org/Graphics/SVG/1.1/DTD/svg11.dtd">
<!--Phoronix Test Suite v10.4.0 [ http://www.phoronix-test-suite.com/ ]-->
<svg xmlns="http://www.w3.org/2000/svg" xmlns:xlink="http://www.w3.org/1999/xlink" version="1.1" font-family="sans-serif, droid-sans, helvetica, verdana, tahoma" viewbox="0 0 600 379" width="600" height="379" preserveAspectRatio="xMinYMin meet"><rect x="0" y="0" width="600" height="379" fill="#FEFEFE"/><g stroke="#757575" stroke-width="1"><line x1="191" y1="64" x2="191" y2="341"/><line x1="191" y1="340" x2="586" y2="340"/></g><text x="585" y="59" font-size="8" fill="#065695" text-anchor="end" font-weight="bold">Phoronix Test Suite 10.4.0</text><polygon points="200,56 191,61 191,51" fill="#065695" stroke="#949494" stroke-width="1"/><text x="203" y="59" font-size="8" font-weight="bold" fill="#065695" text-anchor="start">Messages Per Second, More Is Better</text><a xlink:href="https://openbenchmarking.org/test/pts/ipc-benchmark" target="_blank"><text x="6" y="19" font-size="17" fill="#231f20" text-anchor="start" font-weight="bold">IPC_benchmark</text></a><text x="6" y="36" font-size="11" font-weight="bold" fill="#231f20" text-anchor="start">Type: Unnamed Pipe - Message Bytes: 128</text><path d="m74 22v9m-5-16v16m-5-28v28m-23-2h12.5c2.485281 0 4.5-2.014719 4.5-4.5s-2.014719-4.5-4.5-4.5h-8c-2.485281 0-4.5-2.014719-4.5-4.5s2.014719-4.5 4.5-4.5h12.5m-21 5h-11m11 13h-2c-4.970563 0-9-4.029437-9-9v-20m-24 40v-20c0-4.970563 4.0294373-9 9-9 4.970563 0 9 4.029437 9 9s-4.029437 9-9 9h-9" stroke="#231f20" stroke-width="4" fill="none" transform="translate(508,4)"/><line x1="191" y1="110" x2="191" y2="329" stroke="#757575" stroke-width="11" stroke-dasharray="1,45"/><g font-size="11" fill="#231f20" font-weight="bold"><text x="186" y="85" text-anchor="end">bpfbox-passive</text><text x="186" y="131" text-anchor="end">bpfbox-allow</text><text x="186" y="177" text-anchor="end">bpfbox-complaining</text><text x="186" y="223" text-anchor="end">bpfcontain-passive</text><text x="186" y="269" text-anchor="end">bpfcontain-allow</text><text x="186" y="315" text-anchor="end">bpfcontain-complaining</text></g><g font-size="10" fill="#065695" text-anchor="middle"><text x="259" y="355">500K</text><text x="325" y="355">1000K</text><text x="391" y="355">1500K</text><text x="457" y="355">2000K</text><text x="523" y="355">2500K</text></g><g stroke="#BABABA" stroke-width="1"><line x1="259" y1="64" x2="259" y2="335" stroke-dasharray="5,5"/><line x1="259" y1="336" x2="259" y2="345"/><line x1="325" y1="64" x2="325" y2="335" stroke-dasharray="5,5"/><line x1="325" y1="336" x2="325" y2="345"/><line x1="391" y1="64" x2="391" y2="335" stroke-dasharray="5,5"/><line x1="391" y1="336" x2="391" y2="345"/><line x1="457" y1="64" x2="457" y2="335" stroke-dasharray="5,5"/><line x1="457" y1="336" x2="457" y2="345"/><line x1="523" y1="64" x2="523" y2="335" stroke-dasharray="5,5"/><line x1="523" y1="336" x2="523" y2="345"/></g><g stroke="#949494" stroke-width="1"><rect x="191" y="70" height="34" width="293" fill="#2196f3"/><rect x="191" y="116" height="34" width="274" fill="#2196f3"/><rect x="191" y="162" height="34" width="268" fill="#2196f3"/><rect x="191" y="208" height="34" width="262" fill="#2196f3"/><rect x="191" y="254" height="34" width="290" fill="#2196f3"/><rect x="191" y="300" height="34" width="265" fill="#2196f3"/></g><g font-size="8" fill="#065695" text-anchor="end"><text y="101" x="186">SE +/- 87028.83, N = 10</text><text y="147" x="186">SE +/- 82524.91, N = 10</text><text y="193" x="186">SE +/- 84910.13, N = 10</text><text y="239" x="186">SE +/- 80268.06, N = 10</text><text y="285" x="186">SE +/- 95866.71, N = 10</text><text y="331" x="186">SE +/- 85672.11, N = 10</text></g><g font-size="10" fill="#FFFFFF" font-weight="bold" text-anchor="end"><text x="479" y="93">2231025</text><text x="460" y="139">2087136</text><text x="454" y="185">2043811</text><text x="448" y="231">1998730</text><text x="476" y="277">2207389</text><text x="451" y="323">2017766</text></g><g stroke="#757575" stroke-width="1"><line x1="473" y1="70" x2="473" y2="78"/><line x1="495" y1="70" x2="495" y2="78"/><line x1="473" y1="70" x2="495" y2="70"/></g><g stroke="#757575" stroke-width="1"><line x1="454" y1="116" x2="454" y2="124"/><line x1="476" y1="116" x2="476" y2="124"/><line x1="454" y1="116" x2="476" y2="116"/></g><g stroke="#757575" stroke-width="1"><line x1="448" y1="162" x2="448" y2="170"/><line x1="470" y1="162" x2="470" y2="170"/><line x1="448" y1="162" x2="470" y2="162"/></g><g stroke="#757575" stroke-width="1"><line x1="442" y1="208" x2="442" y2="216"/><line x1="464" y1="208" x2="464" y2="216"/><line x1="442" y1="208" x2="464" y2="208"/></g><g stroke="#757575" stroke-width="1"><line x1="468" y1="254" x2="468" y2="262"/><line x1="494" y1="254" x2="494" y2="262"/><line x1="468" y1="254" x2="494" y2="254"/></g><g stroke="#757575" stroke-width="1"><line x1="445" y1="300" x2="445" y2="308"/><line x1="467" y1="300" x2="467" y2="308"/><line x1="445" y1="300" x2="467" y2="300"/></g></svg>
