<?xml version="1.0"?>
<!DOCTYPE svg PUBLIC "-//W3C//DTD SVG 1.1//EN" "http://www.w3.org/Graphics/SVG/1.1/DTD/svg11.dtd">
<!--Phoronix Test Suite v10.4.0 [ http://www.phoronix-test-suite.com/ ]-->
<svg xmlns="http://www.w3.org/2000/svg" xmlns:xlink="http://www.w3.org/1999/xlink" version="1.1" font-family="sans-serif, droid-sans, helvetica, verdana, tahoma" viewbox="0 0 600 463" width="600" height="463" preserveAspectRatio="xMinYMin meet"><rect x="0" y="0" width="600" height="463" fill="#FEFEFE"/><g stroke="#757575" stroke-width="1"><line x1="191" y1="64" x2="191" y2="425"/><line x1="191" y1="424" x2="586" y2="424"/></g><text x="585" y="59" font-size="8" fill="#065695" text-anchor="end" font-weight="bold">Phoronix Test Suite 10.4.0</text><polygon points="200,56 191,61 191,51" fill="#065695" stroke="#949494" stroke-width="1"/><text x="203" y="59" font-size="8" font-weight="bold" fill="#065695" text-anchor="start">Messages Per Second, More Is Better</text><a xlink:href="https://openbenchmarking.org/test/pts/ipc-benchmark" target="_blank"><text x="6" y="19" font-size="17" fill="#231f20" text-anchor="start" font-weight="bold">IPC_benchmark</text></a><text x="6" y="36" font-size="11" font-weight="bold" fill="#231f20" text-anchor="start">Type: Unnamed Pipe - Message Bytes: 128</text><path d="m74 22v9m-5-16v16m-5-28v28m-23-2h12.5c2.485281 0 4.5-2.014719 4.5-4.5s-2.014719-4.5-4.5-4.5h-8c-2.485281 0-4.5-2.014719-4.5-4.5s2.014719-4.5 4.5-4.5h12.5m-21 5h-11m11 13h-2c-4.970563 0-9-4.029437-9-9v-20m-24 40v-20c0-4.970563 4.0294373-9 9-9 4.970563 0 9 4.029437 9 9s-4.029437 9-9 9h-9" stroke="#231f20" stroke-width="4" fill="none" transform="translate(508,4)"/><line x1="191" y1="100" x2="191" y2="393" stroke="#757575" stroke-width="11" stroke-dasharray="1,35"/><g font-size="11" fill="#231f20" font-weight="bold"><text x="186" y="80" text-anchor="end">bpfbox-passive</text><text x="186" y="116" text-anchor="end">bpfbox-allow</text><text x="186" y="152" text-anchor="end">bpfbox-complaining</text><text x="186" y="188" text-anchor="end">bpfcontain-passive</text><text x="186" y="224" text-anchor="end">bpfcontain-allow</text><text x="186" y="260" text-anchor="end">bpfcontain-complaining</text><text x="186" y="296" text-anchor="end">apparmor-passive</text><text x="186" y="332" text-anchor="end">apparmor-allow</text><text x="186" y="368" text-anchor="end">apparmor-complaining</text><text x="186" y="404" text-anchor="end">base</text></g><g font-size="10" fill="#065695" text-anchor="middle"><text x="259" y="439">500K</text><text x="325" y="439">1000K</text><text x="391" y="439">1500K</text><text x="457" y="439">2000K</text><text x="523" y="439">2500K</text></g><g stroke="#BABABA" stroke-width="1"><line x1="259" y1="64" x2="259" y2="419" stroke-dasharray="5,5"/><line x1="259" y1="420" x2="259" y2="429"/><line x1="325" y1="64" x2="325" y2="419" stroke-dasharray="5,5"/><line x1="325" y1="420" x2="325" y2="429"/><line x1="391" y1="64" x2="391" y2="419" stroke-dasharray="5,5"/><line x1="391" y1="420" x2="391" y2="429"/><line x1="457" y1="64" x2="457" y2="419" stroke-dasharray="5,5"/><line x1="457" y1="420" x2="457" y2="429"/><line x1="523" y1="64" x2="523" y2="419" stroke-dasharray="5,5"/><line x1="523" y1="420" x2="523" y2="429"/></g><g stroke="#949494" stroke-width="1"><rect x="191" y="70" height="24" width="293" fill="#2196f3"/><rect x="191" y="106" height="24" width="274" fill="#2196f3"/><rect x="191" y="142" height="24" width="268" fill="#2196f3"/><rect x="191" y="178" height="24" width="262" fill="#2196f3"/><rect x="191" y="214" height="24" width="290" fill="#2196f3"/><rect x="191" y="250" height="24" width="265" fill="#2196f3"/><rect x="191" y="286" height="24" width="253" fill="#2196f3"/><rect x="191" y="322" height="24" width="246" fill="#2196f3"/><rect x="191" y="358" height="24" width="221" fill="#2196f3"/><rect x="191" y="394" height="24" width="297" fill="#2196f3"/></g><g font-size="8" fill="#065695" text-anchor="end"><text y="94" x="186">SE +/- 87028.83, N = 10</text><text y="130" x="186">SE +/- 82524.91, N = 10</text><text y="166" x="186">SE +/- 84910.13, N = 10</text><text y="202" x="186">SE +/- 80268.06, N = 10</text><text y="238" x="186">SE +/- 95866.71, N = 10</text><text y="274" x="186">SE +/- 85672.11, N = 10</text><text y="310" x="186">SE +/- 78861.86, N = 10</text><text y="346" x="186">SE +/- 66165.60, N = 10</text><text y="382" x="186">SE +/- 30243.68, N = 10</text><text y="418" x="186">SE +/- 99326.23, N = 10</text></g><g font-size="10" fill="#FFFFFF" font-weight="bold" text-anchor="end"><text x="479" y="88">2231025</text><text x="460" y="124">2087136</text><text x="454" y="160">2043811</text><text x="448" y="196">1998730</text><text x="476" y="232">2207389</text><text x="451" y="268">2017766</text><text x="439" y="304">1928227</text><text x="432" y="340">1871516</text><text x="407" y="376">1683550</text><text x="483" y="412">2258687</text></g><g stroke="#757575" stroke-width="1"><line x1="473" y1="70" x2="473" y2="78"/><line x1="495" y1="70" x2="495" y2="78"/><line x1="473" y1="70" x2="495" y2="70"/></g><g stroke="#757575" stroke-width="1"><line x1="454" y1="106" x2="454" y2="114"/><line x1="476" y1="106" x2="476" y2="114"/><line x1="454" y1="106" x2="476" y2="106"/></g><g stroke="#757575" stroke-width="1"><line x1="448" y1="142" x2="448" y2="150"/><line x1="470" y1="142" x2="470" y2="150"/><line x1="448" y1="142" x2="470" y2="142"/></g><g stroke="#757575" stroke-width="1"><line x1="442" y1="178" x2="442" y2="186"/><line x1="464" y1="178" x2="464" y2="186"/><line x1="442" y1="178" x2="464" y2="178"/></g><g stroke="#757575" stroke-width="1"><line x1="468" y1="214" x2="468" y2="222"/><line x1="494" y1="214" x2="494" y2="222"/><line x1="468" y1="214" x2="494" y2="214"/></g><g stroke="#757575" stroke-width="1"><line x1="445" y1="250" x2="445" y2="258"/><line x1="467" y1="250" x2="467" y2="258"/><line x1="445" y1="250" x2="467" y2="250"/></g><g stroke="#757575" stroke-width="1"><line x1="434" y1="286" x2="434" y2="294"/><line x1="454" y1="286" x2="454" y2="294"/><line x1="434" y1="286" x2="454" y2="286"/></g><g stroke="#757575" stroke-width="1"><line x1="428" y1="322" x2="428" y2="330"/><line x1="446" y1="322" x2="446" y2="330"/><line x1="428" y1="322" x2="446" y2="322"/></g><g stroke="#757575" stroke-width="1"><line x1="475" y1="394" x2="475" y2="402"/><line x1="501" y1="394" x2="501" y2="402"/><line x1="475" y1="394" x2="501" y2="394"/></g></svg>
