<?xml version="1.0"?>
<!DOCTYPE svg PUBLIC "-//W3C//DTD SVG 1.1//EN" "http://www.w3.org/Graphics/SVG/1.1/DTD/svg11.dtd">
<!--Phoronix Test Suite v10.4.0 [ http://www.phoronix-test-suite.com/ ]-->
<svg xmlns="http://www.w3.org/2000/svg" xmlns:xlink="http://www.w3.org/1999/xlink" version="1.1" font-family="sans-serif, droid-sans, helvetica, verdana, tahoma" viewbox="0 0 2038 473" width="2038" height="473" preserveAspectRatio="xMinYMin meet"><rect x="0" y="0" width="2038" height="473" fill="#FEFEFE"/><rect x="1" y="1" width="2037" height="472" fill="#FEFEFE" stroke="#757575" stroke-width="1"/><path d="m74 22v9m-5-16v16m-5-28v28m-23-2h12.5c2.485281 0 4.5-2.014719 4.5-4.5s-2.014719-4.5-4.5-4.5h-8c-2.485281 0-4.5-2.014719-4.5-4.5s2.014719-4.5 4.5-4.5h12.5m-21 5h-11m11 13h-2c-4.970563 0-9-4.029437-9-9v-20m-24 40v-20c0-4.970563 4.0294373-9 9-9 4.970563 0 9 4.029437 9 9s-4.029437 9-9 9h-9" stroke="#000000" stroke-width="4" fill="none" transform="translate(139,28)"/><line x1="358" y1="241" x2="2038" y2="241" stroke="#BABABA" stroke-width="432" stroke-dasharray="168,168"/><line x1="1019" y1="73" x2="1019" y2="457" stroke="#949494" stroke-width="2038" stroke-dasharray="16,16"/><line x1="358" y1="241" x2="2038" y2="241" stroke="#757575" stroke-width="432" stroke-dasharray="1,167"/><rect x="1" y="1" width="2036" height="25" fill="#231f20"/><text x="5" y="19" font-size="17" fill="#FEFEFE" text-anchor="start">ipc</text><line x1="1" y1="25" x2="2037" y2="25" stroke="#757575" stroke-width="1"/><g font-size="10" font-weight="bold" fill="#065695" text-anchor="end"><a xlink:href="https://openbenchmarking.org/test/pts/ipc-benchmark-1.0.0" target="_blank"><text x="356" y="85">ipc-benchmark: TCP Socket - 128</text></a><a xlink:href="https://openbenchmarking.org/test/pts/ipc-benchmark-1.0.0" target="_blank"><text x="356" y="101">ipc-benchmark: TCP Socket - 256</text></a><a xlink:href="https://openbenchmarking.org/test/pts/ipc-benchmark-1.0.0" target="_blank"><text x="356" y="117">ipc-benchmark: TCP Socket - 512</text></a><a xlink:href="https://openbenchmarking.org/test/pts/ipc-benchmark-1.0.0" target="_blank"><text x="356" y="133">ipc-benchmark: TCP Socket - 1024</text></a><a xlink:href="https://openbenchmarking.org/test/pts/ipc-benchmark-1.0.0" target="_blank"><text x="356" y="149">ipc-benchmark: TCP Socket - 2048</text></a><a xlink:href="https://openbenchmarking.org/test/pts/ipc-benchmark-1.0.0" target="_blank"><text x="356" y="165">ipc-benchmark: TCP Socket - 4096</text></a><a xlink:href="https://openbenchmarking.org/test/pts/ipc-benchmark-1.0.0" target="_blank"><text x="356" y="181">ipc-benchmark: Unnamed Pipe - 128</text></a><a xlink:href="https://openbenchmarking.org/test/pts/ipc-benchmark-1.0.0" target="_blank"><text x="356" y="197">ipc-benchmark: Unnamed Pipe - 256</text></a><a xlink:href="https://openbenchmarking.org/test/pts/ipc-benchmark-1.0.0" target="_blank"><text x="356" y="213">ipc-benchmark: Unnamed Pipe - 512</text></a><a xlink:href="https://openbenchmarking.org/test/pts/ipc-benchmark-1.0.0" target="_blank"><text x="356" y="229">ipc-benchmark: Unnamed Pipe - 1024</text></a><a xlink:href="https://openbenchmarking.org/test/pts/ipc-benchmark-1.0.0" target="_blank"><text x="356" y="245">ipc-benchmark: Unnamed Pipe - 2048</text></a><a xlink:href="https://openbenchmarking.org/test/pts/ipc-benchmark-1.0.0" target="_blank"><text x="356" y="261">ipc-benchmark: Unnamed Pipe - 4096</text></a><a xlink:href="https://openbenchmarking.org/test/pts/ipc-benchmark-1.0.0" target="_blank"><text x="356" y="277">ipc-benchmark: FIFO Named Pipe - 128</text></a><a xlink:href="https://openbenchmarking.org/test/pts/ipc-benchmark-1.0.0" target="_blank"><text x="356" y="293">ipc-benchmark: FIFO Named Pipe - 256</text></a><a xlink:href="https://openbenchmarking.org/test/pts/ipc-benchmark-1.0.0" target="_blank"><text x="356" y="309">ipc-benchmark: FIFO Named Pipe - 512</text></a><a xlink:href="https://openbenchmarking.org/test/pts/ipc-benchmark-1.0.0" target="_blank"><text x="356" y="325">ipc-benchmark: FIFO Named Pipe - 1024</text></a><a xlink:href="https://openbenchmarking.org/test/pts/ipc-benchmark-1.0.0" target="_blank"><text x="356" y="341">ipc-benchmark: FIFO Named Pipe - 2048</text></a><a xlink:href="https://openbenchmarking.org/test/pts/ipc-benchmark-1.0.0" target="_blank"><text x="356" y="357">ipc-benchmark: FIFO Named Pipe - 4096</text></a><a xlink:href="https://openbenchmarking.org/test/pts/ipc-benchmark-1.0.0" target="_blank"><text x="356" y="373">ipc-benchmark: Unnamed Unix Domain Socket - 128</text></a><a xlink:href="https://openbenchmarking.org/test/pts/ipc-benchmark-1.0.0" target="_blank"><text x="356" y="389">ipc-benchmark: Unnamed Unix Domain Socket - 256</text></a><a xlink:href="https://openbenchmarking.org/test/pts/ipc-benchmark-1.0.0" target="_blank"><text x="356" y="405">ipc-benchmark: Unnamed Unix Domain Socket - 512</text></a><a xlink:href="https://openbenchmarking.org/test/pts/ipc-benchmark-1.0.0" target="_blank"><text x="356" y="421">ipc-benchmark: Unnamed Unix Domain Socket - 1024</text></a><a xlink:href="https://openbenchmarking.org/test/pts/ipc-benchmark-1.0.0" target="_blank"><text x="356" y="437">ipc-benchmark: Unnamed Unix Domain Socket - 2048</text></a><a xlink:href="https://openbenchmarking.org/test/pts/ipc-benchmark-1.0.0" target="_blank"><text x="356" y="453">ipc-benchmark: Unnamed Unix Domain Socket - 4096</text></a></g><g font-size="10" fill="#065695" font-weight="bold" text-anchor="middle" dominant-baseline="text-before-edge"><text x="442" y="49">bpfbox-passive</text><text x="610" y="49">bpfbox-allow</text><text x="778" y="49">bpfbox-complaining</text><text x="946" y="49">bpfcontain-passive</text><text x="1114" y="49">bpfcontain-allow</text><text x="1282" y="49">bpfcontain-complaining</text><text x="1450" y="49">apparmor-passive</text><text x="1618" y="49">apparmor-allow</text><text x="1786" y="49">apparmor-complaining</text><text x="1954" y="49">base</text></g><g fill="#BABABA"/><g text-anchor="middle" font-size="10" fill="#065695"><text x="442" y="86">1383328</text><text x="442" y="102">1343981</text><text x="442" y="118">1214177</text><text x="442" y="134">1119986</text><text x="442" y="150">895665</text><text x="442" y="166">640041</text><text x="442" y="182">2231025</text><text x="442" y="198" fill="#005a00">2203493</text><text x="442" y="214">1941872</text><text x="442" y="230">1139844</text><text x="442" y="246" fill="#005a00">983844</text><text x="442" y="262" fill="#005a00">746076</text><text x="442" y="278" fill="#C80000">1778673</text><text x="442" y="294">1762381</text><text x="442" y="310">1780320</text><text x="442" y="326">1243622</text><text x="442" y="342">904663</text><text x="442" y="358">757971</text><text x="442" y="374">808422</text><text x="442" y="390">763956</text><text x="442" y="406">782530</text><text x="442" y="422">708983</text><text x="442" y="438">583657</text><text x="442" y="454">586616</text><text x="610" y="86">1324223</text><text x="610" y="102">1286252</text><text x="610" y="118">1162778</text><text x="610" y="134">1058587</text><text x="610" y="150">868215</text><text x="610" y="166">608814</text><text x="610" y="182">2087136</text><text x="610" y="198">2140749</text><text x="610" y="214">1769352</text><text x="610" y="230">1202628</text><text x="610" y="246">923815</text><text x="610" y="262">661051</text><text x="610" y="278">1994914</text><text x="610" y="294" fill="#005a00">2041510</text><text x="610" y="310">1865946</text><text x="610" y="326">1302452</text><text x="610" y="342">966537</text><text x="610" y="358">690200</text><text x="610" y="374">813585</text><text x="610" y="390">772847</text><text x="610" y="406">765448</text><text x="610" y="422">707666</text><text x="610" y="438">548354</text><text x="610" y="454">560613</text><text x="778" y="86">1265340</text><text x="778" y="102">1224988</text><text x="778" y="118">1124869</text><text x="778" y="134">1003495</text><text x="778" y="150">817240</text><text x="778" y="166">579388</text><text x="778" y="182">2043811</text><text x="778" y="198">2061061</text><text x="778" y="214">1742644</text><text x="778" y="230">1396100</text><text x="778" y="246">972791</text><text x="778" y="262">698024</text><text x="778" y="278">1874708</text><text x="778" y="294">1924737</text><text x="778" y="310" fill="#C80000">1731229</text><text x="778" y="326">1257662</text><text x="778" y="342">945586</text><text x="778" y="358" fill="#005a00">778114</text><text x="778" y="374">749188</text><text x="778" y="390">733809</text><text x="778" y="406">707181</text><text x="778" y="422">673189</text><text x="778" y="438">553562</text><text x="778" y="454">541288</text><text x="946" y="86">1378984</text><text x="946" y="102">1335857</text><text x="946" y="118">1208091</text><text x="946" y="134">1121181</text><text x="946" y="150">891269</text><text x="946" y="166">625719</text><text x="946" y="182">1998730</text><text x="946" y="198">1873355</text><text x="946" y="214">1913594</text><text x="946" y="230">1195796</text><text x="946" y="246" fill="#C80000">857596</text><text x="946" y="262">649570</text><text x="946" y="278">2015002</text><text x="946" y="294">1768352</text><text x="946" y="310" fill="#005a00">1959057</text><text x="946" y="326">1371510</text><text x="946" y="342" fill="#005a00">994571</text><text x="946" y="358">724791</text><text x="946" y="374">797903</text><text x="946" y="390">754494</text><text x="946" y="406">758212</text><text x="946" y="422">688903</text><text x="946" y="438">570317</text><text x="946" y="454">568119</text><text x="1114" y="86">1275216</text><text x="1114" y="102">1235493</text><text x="1114" y="118">1119081</text><text x="1114" y="134">1013646</text><text x="1114" y="150">857301</text><text x="1114" y="166">604145</text><text x="1114" y="182">2207389</text><text x="1114" y="198">1978617</text><text x="1114" y="214" fill="#005a00">1982302</text><text x="1114" y="230">1246003</text><text x="1114" y="246">913269</text><text x="1114" y="262" fill="#C80000">597119</text><text x="1114" y="278">2038609</text><text x="1114" y="294">1947790</text><text x="1114" y="310">1739706</text><text x="1114" y="326" fill="#C80000">1211744</text><text x="1114" y="342">944806</text><text x="1114" y="358">758792</text><text x="1114" y="374" fill="#C80000">688905</text><text x="1114" y="390" fill="#C80000">685398</text><text x="1114" y="406" fill="#C80000">685603</text><text x="1114" y="422" fill="#C80000">628640</text><text x="1114" y="438" fill="#C80000">522860</text><text x="1114" y="454" fill="#C80000">511120</text><text x="1282" y="86" fill="#C80000">857469</text><text x="1282" y="102" fill="#C80000">838066</text><text x="1282" y="118" fill="#C80000">791436</text><text x="1282" y="134" fill="#C80000">718847</text><text x="1282" y="150" fill="#C80000">626949</text><text x="1282" y="166" fill="#C80000">483724</text><text x="1282" y="182">2017766</text><text x="1282" y="198">2012328</text><text x="1282" y="214">1801080</text><text x="1282" y="230">1203088</text><text x="1282" y="246">961795</text><text x="1282" y="262">736108</text><text x="1282" y="278">1869061</text><text x="1282" y="294" fill="#C80000">1711865</text><text x="1282" y="310">1748063</text><text x="1282" y="326">1274733</text><text x="1282" y="342">957696</text><text x="1282" y="358">749993</text><text x="1282" y="374">712721</text><text x="1282" y="390">687477</text><text x="1282" y="406">693537</text><text x="1282" y="422">650020</text><text x="1282" y="438">525125</text><text x="1282" y="454">527290</text><text x="1450" y="86">1691448</text><text x="1450" y="102">1606596</text><text x="1450" y="118">1434528</text><text x="1450" y="134">1300199</text><text x="1450" y="150">1009026</text><text x="1450" y="166">690250</text><text x="1450" y="182">1928227</text><text x="1450" y="198">2106110</text><text x="1450" y="214">1760255</text><text x="1450" y="230">1208545</text><text x="1450" y="246">865740</text><text x="1450" y="262">740619</text><text x="1450" y="278">1944016</text><text x="1450" y="294">1750909</text><text x="1450" y="310">1850638</text><text x="1450" y="326">1384291</text><text x="1450" y="342" fill="#C80000">872711</text><text x="1450" y="358">652583</text><text x="1450" y="374">816619</text><text x="1450" y="390">849739</text><text x="1450" y="406">875628</text><text x="1450" y="422">772019</text><text x="1450" y="438">591733</text><text x="1450" y="454">596908</text><text x="1618" y="86">1556546</text><text x="1618" y="102">1496578</text><text x="1618" y="118">1341386</text><text x="1618" y="134">1230358</text><text x="1618" y="150">976785</text><text x="1618" y="166">665466</text><text x="1618" y="182">1871516</text><text x="1618" y="198">1946122</text><text x="1618" y="214" fill="#C80000">1623332</text><text x="1618" y="230">1362695</text><text x="1618" y="246">971701</text><text x="1618" y="262">636742</text><text x="1618" y="278">1850314</text><text x="1618" y="294">1809075</text><text x="1618" y="310">1829138</text><text x="1618" y="326">1311910</text><text x="1618" y="342">952652</text><text x="1618" y="358" fill="#C80000">604611</text><text x="1618" y="374">833984</text><text x="1618" y="390">773356</text><text x="1618" y="406">771929</text><text x="1618" y="422">725603</text><text x="1618" y="438">576588</text><text x="1618" y="454">567713</text><text x="1786" y="86">1557648</text><text x="1786" y="102">1497759</text><text x="1786" y="118">1336659</text><text x="1786" y="134">1237702</text><text x="1786" y="150">969126</text><text x="1786" y="166">662857</text><text x="1786" y="182" fill="#C80000">1683550</text><text x="1786" y="198" fill="#C80000">1839933</text><text x="1786" y="214">1804078</text><text x="1786" y="230" fill="#005a00">1446320</text><text x="1786" y="246">923712</text><text x="1786" y="262">682072</text><text x="1786" y="278">1925624</text><text x="1786" y="294">1841154</text><text x="1786" y="310">1900681</text><text x="1786" y="326" fill="#005a00">1395709</text><text x="1786" y="342">945925</text><text x="1786" y="358">704483</text><text x="1786" y="374">850750</text><text x="1786" y="390">835121</text><text x="1786" y="406">826229</text><text x="1786" y="422">735255</text><text x="1786" y="438">570339</text><text x="1786" y="454">571979</text><text x="1954" y="86" fill="#005a00">1885966</text><text x="1954" y="102" fill="#005a00">1742174</text><text x="1954" y="118" fill="#005a00">1622748</text><text x="1954" y="134" fill="#005a00">1398461</text><text x="1954" y="150" fill="#005a00">1064692</text><text x="1954" y="166" fill="#005a00">712266</text><text x="1954" y="182" fill="#005a00">2258687</text><text x="1954" y="198">1885412</text><text x="1954" y="214">1763440</text><text x="1954" y="230" fill="#C80000">1120895</text><text x="1954" y="246">924036</text><text x="1954" y="262">694165</text><text x="1954" y="278" fill="#005a00">2151962</text><text x="1954" y="294">1882711</text><text x="1954" y="310">1887567</text><text x="1954" y="326">1339797</text><text x="1954" y="342">931321</text><text x="1954" y="358">723893</text><text x="1954" y="374" fill="#005a00">958932</text><text x="1954" y="390" fill="#005a00">920754</text><text x="1954" y="406" fill="#005a00">890237</text><text x="1954" y="422" fill="#005a00">795757</text><text x="1954" y="438" fill="#005a00">617965</text><text x="1954" y="454" fill="#005a00">627211</text></g><line x1="1019" y1="73" x2="1019" y2="457" stroke="#949494" stroke-width="2038" stroke-dasharray="1,15"/><rect x="0" y="457" width="2038" height="16" fill="#231f20"/><text x="2036" y="470" font-size="10" fill="#FFFFFF" text-anchor="end">Phoronix Test Suite 10.4.0</text></svg>
