<?xml version="1.0"?>
<!DOCTYPE svg PUBLIC "-//W3C//DTD SVG 1.1//EN" "http://www.w3.org/Graphics/SVG/1.1/DTD/svg11.dtd">
<!--Phoronix Test Suite v10.4.0 [ http://www.phoronix-test-suite.com/ ]-->
<svg xmlns="http://www.w3.org/2000/svg" xmlns:xlink="http://www.w3.org/1999/xlink" version="1.1" font-family="sans-serif, droid-sans, helvetica, verdana, tahoma" viewbox="0 0 900 1046" width="900" height="1046" preserveAspectRatio="xMinYMin meet"><rect x="0" y="0" width="900" height="1046" fill="#FEFEFE"/><g stroke="#757575" stroke-width="1"><rect x="122.4" y="52" width="10" height="10" fill="#f44336"/><rect x="308.4" y="52" width="10" height="10" fill="#673ab7"/><rect x="494.4" y="52" width="10" height="10" fill="#009688"/><rect x="680.4" y="52" width="10" height="10" fill="#4caf50"/><rect x="122.4" y="68" width="10" height="10" fill="#e91e63"/><rect x="308.4" y="68" width="10" height="10" fill="#795548"/></g><g font-size="9" text-anchor="start" font-weight="bold"><text x="135.4" y="61" fill="#f44336">bpfbox-passive</text><text x="321.4" y="61" fill="#673ab7">bpfbox-allow</text><text x="507.4" y="61" fill="#009688">bpfbox-complaining</text><text x="693.4" y="61" fill="#4caf50">bpfcontain-passive</text><text x="135.4" y="77" fill="#e91e63">bpfcontain-allow</text><text x="321.4" y="77" fill="#795548">bpfcontain-complaining</text></g><path d="m74 22v9m-5-16v16m-5-28v28m-23-2h12.5c2.485281 0 4.5-2.014719 4.5-4.5s-2.014719-4.5-4.5-4.5h-8c-2.485281 0-4.5-2.014719-4.5-4.5s2.014719-4.5 4.5-4.5h12.5m-21 5h-11m11 13h-2c-4.970563 0-9-4.029437-9-9v-20m-24 40v-20c0-4.970563 4.0294373-9 9-9 4.970563 0 9 4.029437 9 9s-4.029437 9-9 9h-9" stroke="#231f20" stroke-width="4" fill="none" transform="translate(10,2)"/><text x="100" y="21" font-size="17" fill="#231f20" text-anchor="start">Result Overview</text><a xlink:href="http://www.phoronix-test-suite.com/" target="_blank"><text x="100" y="33" font-size="9" fill="#231f20" text-anchor="start">Phoronix Test Suite 10.4.0</text></a><g font-size="10" fill="#757575"/><g font-size="9" fill="#949494" text-anchor="middle"><text x="450" y="768" dominant-baseline="hanging">100%</text><text x="450" y="798" dominant-baseline="hanging">115%</text><text x="450" y="828" dominant-baseline="hanging">131%</text><text x="450" y="858" dominant-baseline="hanging">146%</text><text x="450" y="888" dominant-baseline="hanging">161%</text></g><g font-size="10.5" fill="#757575" font-weight="800" dominant-baseline="text-after-edge"><text x="775" y="571" text-anchor="start" transform="rotate(0 775 571)">IPC_benchmark</text><text x="764" y="655" text-anchor="start" transform="rotate(15 764 655)">IPC_benchmark</text><text x="731" y="734" text-anchor="start" transform="rotate(30 731 734)">IPC_benchmark</text><text x="680" y="801" text-anchor="start" transform="rotate(45 680 801)">IPC_benchmark</text><text x="613" y="852" text-anchor="start" transform="rotate(60 613 852)">IPC_benchmark</text><text x="534" y="885" text-anchor="start" transform="rotate(75 534 885)">IPC_benchmark</text><text x="451" y="896" text-anchor="start" transform="rotate(90 451 896)">IPC_benchmark</text><text x="367" y="885" text-anchor="end" transform="rotate(285 367 885)">IPC_benchmark</text><text x="288" y="852" text-anchor="end" transform="rotate(300 288 852)">IPC_benchmark</text><text x="221" y="801" text-anchor="end" transform="rotate(315 221 801)">IPC_benchmark</text><text x="170" y="734" text-anchor="end" transform="rotate(330 170 734)">IPC_benchmark</text><text x="137" y="655" text-anchor="end" transform="rotate(345 137 655)">IPC_benchmark</text><text x="126" y="572" text-anchor="end" transform="rotate(360 126 572)">IPC_benchmark</text><text x="137" y="483" text-anchor="end" transform="rotate(375 137 488)">IPC_benchmark</text><text x="170" y="404" text-anchor="end" transform="rotate(390 170 409)">IPC_benchmark</text><text x="221" y="337" text-anchor="end" transform="rotate(405 221 342)">IPC_benchmark</text><text x="288" y="286" text-anchor="end" transform="rotate(420 288 291)">IPC_benchmark</text><text x="367" y="253" text-anchor="end" transform="rotate(435 367 258)">IPC_benchmark</text><text x="450" y="242" text-anchor="start" transform="rotate(270 450 247)">IPC_benchmark</text><text x="534" y="253" text-anchor="start" transform="rotate(285 534 258)">IPC_benchmark</text><text x="613" y="286" text-anchor="start" transform="rotate(300 613 291)">IPC_benchmark</text><text x="680" y="337" text-anchor="start" transform="rotate(315 680 342)">IPC_benchmark</text><text x="731" y="404" text-anchor="start" transform="rotate(330 731 409)">IPC_benchmark</text><text x="764" y="483" text-anchor="start" transform="rotate(345 764 488)">IPC_benchmark</text></g><g font-size="10" fill="#757575" dominant-baseline="text-after-edge"><text x="775" y="581" text-anchor="start" transform="rotate(0 775 571)">TCP Socket - 128</text><text x="764" y="665" text-anchor="start" transform="rotate(15 764 655)">TCP Socket - 256</text><text x="731" y="744" text-anchor="start" transform="rotate(30 731 734)">TCP Socket - 1024</text><text x="680" y="811" text-anchor="start" transform="rotate(45 680 801)">TCP Socket - 512</text><text x="613" y="862" text-anchor="start" transform="rotate(60 613 852)">TCP Socket - 2048</text><text x="534" y="895" text-anchor="start" transform="rotate(75 534 885)">TCP Socket - 4096</text><text x="451" y="906" text-anchor="start" transform="rotate(90 451 896)">Unnamed Pipe - 4096</text><text x="367" y="895" text-anchor="end" transform="rotate(285 367 885)">Unnamed Pipe - 1024</text><text x="288" y="862" text-anchor="end" transform="rotate(300 288 852)">FIFO Named Pipe - 256</text><text x="221" y="811" text-anchor="end" transform="rotate(315 221 801)">U.U.D.S - 128</text><text x="170" y="744" text-anchor="end" transform="rotate(330 170 734)">Unnamed Pipe - 256</text><text x="137" y="665" text-anchor="end" transform="rotate(345 137 655)">U.U.D.S - 4096</text><text x="126" y="582" text-anchor="end" transform="rotate(360 126 572)">Unnamed Pipe - 2048</text><text x="137" y="498" text-anchor="end" transform="rotate(375 137 488)">FIFO Named Pipe - 128</text><text x="170" y="419" text-anchor="end" transform="rotate(390 170 409)">U.U.D.S - 512</text><text x="221" y="352" text-anchor="end" transform="rotate(405 221 342)">Unnamed Pipe - 512</text><text x="288" y="301" text-anchor="end" transform="rotate(420 288 291)">FIFO Named Pipe - 1024</text><text x="367" y="268" text-anchor="end" transform="rotate(435 367 258)">FIFO Named Pipe - 512</text><text x="450" y="257" text-anchor="start" transform="rotate(270 450 247)">U.U.D.S - 1024</text><text x="534" y="268" text-anchor="start" transform="rotate(285 534 258)">U.U.D.S - 256</text><text x="613" y="301" text-anchor="start" transform="rotate(300 613 291)">FIFO Named Pipe - 4096</text><text x="680" y="352" text-anchor="start" transform="rotate(315 680 342)">U.U.D.S - 2048</text><text x="731" y="419" text-anchor="start" transform="rotate(330 731 409)">Unnamed Pipe - 128</text><text x="764" y="498" text-anchor="start" transform="rotate(345 764 488)">FIFO Named Pipe - 2048</text></g><circle stroke="#949494" stroke-width="1" stroke-dasharray="10,10,10" cx="450" cy="571" r="195" fill="transparent"/><circle stroke="#949494" stroke-width="1" stroke-dasharray="10,10,10" cx="450" cy="571" r="225" fill="transparent"/><circle stroke="#949494" stroke-width="1" stroke-dasharray="10,10,10" cx="450" cy="571" r="255" fill="transparent"/><circle stroke="#949494" stroke-width="1" stroke-dasharray="10,10,10" cx="450" cy="571" r="285" fill="transparent"/><circle stroke="#949494" stroke-width="1" stroke-dasharray="10,10,10" cx="450" cy="571" r="315" fill="transparent"/><line x1="765" y1="571" x2="753" y2="652" stroke="#f44336" stroke-width="3"/><line x1="752" y1="571" x2="740" y2="649" stroke="#673ab7" stroke-width="3"/><line x1="738" y1="571" x2="726" y2="645" stroke="#009688" stroke-width="3"/><line x1="764" y1="571" x2="751" y2="652" stroke="#4caf50" stroke-width="3"/><line x1="740" y1="571" x2="728" y2="646" stroke="#e91e63" stroke-width="3"/><line x1="645" y1="571" x2="639" y2="622" stroke="#795548" stroke-width="3"/><line x1="753" y1="652" x2="713" y2="723" stroke="#f44336" stroke-width="3"/><line x1="740" y1="649" x2="699" y2="715" stroke="#673ab7" stroke-width="3"/><line x1="726" y1="645" x2="686" y2="707" stroke="#009688" stroke-width="3"/><line x1="751" y1="652" x2="714" y2="723" stroke="#4caf50" stroke-width="3"/><line x1="728" y1="646" x2="688" y2="709" stroke="#e91e63" stroke-width="3"/><line x1="639" y1="622" x2="619" y2="669" stroke="#795548" stroke-width="3"/><line x1="713" y1="723" x2="662" y2="783" stroke="#f44336" stroke-width="3"/><line x1="699" y1="715" x2="653" y2="774" stroke="#673ab7" stroke-width="3"/><line x1="686" y1="707" x2="646" y2="767" stroke="#009688" stroke-width="3"/><line x1="714" y1="723" x2="661" y2="782" stroke="#4caf50" stroke-width="3"/><line x1="688" y1="709" x2="645" y2="766" stroke="#e91e63" stroke-width="3"/><line x1="619" y1="669" x2="588" y2="709" stroke="#795548" stroke-width="3"/><line x1="662" y1="783" x2="590" y2="813" stroke="#f44336" stroke-width="3"/><line x1="653" y1="774" x2="585" y2="805" stroke="#673ab7" stroke-width="3"/><line x1="646" y1="767" x2="577" y2="792" stroke="#009688" stroke-width="3"/><line x1="661" y1="782" x2="589" y2="811" stroke="#4caf50" stroke-width="3"/><line x1="645" y1="766" x2="583" y2="802" stroke="#e91e63" stroke-width="3"/><line x1="588" y1="709" x2="548" y2="740" stroke="#795548" stroke-width="3"/><line x1="590" y1="813" x2="517" y2="821" stroke="#f44336" stroke-width="3"/><line x1="585" y1="805" x2="514" y2="808" stroke="#673ab7" stroke-width="3"/><line x1="577" y1="792" x2="511" y2="797" stroke="#009688" stroke-width="3"/><line x1="589" y1="811" x2="515" y2="815" stroke="#4caf50" stroke-width="3"/><line x1="583" y1="802" x2="513" y2="807" stroke="#e91e63" stroke-width="3"/><line x1="548" y1="740" x2="501" y2="760" stroke="#795548" stroke-width="3"/><line x1="517" y1="821" x2="450" y2="815" stroke="#f44336" stroke-width="3"/><line x1="514" y1="808" x2="450" y2="787" stroke="#673ab7" stroke-width="3"/><line x1="511" y1="797" x2="450" y2="799" stroke="#009688" stroke-width="3"/><line x1="515" y1="815" x2="450" y2="783" stroke="#4caf50" stroke-width="3"/><line x1="513" y1="807" x2="450" y2="766" stroke="#e91e63" stroke-width="3"/><line x1="501" y1="760" x2="450" y2="812" stroke="#795548" stroke-width="3"/><line x1="450" y1="815" x2="399" y2="760" stroke="#f44336" stroke-width="3"/><line x1="450" y1="787" x2="397" y2="770" stroke="#673ab7" stroke-width="3"/><line x1="450" y1="799" x2="388" y2="802" stroke="#009688" stroke-width="3"/><line x1="450" y1="783" x2="397" y2="769" stroke="#4caf50" stroke-width="3"/><line x1="450" y1="766" x2="395" y2="777" stroke="#e91e63" stroke-width="3"/><line x1="450" y1="812" x2="397" y2="770" stroke="#795548" stroke-width="3"/><line x1="399" y1="760" x2="349" y2="745" stroke="#f44336" stroke-width="3"/><line x1="397" y1="770" x2="334" y2="773" stroke="#673ab7" stroke-width="3"/><line x1="388" y1="802" x2="340" y2="761" stroke="#009688" stroke-width="3"/><line x1="397" y1="769" x2="349" y2="746" stroke="#4caf50" stroke-width="3"/><line x1="395" y1="777" x2="339" y2="763" stroke="#e91e63" stroke-width="3"/><line x1="397" y1="770" x2="352" y2="740" stroke="#795548" stroke-width="3"/><line x1="349" y1="745" x2="288" y2="733" stroke="#f44336" stroke-width="3"/><line x1="334" y1="773" x2="287" y2="734" stroke="#673ab7" stroke-width="3"/><line x1="340" y1="761" x2="300" y2="721" stroke="#009688" stroke-width="3"/><line x1="349" y1="746" x2="290" y2="731" stroke="#4caf50" stroke-width="3"/><line x1="339" y1="763" x2="312" y2="709" stroke="#e91e63" stroke-width="3"/><line x1="352" y1="740" x2="307" y2="714" stroke="#795548" stroke-width="3"/><line x1="288" y1="733" x2="251" y2="686" stroke="#f44336" stroke-width="3"/><line x1="287" y1="734" x2="257" y2="683" stroke="#673ab7" stroke-width="3"/><line x1="300" y1="721" x2="264" y2="678" stroke="#009688" stroke-width="3"/><line x1="290" y1="731" x2="281" y2="669" stroke="#4caf50" stroke-width="3"/><line x1="312" y1="709" x2="271" y2="674" stroke="#e91e63" stroke-width="3"/><line x1="307" y1="714" x2="268" y2="676" stroke="#795548" stroke-width="3"/><line x1="251" y1="686" x2="233" y2="629" stroke="#f44336" stroke-width="3"/><line x1="257" y1="683" x2="243" y2="626" stroke="#673ab7" stroke-width="3"/><line x1="264" y1="678" x2="250" y2="625" stroke="#009688" stroke-width="3"/><line x1="281" y1="669" x2="240" y2="627" stroke="#4caf50" stroke-width="3"/><line x1="271" y1="674" x2="261" y2="622" stroke="#e91e63" stroke-width="3"/><line x1="268" y1="676" x2="255" y2="623" stroke="#795548" stroke-width="3"/><line x1="233" y1="629" x2="226" y2="571" stroke="#f44336" stroke-width="3"/><line x1="243" y1="626" x2="240" y2="571" stroke="#673ab7" stroke-width="3"/><line x1="250" y1="625" x2="229" y2="571" stroke="#009688" stroke-width="3"/><line x1="240" y1="627" x2="255" y2="571" stroke="#4caf50" stroke-width="3"/><line x1="261" y1="622" x2="242" y2="571" stroke="#e91e63" stroke-width="3"/><line x1="255" y1="623" x2="231" y2="571" stroke="#795548" stroke-width="3"/><line x1="226" y1="571" x2="261" y2="520" stroke="#f44336" stroke-width="3"/><line x1="240" y1="571" x2="238" y2="514" stroke="#673ab7" stroke-width="3"/><line x1="229" y1="571" x2="251" y2="518" stroke="#009688" stroke-width="3"/><line x1="255" y1="571" x2="236" y2="514" stroke="#4caf50" stroke-width="3"/><line x1="242" y1="571" x2="234" y2="513" stroke="#e91e63" stroke-width="3"/><line x1="231" y1="571" x2="252" y2="518" stroke="#795548" stroke-width="3"/><line x1="261" y1="520" x2="257" y2="460" stroke="#f44336" stroke-width="3"/><line x1="238" y1="514" x2="261" y2="462" stroke="#673ab7" stroke-width="3"/><line x1="251" y1="518" x2="276" y2="470" stroke="#009688" stroke-width="3"/><line x1="236" y1="514" x2="263" y2="463" stroke="#4caf50" stroke-width="3"/><line x1="234" y1="513" x2="281" y2="473" stroke="#e91e63" stroke-width="3"/><line x1="252" y1="518" x2="279" y2="472" stroke="#795548" stroke-width="3"/><line x1="257" y1="460" x2="296" y2="417" stroke="#f44336" stroke-width="3"/><line x1="261" y1="462" x2="310" y2="431" stroke="#673ab7" stroke-width="3"/><line x1="276" y1="470" x2="312" y2="433" stroke="#009688" stroke-width="3"/><line x1="263" y1="463" x2="298" y2="419" stroke="#4caf50" stroke-width="3"/><line x1="281" y1="473" x2="293" y2="414" stroke="#e91e63" stroke-width="3"/><line x1="279" y1="472" x2="307" y2="428" stroke="#795548" stroke-width="3"/><line x1="296" y1="417" x2="350" y2="397" stroke="#f44336" stroke-width="3"/><line x1="310" y1="431" x2="345" y2="389" stroke="#673ab7" stroke-width="3"/><line x1="312" y1="433" x2="349" y2="395" stroke="#009688" stroke-width="3"/><line x1="298" y1="419" x2="339" y2="380" stroke="#4caf50" stroke-width="3"/><line x1="293" y1="414" x2="352" y2="402" stroke="#e91e63" stroke-width="3"/><line x1="307" y1="428" x2="347" y2="393" stroke="#795548" stroke-width="3"/><line x1="350" y1="397" x2="398" y2="377" stroke="#f44336" stroke-width="3"/><line x1="345" y1="389" x2="396" y2="368" stroke="#673ab7" stroke-width="3"/><line x1="349" y1="395" x2="399" y2="382" stroke="#009688" stroke-width="3"/><line x1="339" y1="380" x2="393" y2="357" stroke="#4caf50" stroke-width="3"/><line x1="352" y1="402" x2="399" y2="381" stroke="#e91e63" stroke-width="3"/><line x1="347" y1="393" x2="399" y2="380" stroke="#795548" stroke-width="3"/><line x1="398" y1="377" x2="450" y2="351" stroke="#f44336" stroke-width="3"/><line x1="396" y1="368" x2="450" y2="351" stroke="#673ab7" stroke-width="3"/><line x1="399" y1="382" x2="450" y2="362" stroke="#009688" stroke-width="3"/><line x1="393" y1="357" x2="450" y2="357" stroke="#4caf50" stroke-width="3"/><line x1="399" y1="381" x2="450" y2="376" stroke="#e91e63" stroke-width="3"/><line x1="399" y1="380" x2="450" y2="369" stroke="#795548" stroke-width="3"/><line x1="450" y1="351" x2="506" y2="361" stroke="#f44336" stroke-width="3"/><line x1="450" y1="351" x2="507" y2="358" stroke="#673ab7" stroke-width="3"/><line x1="450" y1="362" x2="504" y2="369" stroke="#009688" stroke-width="3"/><line x1="450" y1="357" x2="506" y2="363" stroke="#4caf50" stroke-width="3"/><line x1="450" y1="376" x2="501" y2="382" stroke="#e91e63" stroke-width="3"/><line x1="450" y1="369" x2="501" y2="382" stroke="#795548" stroke-width="3"/><line x1="506" y1="361" x2="557" y2="385" stroke="#f44336" stroke-width="3"/><line x1="507" y1="358" x2="548" y2="402" stroke="#673ab7" stroke-width="3"/><line x1="504" y1="369" x2="560" y2="380" stroke="#009688" stroke-width="3"/><line x1="506" y1="363" x2="553" y2="393" stroke="#4caf50" stroke-width="3"/><line x1="501" y1="382" x2="557" y2="385" stroke="#e91e63" stroke-width="3"/><line x1="501" y1="382" x2="556" y2="387" stroke="#795548" stroke-width="3"/><line x1="557" y1="385" x2="604" y2="417" stroke="#f44336" stroke-width="3"/><line x1="548" y1="402" x2="595" y2="426" stroke="#673ab7" stroke-width="3"/><line x1="560" y1="380" x2="596" y2="425" stroke="#009688" stroke-width="3"/><line x1="553" y1="393" x2="601" y2="420" stroke="#4caf50" stroke-width="3"/><line x1="557" y1="385" x2="588" y2="433" stroke="#e91e63" stroke-width="3"/><line x1="556" y1="387" x2="589" y2="432" stroke="#795548" stroke-width="3"/><line x1="604" y1="417" x2="639" y2="462" stroke="#f44336" stroke-width="3"/><line x1="595" y1="426" x2="627" y2="469" stroke="#673ab7" stroke-width="3"/><line x1="596" y1="425" x2="623" y2="471" stroke="#009688" stroke-width="3"/><line x1="601" y1="420" x2="619" y2="473" stroke="#4caf50" stroke-width="3"/><line x1="588" y1="433" x2="637" y2="463" stroke="#e91e63" stroke-width="3"/><line x1="589" y1="432" x2="621" y2="472" stroke="#795548" stroke-width="3"/><line x1="639" y1="462" x2="639" y2="520" stroke="#f44336" stroke-width="3"/><line x1="627" y1="469" x2="651" y2="517" stroke="#673ab7" stroke-width="3"/><line x1="623" y1="471" x2="647" y2="518" stroke="#009688" stroke-width="3"/><line x1="619" y1="473" x2="657" y2="515" stroke="#4caf50" stroke-width="3"/><line x1="637" y1="463" x2="647" y2="518" stroke="#e91e63" stroke-width="3"/><line x1="621" y1="472" x2="650" y2="517" stroke="#795548" stroke-width="3"/><line x1="639" y1="520" x2="765" y2="571" stroke="#f44336" stroke-width="2"/><line x1="651" y1="517" x2="752" y2="571" stroke="#673ab7" stroke-width="2"/><line x1="647" y1="518" x2="738" y2="571" stroke="#009688" stroke-width="2"/><line x1="657" y1="515" x2="764" y2="571" stroke="#4caf50" stroke-width="2"/><line x1="647" y1="518" x2="740" y2="571" stroke="#e91e63" stroke-width="2"/><line x1="650" y1="517" x2="645" y2="571" stroke="#795548" stroke-width="2"/></svg>
