<?xml version="1.0"?>
<!DOCTYPE svg PUBLIC "-//W3C//DTD SVG 1.1//EN" "http://www.w3.org/Graphics/SVG/1.1/DTD/svg11.dtd">
<!--Phoronix Test Suite v10.4.0 [ http://www.phoronix-test-suite.com/ ]-->
<svg xmlns="http://www.w3.org/2000/svg" xmlns:xlink="http://www.w3.org/1999/xlink" version="1.1" font-family="sans-serif, droid-sans, helvetica, verdana, tahoma" viewbox="0 0 900 1078" width="900" height="1078" preserveAspectRatio="xMinYMin meet"><rect x="0" y="0" width="900" height="1078" fill="#FEFEFE"/><g stroke="#757575" stroke-width="1"><rect x="122.4" y="68" width="10" height="10" fill="#f44336"/><rect x="308.4" y="68" width="10" height="10" fill="#673ab7"/><rect x="494.4" y="68" width="10" height="10" fill="#009688"/><rect x="680.4" y="68" width="10" height="10" fill="#4caf50"/><rect x="122.4" y="84" width="10" height="10" fill="#e91e63"/><rect x="308.4" y="84" width="10" height="10" fill="#795548"/><rect x="494.4" y="84" width="10" height="10" fill="#9e9e9e"/><rect x="680.4" y="84" width="10" height="10" fill="#607d8b"/><rect x="122.4" y="100" width="10" height="10" fill="#FFB300"/><rect x="308.4" y="100" width="10" height="10" fill="#803E75"/></g><g font-size="9" text-anchor="start" font-weight="bold"><text x="135.4" y="77" fill="#f44336">bpfbox-passive</text><text x="321.4" y="77" fill="#673ab7">bpfbox-allow</text><text x="507.4" y="77" fill="#009688">bpfbox-complaining</text><text x="693.4" y="77" fill="#4caf50">bpfcontain-passive</text><text x="135.4" y="93" fill="#e91e63">bpfcontain-allow</text><text x="321.4" y="93" fill="#795548">bpfcontain-complaining</text><text x="507.4" y="93" fill="#9e9e9e">apparmor-passive</text><text x="693.4" y="93" fill="#607d8b">apparmor-allow</text><text x="135.4" y="109" fill="#FFB300">apparmor-complaining</text><text x="321.4" y="109" fill="#803E75">base</text></g><path d="m74 22v9m-5-16v16m-5-28v28m-23-2h12.5c2.485281 0 4.5-2.014719 4.5-4.5s-2.014719-4.5-4.5-4.5h-8c-2.485281 0-4.5-2.014719-4.5-4.5s2.014719-4.5 4.5-4.5h12.5m-21 5h-11m11 13h-2c-4.970563 0-9-4.029437-9-9v-20m-24 40v-20c0-4.970563 4.0294373-9 9-9 4.970563 0 9 4.029437 9 9s-4.029437 9-9 9h-9" stroke="#231f20" stroke-width="4" fill="none" transform="translate(10,2)"/><text x="100" y="21" font-size="17" fill="#231f20" text-anchor="start">Result Overview</text><a xlink:href="http://www.phoronix-test-suite.com/" target="_blank"><text x="100" y="33" font-size="9" fill="#231f20" text-anchor="start">Phoronix Test Suite 10.4.0</text></a><g font-size="10" fill="#757575"/><g font-size="9" fill="#949494" text-anchor="middle"><text x="450" y="748" dominant-baseline="hanging">100%</text><text x="450" y="791" dominant-baseline="hanging">130%</text><text x="450" y="834" dominant-baseline="hanging">160%</text><text x="450" y="877" dominant-baseline="hanging">190%</text><text x="450" y="920" dominant-baseline="hanging">220%</text></g><g font-size="10.5" fill="#757575" font-weight="800" dominant-baseline="text-after-edge"><text x="775" y="603" text-anchor="start" transform="rotate(0 775 603)">IPC_benchmark</text><text x="764" y="687" text-anchor="start" transform="rotate(15 764 687)">IPC_benchmark</text><text x="731" y="766" text-anchor="start" transform="rotate(30 731 766)">IPC_benchmark</text><text x="680" y="833" text-anchor="start" transform="rotate(45 680 833)">IPC_benchmark</text><text x="613" y="884" text-anchor="start" transform="rotate(60 613 884)">IPC_benchmark</text><text x="534" y="917" text-anchor="start" transform="rotate(75 534 917)">IPC_benchmark</text><text x="451" y="928" text-anchor="start" transform="rotate(90 451 928)">IPC_benchmark</text><text x="367" y="917" text-anchor="end" transform="rotate(285 367 917)">IPC_benchmark</text><text x="288" y="884" text-anchor="end" transform="rotate(300 288 884)">IPC_benchmark</text><text x="221" y="833" text-anchor="end" transform="rotate(315 221 833)">IPC_benchmark</text><text x="170" y="766" text-anchor="end" transform="rotate(330 170 766)">IPC_benchmark</text><text x="137" y="687" text-anchor="end" transform="rotate(345 137 687)">IPC_benchmark</text><text x="126" y="604" text-anchor="end" transform="rotate(360 126 604)">IPC_benchmark</text><text x="137" y="515" text-anchor="end" transform="rotate(375 137 520)">IPC_benchmark</text><text x="170" y="436" text-anchor="end" transform="rotate(390 170 441)">IPC_benchmark</text><text x="221" y="369" text-anchor="end" transform="rotate(405 221 374)">IPC_benchmark</text><text x="288" y="318" text-anchor="end" transform="rotate(420 288 323)">IPC_benchmark</text><text x="367" y="285" text-anchor="end" transform="rotate(435 367 290)">IPC_benchmark</text><text x="450" y="274" text-anchor="start" transform="rotate(270 450 279)">IPC_benchmark</text><text x="534" y="285" text-anchor="start" transform="rotate(285 534 290)">IPC_benchmark</text><text x="613" y="318" text-anchor="start" transform="rotate(300 613 323)">IPC_benchmark</text><text x="680" y="369" text-anchor="start" transform="rotate(315 680 374)">IPC_benchmark</text><text x="731" y="436" text-anchor="start" transform="rotate(330 731 441)">IPC_benchmark</text><text x="764" y="515" text-anchor="start" transform="rotate(345 764 520)">IPC_benchmark</text></g><g font-size="10" fill="#757575" dominant-baseline="text-after-edge"><text x="775" y="613" text-anchor="start" transform="rotate(0 775 603)">TCP Socket - 128</text><text x="764" y="697" text-anchor="start" transform="rotate(15 764 687)">TCP Socket - 256</text><text x="731" y="776" text-anchor="start" transform="rotate(30 731 766)">TCP Socket - 512</text><text x="680" y="843" text-anchor="start" transform="rotate(45 680 833)">TCP Socket - 1024</text><text x="613" y="894" text-anchor="start" transform="rotate(60 613 884)">TCP Socket - 2048</text><text x="534" y="927" text-anchor="start" transform="rotate(75 534 917)">TCP Socket - 4096</text><text x="451" y="938" text-anchor="start" transform="rotate(90 451 928)">U.U.D.S - 128</text><text x="367" y="927" text-anchor="end" transform="rotate(285 367 917)">U.U.D.S - 256</text><text x="288" y="894" text-anchor="end" transform="rotate(300 288 884)">Unnamed Pipe - 128</text><text x="221" y="843" text-anchor="end" transform="rotate(315 221 833)">U.U.D.S - 512</text><text x="170" y="776" text-anchor="end" transform="rotate(330 170 766)">Unnamed Pipe - 1024</text><text x="137" y="697" text-anchor="end" transform="rotate(345 137 687)">FIFO Named Pipe - 4096</text><text x="126" y="614" text-anchor="end" transform="rotate(360 126 604)">U.U.D.S - 1024</text><text x="137" y="530" text-anchor="end" transform="rotate(375 137 520)">Unnamed Pipe - 4096</text><text x="170" y="451" text-anchor="end" transform="rotate(390 170 441)">U.U.D.S - 4096</text><text x="221" y="384" text-anchor="end" transform="rotate(405 221 374)">Unnamed Pipe - 512</text><text x="288" y="333" text-anchor="end" transform="rotate(420 288 323)">FIFO Named Pipe - 128</text><text x="367" y="300" text-anchor="end" transform="rotate(435 367 290)">Unnamed Pipe - 256</text><text x="450" y="289" text-anchor="start" transform="rotate(270 450 279)">FIFO Named Pipe - 256</text><text x="534" y="300" text-anchor="start" transform="rotate(285 534 290)">U.U.D.S - 2048</text><text x="613" y="333" text-anchor="start" transform="rotate(300 613 323)">FIFO Named Pipe - 1024</text><text x="680" y="384" text-anchor="start" transform="rotate(315 680 374)">Unnamed Pipe - 2048</text><text x="731" y="451" text-anchor="start" transform="rotate(330 731 441)">FIFO Named Pipe - 2048</text><text x="764" y="530" text-anchor="start" transform="rotate(345 764 520)">FIFO Named Pipe - 512</text></g><circle stroke="#949494" stroke-width="1" stroke-dasharray="10,10,10" cx="450" cy="603" r="143" fill="transparent"/><circle stroke="#949494" stroke-width="1" stroke-dasharray="10,10,10" cx="450" cy="603" r="186" fill="transparent"/><circle stroke="#949494" stroke-width="1" stroke-dasharray="10,10,10" cx="450" cy="603" r="229" fill="transparent"/><circle stroke="#949494" stroke-width="1" stroke-dasharray="10,10,10" cx="450" cy="603" r="272" fill="transparent"/><circle stroke="#949494" stroke-width="1" stroke-dasharray="10,10,10" cx="450" cy="603" r="315" fill="transparent"/><line x1="681" y1="603" x2="672" y2="662" stroke="#f44336" stroke-width="3"/><line x1="671" y1="603" x2="662" y2="660" stroke="#673ab7" stroke-width="3"/><line x1="661" y1="603" x2="652" y2="657" stroke="#009688" stroke-width="3"/><line x1="680" y1="603" x2="671" y2="662" stroke="#4caf50" stroke-width="3"/><line x1="663" y1="603" x2="654" y2="658" stroke="#e91e63" stroke-width="3"/><line x1="593" y1="603" x2="588" y2="640" stroke="#795548" stroke-width="3"/><line x1="733" y1="603" x2="715" y2="674" stroke="#9e9e9e" stroke-width="3"/><line x1="710" y1="603" x2="697" y2="669" stroke="#607d8b" stroke-width="3"/><line x1="710" y1="603" x2="697" y2="669" stroke="#FFB300" stroke-width="3"/><line x1="765" y1="603" x2="738" y2="680" stroke="#803E75" stroke-width="3"/><line x1="672" y1="662" x2="640" y2="713" stroke="#f44336" stroke-width="3"/><line x1="662" y1="660" x2="632" y2="708" stroke="#673ab7" stroke-width="3"/><line x1="652" y1="657" x2="626" y2="705" stroke="#009688" stroke-width="3"/><line x1="671" y1="662" x2="639" y2="712" stroke="#4caf50" stroke-width="3"/><line x1="654" y1="658" x2="625" y2="704" stroke="#e91e63" stroke-width="3"/><line x1="588" y1="640" x2="574" y2="675" stroke="#795548" stroke-width="3"/><line x1="715" y1="674" x2="675" y2="733" stroke="#9e9e9e" stroke-width="3"/><line x1="697" y1="669" x2="660" y2="724" stroke="#607d8b" stroke-width="3"/><line x1="697" y1="669" x2="660" y2="724" stroke="#FFB300" stroke-width="3"/><line x1="738" y1="680" x2="704" y2="750" stroke="#803E75" stroke-width="3"/><line x1="640" y1="713" x2="608" y2="761" stroke="#f44336" stroke-width="3"/><line x1="632" y1="708" x2="599" y2="752" stroke="#673ab7" stroke-width="3"/><line x1="626" y1="705" x2="591" y2="744" stroke="#009688" stroke-width="3"/><line x1="639" y1="712" x2="608" y2="761" stroke="#4caf50" stroke-width="3"/><line x1="625" y1="704" x2="593" y2="746" stroke="#e91e63" stroke-width="3"/><line x1="574" y1="675" x2="551" y2="704" stroke="#795548" stroke-width="3"/><line x1="675" y1="733" x2="633" y2="786" stroke="#9e9e9e" stroke-width="3"/><line x1="660" y1="724" x2="623" y2="776" stroke="#607d8b" stroke-width="3"/><line x1="660" y1="724" x2="624" y2="777" stroke="#FFB300" stroke-width="3"/><line x1="704" y1="750" x2="647" y2="800" stroke="#803E75" stroke-width="3"/><line x1="608" y1="761" x2="552" y2="780" stroke="#f44336" stroke-width="3"/><line x1="599" y1="752" x2="549" y2="775" stroke="#673ab7" stroke-width="3"/><line x1="591" y1="744" x2="543" y2="765" stroke="#009688" stroke-width="3"/><line x1="608" y1="761" x2="552" y2="779" stroke="#4caf50" stroke-width="3"/><line x1="593" y1="746" x2="548" y2="773" stroke="#e91e63" stroke-width="3"/><line x1="551" y1="704" x2="522" y2="727" stroke="#795548" stroke-width="3"/><line x1="633" y1="786" x2="565" y2="803" stroke="#9e9e9e" stroke-width="3"/><line x1="623" y1="776" x2="562" y2="796" stroke="#607d8b" stroke-width="3"/><line x1="624" y1="777" x2="561" y2="795" stroke="#FFB300" stroke-width="3"/><line x1="647" y1="800" x2="572" y2="814" stroke="#803E75" stroke-width="3"/><line x1="552" y1="780" x2="499" y2="786" stroke="#f44336" stroke-width="3"/><line x1="549" y1="775" x2="497" y2="777" stroke="#673ab7" stroke-width="3"/><line x1="543" y1="765" x2="494" y2="769" stroke="#009688" stroke-width="3"/><line x1="552" y1="779" x2="498" y2="782" stroke="#4caf50" stroke-width="3"/><line x1="548" y1="773" x2="496" y2="776" stroke="#e91e63" stroke-width="3"/><line x1="522" y1="727" x2="487" y2="741" stroke="#795548" stroke-width="3"/><line x1="565" y1="803" x2="503" y2="800" stroke="#9e9e9e" stroke-width="3"/><line x1="562" y1="796" x2="501" y2="793" stroke="#607d8b" stroke-width="3"/><line x1="561" y1="795" x2="501" y2="793" stroke="#FFB300" stroke-width="3"/><line x1="572" y1="814" x2="505" y2="807" stroke="#803E75" stroke-width="3"/><line x1="499" y1="786" x2="450" y2="771" stroke="#f44336" stroke-width="3"/><line x1="497" y1="777" x2="450" y2="772" stroke="#673ab7" stroke-width="3"/><line x1="494" y1="769" x2="450" y2="759" stroke="#009688" stroke-width="3"/><line x1="498" y1="782" x2="450" y2="769" stroke="#4caf50" stroke-width="3"/><line x1="496" y1="776" x2="450" y2="746" stroke="#e91e63" stroke-width="3"/><line x1="487" y1="741" x2="450" y2="751" stroke="#795548" stroke-width="3"/><line x1="503" y1="800" x2="450" y2="773" stroke="#9e9e9e" stroke-width="3"/><line x1="501" y1="793" x2="450" y2="776" stroke="#607d8b" stroke-width="3"/><line x1="501" y1="793" x2="450" y2="780" stroke="#FFB300" stroke-width="3"/><line x1="505" y1="807" x2="450" y2="802" stroke="#803E75" stroke-width="3"/><line x1="450" y1="771" x2="409" y2="757" stroke="#f44336" stroke-width="3"/><line x1="450" y1="772" x2="408" y2="759" stroke="#673ab7" stroke-width="3"/><line x1="450" y1="759" x2="410" y2="751" stroke="#009688" stroke-width="3"/><line x1="450" y1="769" x2="409" y2="755" stroke="#4caf50" stroke-width="3"/><line x1="450" y1="746" x2="413" y2="741" stroke="#e91e63" stroke-width="3"/><line x1="450" y1="751" x2="413" y2="742" stroke="#795548" stroke-width="3"/><line x1="450" y1="773" x2="404" y2="775" stroke="#9e9e9e" stroke-width="3"/><line x1="450" y1="776" x2="408" y2="759" stroke="#607d8b" stroke-width="3"/><line x1="450" y1="780" x2="405" y2="772" stroke="#FFB300" stroke-width="3"/><line x1="450" y1="802" x2="400" y2="789" stroke="#803E75" stroke-width="3"/><line x1="409" y1="757" x2="355" y2="767" stroke="#f44336" stroke-width="3"/><line x1="408" y1="759" x2="361" y2="757" stroke="#673ab7" stroke-width="3"/><line x1="410" y1="751" x2="363" y2="754" stroke="#009688" stroke-width="3"/><line x1="409" y1="755" x2="365" y2="750" stroke="#4caf50" stroke-width="3"/><line x1="413" y1="741" x2="356" y2="766" stroke="#e91e63" stroke-width="3"/><line x1="413" y1="742" x2="364" y2="752" stroke="#795548" stroke-width="3"/><line x1="404" y1="775" x2="368" y2="745" stroke="#9e9e9e" stroke-width="3"/><line x1="408" y1="759" x2="370" y2="741" stroke="#607d8b" stroke-width="3"/><line x1="405" y1="772" x2="378" y2="727" stroke="#FFB300" stroke-width="3"/><line x1="400" y1="789" x2="354" y2="769" stroke="#803E75" stroke-width="3"/><line x1="355" y1="767" x2="334" y2="719" stroke="#f44336" stroke-width="3"/><line x1="361" y1="757" x2="337" y2="716" stroke="#673ab7" stroke-width="3"/><line x1="363" y1="754" x2="346" y2="707" stroke="#009688" stroke-width="3"/><line x1="365" y1="750" x2="338" y2="715" stroke="#4caf50" stroke-width="3"/><line x1="356" y1="766" x2="349" y2="704" stroke="#e91e63" stroke-width="3"/><line x1="364" y1="752" x2="347" y2="706" stroke="#795548" stroke-width="3"/><line x1="368" y1="745" x2="321" y2="732" stroke="#9e9e9e" stroke-width="3"/><line x1="370" y1="741" x2="336" y2="717" stroke="#607d8b" stroke-width="3"/><line x1="378" y1="727" x2="328" y2="725" stroke="#FFB300" stroke-width="3"/><line x1="354" y1="769" x2="319" y2="734" stroke="#803E75" stroke-width="3"/><line x1="334" y1="719" x2="324" y2="676" stroke="#f44336" stroke-width="3"/><line x1="337" y1="716" x2="317" y2="680" stroke="#673ab7" stroke-width="3"/><line x1="346" y1="707" x2="295" y2="692" stroke="#009688" stroke-width="3"/><line x1="338" y1="715" x2="318" y2="679" stroke="#4caf50" stroke-width="3"/><line x1="349" y1="704" x2="312" y2="683" stroke="#e91e63" stroke-width="3"/><line x1="347" y1="706" x2="317" y2="680" stroke="#795548" stroke-width="3"/><line x1="321" y1="732" x2="316" y2="680" stroke="#9e9e9e" stroke-width="3"/><line x1="336" y1="717" x2="299" y2="690" stroke="#607d8b" stroke-width="3"/><line x1="328" y1="725" x2="290" y2="695" stroke="#FFB300" stroke-width="3"/><line x1="319" y1="734" x2="326" y2="675" stroke="#803E75" stroke-width="3"/><line x1="324" y1="676" x2="276" y2="649" stroke="#f44336" stroke-width="3"/><line x1="317" y1="680" x2="292" y2="645" stroke="#673ab7" stroke-width="3"/><line x1="295" y1="692" x2="272" y2="651" stroke="#009688" stroke-width="3"/><line x1="318" y1="679" x2="284" y2="647" stroke="#4caf50" stroke-width="3"/><line x1="312" y1="683" x2="276" y2="650" stroke="#e91e63" stroke-width="3"/><line x1="317" y1="680" x2="278" y2="649" stroke="#795548" stroke-width="3"/><line x1="316" y1="680" x2="301" y2="643" stroke="#9e9e9e" stroke-width="3"/><line x1="299" y1="690" x2="312" y2="640" stroke="#607d8b" stroke-width="3"/><line x1="290" y1="695" x2="289" y2="646" stroke="#FFB300" stroke-width="3"/><line x1="326" y1="675" x2="284" y2="647" stroke="#803E75" stroke-width="3"/><line x1="276" y1="649" x2="288" y2="603" stroke="#f44336" stroke-width="3"/><line x1="292" y1="645" x2="289" y2="603" stroke="#673ab7" stroke-width="3"/><line x1="272" y1="651" x2="297" y2="603" stroke="#009688" stroke-width="3"/><line x1="284" y1="647" x2="293" y2="603" stroke="#4caf50" stroke-width="3"/><line x1="276" y1="650" x2="307" y2="603" stroke="#e91e63" stroke-width="3"/><line x1="278" y1="649" x2="302" y2="603" stroke="#795548" stroke-width="3"/><line x1="301" y1="643" x2="274" y2="603" stroke="#9e9e9e" stroke-width="3"/><line x1="312" y1="640" x2="285" y2="603" stroke="#607d8b" stroke-width="3"/><line x1="289" y1="646" x2="282" y2="603" stroke="#FFB300" stroke-width="3"/><line x1="284" y1="647" x2="269" y2="603" stroke="#803E75" stroke-width="3"/><line x1="288" y1="603" x2="277" y2="557" stroke="#f44336" stroke-width="3"/><line x1="289" y1="603" x2="297" y2="562" stroke="#673ab7" stroke-width="3"/><line x1="297" y1="603" x2="288" y2="560" stroke="#009688" stroke-width="3"/><line x1="293" y1="603" x2="299" y2="563" stroke="#4caf50" stroke-width="3"/><line x1="307" y1="603" x2="312" y2="566" stroke="#e91e63" stroke-width="3"/><line x1="302" y1="603" x2="279" y2="557" stroke="#795548" stroke-width="3"/><line x1="274" y1="603" x2="278" y2="557" stroke="#9e9e9e" stroke-width="3"/><line x1="285" y1="603" x2="303" y2="563" stroke="#607d8b" stroke-width="3"/><line x1="282" y1="603" x2="292" y2="561" stroke="#FFB300" stroke-width="3"/><line x1="269" y1="603" x2="289" y2="560" stroke="#803E75" stroke-width="3"/><line x1="277" y1="557" x2="308" y2="521" stroke="#f44336" stroke-width="3"/><line x1="297" y1="562" x2="314" y2="524" stroke="#673ab7" stroke-width="3"/><line x1="288" y1="560" x2="319" y2="527" stroke="#009688" stroke-width="3"/><line x1="299" y1="563" x2="312" y2="523" stroke="#4caf50" stroke-width="3"/><line x1="312" y1="566" x2="326" y2="531" stroke="#e91e63" stroke-width="3"/><line x1="279" y1="557" x2="322" y2="529" stroke="#795548" stroke-width="3"/><line x1="278" y1="557" x2="305" y2="519" stroke="#9e9e9e" stroke-width="3"/><line x1="303" y1="563" x2="312" y2="523" stroke="#607d8b" stroke-width="3"/><line x1="292" y1="561" x2="311" y2="523" stroke="#FFB300" stroke-width="3"/><line x1="289" y1="560" x2="298" y2="515" stroke="#803E75" stroke-width="3"/><line x1="308" y1="521" x2="329" y2="482" stroke="#f44336" stroke-width="3"/><line x1="314" y1="524" x2="340" y2="493" stroke="#673ab7" stroke-width="3"/><line x1="319" y1="527" x2="341" y2="494" stroke="#009688" stroke-width="3"/><line x1="312" y1="523" x2="331" y2="484" stroke="#4caf50" stroke-width="3"/><line x1="326" y1="531" x2="326" y2="479" stroke="#e91e63" stroke-width="3"/><line x1="322" y1="529" x2="338" y2="491" stroke="#795548" stroke-width="3"/><line x1="305" y1="519" x2="340" y2="493" stroke="#9e9e9e" stroke-width="3"/><line x1="312" y1="523" x2="349" y2="502" stroke="#607d8b" stroke-width="3"/><line x1="311" y1="523" x2="337" y2="490" stroke="#FFB300" stroke-width="3"/><line x1="298" y1="515" x2="340" y2="493" stroke="#803E75" stroke-width="3"/><line x1="329" y1="482" x2="378" y2="479" stroke="#f44336" stroke-width="3"/><line x1="340" y1="493" x2="370" y2="464" stroke="#673ab7" stroke-width="3"/><line x1="341" y1="494" x2="375" y2="472" stroke="#009688" stroke-width="3"/><line x1="331" y1="484" x2="369" y2="462" stroke="#4caf50" stroke-width="3"/><line x1="326" y1="479" x2="368" y2="461" stroke="#e91e63" stroke-width="3"/><line x1="338" y1="491" x2="375" y2="473" stroke="#795548" stroke-width="3"/><line x1="340" y1="493" x2="372" y2="467" stroke="#9e9e9e" stroke-width="3"/><line x1="349" y1="502" x2="376" y2="474" stroke="#607d8b" stroke-width="3"/><line x1="337" y1="490" x2="372" y2="469" stroke="#FFB300" stroke-width="3"/><line x1="340" y1="493" x2="363" y2="453" stroke="#803E75" stroke-width="3"/><line x1="378" y1="479" x2="406" y2="437" stroke="#f44336" stroke-width="3"/><line x1="370" y1="464" x2="407" y2="442" stroke="#673ab7" stroke-width="3"/><line x1="375" y1="472" x2="408" y2="448" stroke="#009688" stroke-width="3"/><line x1="369" y1="462" x2="412" y2="462" stroke="#4caf50" stroke-width="3"/><line x1="368" y1="461" x2="410" y2="454" stroke="#e91e63" stroke-width="3"/><line x1="375" y1="473" x2="409" y2="452" stroke="#795548" stroke-width="3"/><line x1="372" y1="467" x2="408" y2="445" stroke="#9e9e9e" stroke-width="3"/><line x1="376" y1="474" x2="411" y2="457" stroke="#607d8b" stroke-width="3"/><line x1="372" y1="469" x2="413" y2="465" stroke="#FFB300" stroke-width="3"/><line x1="363" y1="453" x2="412" y2="461" stroke="#803E75" stroke-width="3"/><line x1="406" y1="437" x2="450" y2="455" stroke="#f44336" stroke-width="3"/><line x1="407" y1="442" x2="450" y2="432" stroke="#673ab7" stroke-width="3"/><line x1="408" y1="448" x2="450" y2="442" stroke="#009688" stroke-width="3"/><line x1="412" y1="462" x2="450" y2="455" stroke="#4caf50" stroke-width="3"/><line x1="410" y1="454" x2="450" y2="440" stroke="#e91e63" stroke-width="3"/><line x1="409" y1="452" x2="450" y2="460" stroke="#795548" stroke-width="3"/><line x1="408" y1="445" x2="450" y2="456" stroke="#9e9e9e" stroke-width="3"/><line x1="411" y1="457" x2="450" y2="452" stroke="#607d8b" stroke-width="3"/><line x1="413" y1="465" x2="450" y2="449" stroke="#FFB300" stroke-width="3"/><line x1="412" y1="461" x2="450" y2="445" stroke="#803E75" stroke-width="3"/><line x1="450" y1="455" x2="491" y2="449" stroke="#f44336" stroke-width="3"/><line x1="450" y1="432" x2="489" y2="458" stroke="#673ab7" stroke-width="3"/><line x1="450" y1="442" x2="489" y2="456" stroke="#009688" stroke-width="3"/><line x1="450" y1="455" x2="490" y2="452" stroke="#4caf50" stroke-width="3"/><line x1="450" y1="440" x2="487" y2="465" stroke="#e91e63" stroke-width="3"/><line x1="450" y1="460" x2="487" y2="464" stroke="#795548" stroke-width="3"/><line x1="450" y1="456" x2="492" y2="446" stroke="#9e9e9e" stroke-width="3"/><line x1="450" y1="452" x2="491" y2="450" stroke="#607d8b" stroke-width="3"/><line x1="450" y1="449" x2="490" y2="452" stroke="#FFB300" stroke-width="3"/><line x1="450" y1="445" x2="494" y2="439" stroke="#803E75" stroke-width="3"/><line x1="491" y1="449" x2="523" y2="476" stroke="#f44336" stroke-width="3"/><line x1="489" y1="458" x2="527" y2="470" stroke="#673ab7" stroke-width="3"/><line x1="489" y1="456" x2="524" y2="474" stroke="#009688" stroke-width="3"/><line x1="490" y1="452" x2="531" y2="463" stroke="#4caf50" stroke-width="3"/><line x1="487" y1="465" x2="522" y2="479" stroke="#e91e63" stroke-width="3"/><line x1="487" y1="464" x2="525" y2="472" stroke="#795548" stroke-width="3"/><line x1="492" y1="446" x2="532" y2="461" stroke="#9e9e9e" stroke-width="3"/><line x1="491" y1="450" x2="528" y2="469" stroke="#607d8b" stroke-width="3"/><line x1="490" y1="452" x2="533" y2="460" stroke="#FFB300" stroke-width="3"/><line x1="494" y1="439" x2="529" y2="466" stroke="#803E75" stroke-width="3"/><line x1="523" y1="476" x2="566" y2="487" stroke="#f44336" stroke-width="3"/><line x1="527" y1="470" x2="559" y2="494" stroke="#673ab7" stroke-width="3"/><line x1="524" y1="474" x2="565" y2="488" stroke="#009688" stroke-width="3"/><line x1="531" y1="463" x2="551" y2="502" stroke="#4caf50" stroke-width="3"/><line x1="522" y1="479" x2="558" y2="495" stroke="#e91e63" stroke-width="3"/><line x1="525" y1="472" x2="564" y2="489" stroke="#795548" stroke-width="3"/><line x1="532" y1="461" x2="552" y2="501" stroke="#9e9e9e" stroke-width="3"/><line x1="528" y1="469" x2="565" y2="488" stroke="#607d8b" stroke-width="3"/><line x1="533" y1="460" x2="559" y2="494" stroke="#FFB300" stroke-width="3"/><line x1="529" y1="466" x2="559" y2="494" stroke="#803E75" stroke-width="3"/><line x1="566" y1="487" x2="579" y2="529" stroke="#f44336" stroke-width="3"/><line x1="559" y1="494" x2="587" y2="524" stroke="#673ab7" stroke-width="3"/><line x1="565" y1="488" x2="584" y2="525" stroke="#009688" stroke-width="3"/><line x1="551" y1="502" x2="591" y2="521" stroke="#4caf50" stroke-width="3"/><line x1="558" y1="495" x2="584" y2="525" stroke="#e91e63" stroke-width="3"/><line x1="564" y1="489" x2="586" y2="524" stroke="#795548" stroke-width="3"/><line x1="552" y1="501" x2="574" y2="531" stroke="#9e9e9e" stroke-width="3"/><line x1="565" y1="488" x2="585" y2="525" stroke="#607d8b" stroke-width="3"/><line x1="559" y1="494" x2="584" y2="525" stroke="#FFB300" stroke-width="3"/><line x1="559" y1="494" x2="582" y2="527" stroke="#803E75" stroke-width="3"/><line x1="579" y1="529" x2="592" y2="565" stroke="#f44336" stroke-width="3"/><line x1="587" y1="524" x2="599" y2="563" stroke="#673ab7" stroke-width="3"/><line x1="584" y1="525" x2="588" y2="566" stroke="#009688" stroke-width="3"/><line x1="591" y1="521" x2="607" y2="561" stroke="#4caf50" stroke-width="3"/><line x1="584" y1="525" x2="589" y2="566" stroke="#e91e63" stroke-width="3"/><line x1="586" y1="524" x2="590" y2="566" stroke="#795548" stroke-width="3"/><line x1="574" y1="531" x2="598" y2="563" stroke="#9e9e9e" stroke-width="3"/><line x1="585" y1="525" x2="596" y2="564" stroke="#607d8b" stroke-width="3"/><line x1="584" y1="525" x2="602" y2="562" stroke="#FFB300" stroke-width="3"/><line x1="582" y1="527" x2="601" y2="563" stroke="#803E75" stroke-width="3"/><line x1="592" y1="565" x2="681" y2="603" stroke="#f44336" stroke-width="2"/><line x1="599" y1="563" x2="671" y2="603" stroke="#673ab7" stroke-width="2"/><line x1="588" y1="566" x2="661" y2="603" stroke="#009688" stroke-width="2"/><line x1="607" y1="561" x2="680" y2="603" stroke="#4caf50" stroke-width="2"/><line x1="589" y1="566" x2="663" y2="603" stroke="#e91e63" stroke-width="2"/><line x1="590" y1="566" x2="593" y2="603" stroke="#795548" stroke-width="2"/><line x1="598" y1="563" x2="733" y2="603" stroke="#9e9e9e" stroke-width="2"/><line x1="596" y1="564" x2="710" y2="603" stroke="#607d8b" stroke-width="2"/><line x1="602" y1="562" x2="710" y2="603" stroke="#FFB300" stroke-width="2"/><line x1="601" y1="563" x2="765" y2="603" stroke="#803E75" stroke-width="2"/></svg>
