<?xml version="1.0"?>
<!DOCTYPE svg PUBLIC "-//W3C//DTD SVG 1.1//EN" "http://www.w3.org/Graphics/SVG/1.1/DTD/svg11.dtd">
<!--Phoronix Test Suite v10.4.0 [ http://www.phoronix-test-suite.com/ ]-->
<svg xmlns="http://www.w3.org/2000/svg" xmlns:xlink="http://www.w3.org/1999/xlink" version="1.1" font-family="sans-serif, droid-sans, helvetica, verdana, tahoma" viewbox="0 0 1000 500" width="1000" height="500" preserveAspectRatio="xMinYMin meet"><rect x="0" y="0" width="1000" height="500" fill="#FEFEFE"/><g stroke="#757575" stroke-width="1"/><g font-size="9" text-anchor="start" font-weight="bold"/><rect x="30" y="95" width="960" height="120" fill="#BABABA" stroke="#757575" stroke-width="1"/><text x="988" y="107" font-size="10" fill="#065695" text-anchor="end" font-weight="bold">Phoronix Test Suite 10.4.0</text><g stroke="#757575" stroke-width="1" stroke-dasharray="5,5"><line x1="30" y1="196" x2="990" y2="196"/><line x1="30" y1="176" x2="990" y2="176"/><line x1="30" y1="156" x2="990" y2="156"/><line x1="30" y1="136" x2="990" y2="136"/><line x1="30" y1="116" x2="990" y2="116"/></g><g stroke="#757575" stroke-width="1"><line x1="26" y1="196" x2="34" y2="196"/><line x1="26" y1="176" x2="34" y2="176"/><line x1="26" y1="156" x2="34" y2="156"/><line x1="26" y1="136" x2="34" y2="136"/><line x1="26" y1="116" x2="34" y2="116"/></g><g stroke="#949494" stroke-width="1" stroke-dasharray="5,5"/><g font-size="10" fill="#065695" text-anchor="end"/><rect x="30" y="230" width="960" height="120" fill="#BABABA" stroke="#757575" stroke-width="1"/><text x="988" y="242" font-size="10" fill="#065695" text-anchor="end" font-weight="bold">Phoronix Test Suite 10.4.0</text><g stroke="#757575" stroke-width="1" stroke-dasharray="5,5"><line x1="30" y1="331" x2="990" y2="331"/><line x1="30" y1="311" x2="990" y2="311"/><line x1="30" y1="291" x2="990" y2="291"/><line x1="30" y1="271" x2="990" y2="271"/><line x1="30" y1="251" x2="990" y2="251"/></g><g stroke="#757575" stroke-width="1"><line x1="26" y1="331" x2="34" y2="331"/><line x1="26" y1="311" x2="34" y2="311"/><line x1="26" y1="291" x2="34" y2="291"/><line x1="26" y1="271" x2="34" y2="271"/><line x1="26" y1="251" x2="34" y2="251"/></g><g stroke="#949494" stroke-width="1" stroke-dasharray="5,5"/><g font-size="10" fill="#065695" text-anchor="end"/><rect x="30" y="365" width="960" height="120" fill="#BABABA" stroke="#757575" stroke-width="1"/><text x="988" y="377" font-size="10" fill="#065695" text-anchor="end" font-weight="bold">Phoronix Test Suite 10.4.0</text><g stroke="#757575" stroke-width="1" stroke-dasharray="5,5"><line x1="30" y1="466" x2="990" y2="466"/><line x1="30" y1="446" x2="990" y2="446"/><line x1="30" y1="426" x2="990" y2="426"/><line x1="30" y1="406" x2="990" y2="406"/><line x1="30" y1="386" x2="990" y2="386"/></g><g stroke="#757575" stroke-width="1"><line x1="26" y1="466" x2="34" y2="466"/><line x1="26" y1="446" x2="34" y2="446"/><line x1="26" y1="426" x2="34" y2="426"/><line x1="26" y1="406" x2="34" y2="406"/><line x1="26" y1="386" x2="34" y2="386"/></g><g stroke="#949494" stroke-width="1" stroke-dasharray="5,5"/><g font-size="10" fill="#065695" text-anchor="end"/><text x="78" y="218" font-size="6.5" fill="#231f20" text-anchor="middle" dominant-baseline="text-before-edge">IPC_benchmark</text><rect x="39.6" y="96" width="12" height="119" fill="#f44336" stroke="#949494" stroke-width="1"/><rect x="51.6" y="101" width="12" height="114" fill="#673ab7" stroke="#949494" stroke-width="1"/><rect x="63.6" y="106" width="12" height="109" fill="#009688" stroke="#949494" stroke-width="1"/><rect x="75.6" y="96" width="12" height="119" fill="#4caf50" stroke="#949494" stroke-width="1"/><rect x="87.6" y="105" width="12" height="110" fill="#e91e63" stroke="#949494" stroke-width="1"/><rect x="99.6" y="142" width="12" height="73" fill="#795548" stroke="#949494" stroke-width="1"/><text x="174" y="218" font-size="6.5" fill="#231f20" text-anchor="middle" dominant-baseline="text-before-edge">IPC_benchmark</text><rect x="135.6" y="96" width="12" height="119" fill="#f44336" stroke="#949494" stroke-width="1"/><rect x="147.6" y="101" width="12" height="114" fill="#673ab7" stroke="#949494" stroke-width="1"/><rect x="159.6" y="107" width="12" height="108" fill="#009688" stroke="#949494" stroke-width="1"/><rect x="171.6" y="97" width="12" height="118" fill="#4caf50" stroke="#949494" stroke-width="1"/><rect x="183.6" y="106" width="12" height="109" fill="#e91e63" stroke="#949494" stroke-width="1"/><rect x="195.6" y="141" width="12" height="74" fill="#795548" stroke="#949494" stroke-width="1"/><text x="270" y="218" font-size="6.5" fill="#231f20" text-anchor="middle" dominant-baseline="text-before-edge">IPC_benchmark</text><rect x="231.6" y="96" width="12" height="119" fill="#f44336" stroke="#949494" stroke-width="1"/><rect x="243.6" y="101" width="12" height="114" fill="#673ab7" stroke="#949494" stroke-width="1"/><rect x="255.6" y="105" width="12" height="110" fill="#009688" stroke="#949494" stroke-width="1"/><rect x="267.6" y="97" width="12" height="118" fill="#4caf50" stroke="#949494" stroke-width="1"/><rect x="279.6" y="105" width="12" height="110" fill="#e91e63" stroke="#949494" stroke-width="1"/><rect x="291.6" y="138" width="12" height="77" fill="#795548" stroke="#949494" stroke-width="1"/><text x="366" y="218" font-size="6.5" fill="#231f20" text-anchor="middle" dominant-baseline="text-before-edge">IPC_benchmark</text><rect x="327.6" y="96" width="12" height="119" fill="#f44336" stroke="#949494" stroke-width="1"/><rect x="339.6" y="103" width="12" height="112" fill="#673ab7" stroke="#949494" stroke-width="1"/><rect x="351.6" y="109" width="12" height="106" fill="#009688" stroke="#949494" stroke-width="1"/><rect x="363.6" y="96" width="12" height="119" fill="#4caf50" stroke="#949494" stroke-width="1"/><rect x="375.6" y="108" width="12" height="107" fill="#e91e63" stroke="#949494" stroke-width="1"/><rect x="387.6" y="139" width="12" height="76" fill="#795548" stroke="#949494" stroke-width="1"/><text x="462" y="218" font-size="6.5" fill="#231f20" text-anchor="middle" dominant-baseline="text-before-edge">IPC_benchmark</text><rect x="423.6" y="96" width="12" height="119" fill="#f44336" stroke="#949494" stroke-width="1"/><rect x="435.6" y="100" width="12" height="115" fill="#673ab7" stroke="#949494" stroke-width="1"/><rect x="447.6" y="107" width="12" height="108" fill="#009688" stroke="#949494" stroke-width="1"/><rect x="459.6" y="97" width="12" height="118" fill="#4caf50" stroke="#949494" stroke-width="1"/><rect x="471.6" y="101" width="12" height="114" fill="#e91e63" stroke="#949494" stroke-width="1"/><rect x="483.6" y="132" width="12" height="83" fill="#795548" stroke="#949494" stroke-width="1"/><text x="558" y="218" font-size="6.5" fill="#231f20" text-anchor="middle" dominant-baseline="text-before-edge">IPC_benchmark</text><rect x="519.6" y="96" width="12" height="119" fill="#f44336" stroke="#949494" stroke-width="1"/><rect x="531.6" y="102" width="12" height="113" fill="#673ab7" stroke="#949494" stroke-width="1"/><rect x="543.6" y="107" width="12" height="108" fill="#009688" stroke="#949494" stroke-width="1"/><rect x="555.6" y="99" width="12" height="116" fill="#4caf50" stroke="#949494" stroke-width="1"/><rect x="567.6" y="103" width="12" height="112" fill="#e91e63" stroke="#949494" stroke-width="1"/><rect x="579.6" y="125" width="12" height="90" fill="#795548" stroke="#949494" stroke-width="1"/><text x="654" y="218" font-size="6.5" fill="#231f20" text-anchor="middle" dominant-baseline="text-before-edge">IPC_benchmark</text><rect x="615.6" y="96" width="12" height="119" fill="#f44336" stroke="#949494" stroke-width="1"/><rect x="627.6" y="104" width="12" height="111" fill="#673ab7" stroke="#949494" stroke-width="1"/><rect x="639.6" y="106" width="12" height="109" fill="#009688" stroke="#949494" stroke-width="1"/><rect x="651.6" y="108" width="12" height="107" fill="#4caf50" stroke="#949494" stroke-width="1"/><rect x="663.6" y="97" width="12" height="118" fill="#e91e63" stroke="#949494" stroke-width="1"/><rect x="675.6" y="107" width="12" height="108" fill="#795548" stroke="#949494" stroke-width="1"/><text x="750" y="218" font-size="6.5" fill="#231f20" text-anchor="middle" dominant-baseline="text-before-edge">IPC_benchmark</text><rect x="711.6" y="96" width="12" height="119" fill="#f44336" stroke="#949494" stroke-width="1"/><rect x="723.6" y="99" width="12" height="116" fill="#673ab7" stroke="#949494" stroke-width="1"/><rect x="735.6" y="104" width="12" height="111" fill="#009688" stroke="#949494" stroke-width="1"/><rect x="747.6" y="114" width="12" height="101" fill="#4caf50" stroke="#949494" stroke-width="1"/><rect x="759.6" y="108" width="12" height="107" fill="#e91e63" stroke="#949494" stroke-width="1"/><rect x="771.6" y="106" width="12" height="109" fill="#795548" stroke="#949494" stroke-width="1"/><text x="846" y="218" font-size="6.5" fill="#231f20" text-anchor="middle" dominant-baseline="text-before-edge">IPC_benchmark</text><rect x="807.6" y="98" width="12" height="117" fill="#f44336" stroke="#949494" stroke-width="1"/><rect x="819.6" y="109" width="12" height="106" fill="#673ab7" stroke="#949494" stroke-width="1"/><rect x="831.6" y="111" width="12" height="104" fill="#009688" stroke="#949494" stroke-width="1"/><rect x="843.6" y="100" width="12" height="115" fill="#4caf50" stroke="#949494" stroke-width="1"/><rect x="855.6" y="96" width="12" height="119" fill="#e91e63" stroke="#949494" stroke-width="1"/><rect x="867.6" y="107" width="12" height="108" fill="#795548" stroke="#949494" stroke-width="1"/><text x="942" y="218" font-size="6.5" fill="#231f20" text-anchor="middle" dominant-baseline="text-before-edge">IPC_benchmark</text><rect x="903.6" y="118" width="12" height="97" fill="#f44336" stroke="#949494" stroke-width="1"/><rect x="915.6" y="113" width="12" height="102" fill="#673ab7" stroke="#949494" stroke-width="1"/><rect x="927.6" y="96" width="12" height="119" fill="#009688" stroke="#949494" stroke-width="1"/><rect x="939.6" y="113" width="12" height="102" fill="#4caf50" stroke="#949494" stroke-width="1"/><rect x="951.6" y="109" width="12" height="106" fill="#e91e63" stroke="#949494" stroke-width="1"/><rect x="963.6" y="113" width="12" height="102" fill="#795548" stroke="#949494" stroke-width="1"/><line x1="126" y1="215" x2="950" y2="215" stroke="#757575" stroke-width="10" stroke-dasharray="1,95"/><line x1="30" y1="215" x2="990" y2="215" stroke="#757575" stroke-width="1"/><text x="78" y="353" font-size="6.5" fill="#231f20" text-anchor="middle" dominant-baseline="text-before-edge">IPC_benchmark</text><rect x="39.6" y="231" width="12" height="119" fill="#f44336" stroke="#949494" stroke-width="1"/><rect x="51.6" y="238" width="12" height="112" fill="#673ab7" stroke="#949494" stroke-width="1"/><rect x="63.6" y="232" width="12" height="118" fill="#009688" stroke="#949494" stroke-width="1"/><rect x="75.6" y="246" width="12" height="104" fill="#4caf50" stroke="#949494" stroke-width="1"/><rect x="87.6" y="240" width="12" height="110" fill="#e91e63" stroke="#949494" stroke-width="1"/><rect x="99.6" y="234" width="12" height="116" fill="#795548" stroke="#949494" stroke-width="1"/><text x="174" y="353" font-size="6.5" fill="#231f20" text-anchor="middle" dominant-baseline="text-before-edge">IPC_benchmark</text><rect x="135.6" y="231" width="12" height="119" fill="#f44336" stroke="#949494" stroke-width="1"/><rect x="147.6" y="245" width="12" height="105" fill="#673ab7" stroke="#949494" stroke-width="1"/><rect x="159.6" y="239" width="12" height="111" fill="#009688" stroke="#949494" stroke-width="1"/><rect x="171.6" y="247" width="12" height="103" fill="#4caf50" stroke="#949494" stroke-width="1"/><rect x="183.6" y="255" width="12" height="95" fill="#e91e63" stroke="#949494" stroke-width="1"/><rect x="195.6" y="233" width="12" height="117" fill="#795548" stroke="#949494" stroke-width="1"/><text x="270" y="353" font-size="6.5" fill="#231f20" text-anchor="middle" dominant-baseline="text-before-edge">IPC_benchmark</text><rect x="231.6" y="246" width="12" height="104" fill="#f44336" stroke="#949494" stroke-width="1"/><rect x="243.6" y="234" width="12" height="116" fill="#673ab7" stroke="#949494" stroke-width="1"/><rect x="255.6" y="241" width="12" height="109" fill="#009688" stroke="#949494" stroke-width="1"/><rect x="267.6" y="232" width="12" height="118" fill="#4caf50" stroke="#949494" stroke-width="1"/><rect x="279.6" y="231" width="12" height="119" fill="#e91e63" stroke="#949494" stroke-width="1"/><rect x="291.6" y="241" width="12" height="109" fill="#795548" stroke="#949494" stroke-width="1"/><text x="366" y="353" font-size="6.5" fill="#231f20" text-anchor="middle" dominant-baseline="text-before-edge">IPC_benchmark</text><rect x="327.6" y="247" width="12" height="103" fill="#f44336" stroke="#949494" stroke-width="1"/><rect x="339.6" y="231" width="12" height="119" fill="#673ab7" stroke="#949494" stroke-width="1"/><rect x="351.6" y="238" width="12" height="112" fill="#009688" stroke="#949494" stroke-width="1"/><rect x="363.6" y="247" width="12" height="103" fill="#4caf50" stroke="#949494" stroke-width="1"/><rect x="375.6" y="237" width="12" height="113" fill="#e91e63" stroke="#949494" stroke-width="1"/><rect x="387.6" y="250" width="12" height="100" fill="#795548" stroke="#949494" stroke-width="1"/><text x="462" y="353" font-size="6.5" fill="#231f20" text-anchor="middle" dominant-baseline="text-before-edge">IPC_benchmark</text><rect x="423.6" y="242" width="12" height="108" fill="#f44336" stroke="#949494" stroke-width="1"/><rect x="435.6" y="237" width="12" height="113" fill="#673ab7" stroke="#949494" stroke-width="1"/><rect x="447.6" y="245" width="12" height="105" fill="#009688" stroke="#949494" stroke-width="1"/><rect x="459.6" y="231" width="12" height="119" fill="#4caf50" stroke="#949494" stroke-width="1"/><rect x="471.6" y="244" width="12" height="106" fill="#e91e63" stroke="#949494" stroke-width="1"/><rect x="483.6" y="244" width="12" height="106" fill="#795548" stroke="#949494" stroke-width="1"/><text x="558" y="353" font-size="6.5" fill="#231f20" text-anchor="middle" dominant-baseline="text-before-edge">IPC_benchmark</text><rect x="519.6" y="242" width="12" height="108" fill="#f44336" stroke="#949494" stroke-width="1"/><rect x="531.6" y="237" width="12" height="113" fill="#673ab7" stroke="#949494" stroke-width="1"/><rect x="543.6" y="241" width="12" height="109" fill="#009688" stroke="#949494" stroke-width="1"/><rect x="555.6" y="231" width="12" height="119" fill="#4caf50" stroke="#949494" stroke-width="1"/><rect x="567.6" y="245" width="12" height="105" fill="#e91e63" stroke="#949494" stroke-width="1"/><rect x="579.6" y="239" width="12" height="111" fill="#795548" stroke="#949494" stroke-width="1"/><text x="654" y="353" font-size="6.5" fill="#231f20" text-anchor="middle" dominant-baseline="text-before-edge">IPC_benchmark</text><rect x="615.6" y="242" width="12" height="108" fill="#f44336" stroke="#949494" stroke-width="1"/><rect x="627.6" y="234" width="12" height="116" fill="#673ab7" stroke="#949494" stroke-width="1"/><rect x="639.6" y="237" width="12" height="113" fill="#009688" stroke="#949494" stroke-width="1"/><rect x="651.6" y="231" width="12" height="119" fill="#4caf50" stroke="#949494" stroke-width="1"/><rect x="663.6" y="237" width="12" height="113" fill="#e91e63" stroke="#949494" stroke-width="1"/><rect x="675.6" y="235" width="12" height="115" fill="#795548" stroke="#949494" stroke-width="1"/><text x="750" y="353" font-size="6.5" fill="#231f20" text-anchor="middle" dominant-baseline="text-before-edge">IPC_benchmark</text><rect x="711.6" y="234" width="12" height="116" fill="#f44336" stroke="#949494" stroke-width="1"/><rect x="723.6" y="245" width="12" height="105" fill="#673ab7" stroke="#949494" stroke-width="1"/><rect x="735.6" y="231" width="12" height="119" fill="#009688" stroke="#949494" stroke-width="1"/><rect x="747.6" y="239" width="12" height="111" fill="#4caf50" stroke="#949494" stroke-width="1"/><rect x="759.6" y="234" width="12" height="116" fill="#e91e63" stroke="#949494" stroke-width="1"/><rect x="771.6" y="235" width="12" height="115" fill="#795548" stroke="#949494" stroke-width="1"/><text x="846" y="353" font-size="6.5" fill="#231f20" text-anchor="middle" dominant-baseline="text-before-edge">IPC_benchmark</text><rect x="807.6" y="232" width="12" height="118" fill="#f44336" stroke="#949494" stroke-width="1"/><rect x="819.6" y="231" width="12" height="119" fill="#673ab7" stroke="#949494" stroke-width="1"/><rect x="831.6" y="240" width="12" height="110" fill="#009688" stroke="#949494" stroke-width="1"/><rect x="843.6" y="233" width="12" height="117" fill="#4caf50" stroke="#949494" stroke-width="1"/><rect x="855.6" y="249" width="12" height="101" fill="#e91e63" stroke="#949494" stroke-width="1"/><rect x="867.6" y="246" width="12" height="104" fill="#795548" stroke="#949494" stroke-width="1"/><text x="942" y="353" font-size="6.5" fill="#231f20" text-anchor="middle" dominant-baseline="text-before-edge">IPC_benchmark</text><rect x="903.6" y="232" width="12" height="118" fill="#f44336" stroke="#949494" stroke-width="1"/><rect x="915.6" y="231" width="12" height="119" fill="#673ab7" stroke="#949494" stroke-width="1"/><rect x="927.6" y="237" width="12" height="113" fill="#009688" stroke="#949494" stroke-width="1"/><rect x="939.6" y="234" width="12" height="116" fill="#4caf50" stroke="#949494" stroke-width="1"/><rect x="951.6" y="245" width="12" height="105" fill="#e91e63" stroke="#949494" stroke-width="1"/><rect x="963.6" y="244" width="12" height="106" fill="#795548" stroke="#949494" stroke-width="1"/><line x1="126" y1="350" x2="950" y2="350" stroke="#757575" stroke-width="10" stroke-dasharray="1,95"/><line x1="30" y1="350" x2="990" y2="350" stroke="#757575" stroke-width="1"/><text x="78" y="488" font-size="6.5" fill="#231f20" text-anchor="middle" dominant-baseline="text-before-edge">IPC_benchmark</text><rect x="39.6" y="366" width="12" height="119" fill="#f44336" stroke="#949494" stroke-width="1"/><rect x="51.6" y="369" width="12" height="116" fill="#673ab7" stroke="#949494" stroke-width="1"/><rect x="63.6" y="378" width="12" height="107" fill="#009688" stroke="#949494" stroke-width="1"/><rect x="75.6" y="370" width="12" height="115" fill="#4caf50" stroke="#949494" stroke-width="1"/><rect x="87.6" y="381" width="12" height="104" fill="#e91e63" stroke="#949494" stroke-width="1"/><rect x="99.6" y="380" width="12" height="105" fill="#795548" stroke="#949494" stroke-width="1"/><text x="174" y="488" font-size="6.5" fill="#231f20" text-anchor="middle" dominant-baseline="text-before-edge">IPC_benchmark</text><rect x="135.6" y="366" width="12" height="119" fill="#f44336" stroke="#949494" stroke-width="1"/><rect x="147.6" y="366" width="12" height="119" fill="#673ab7" stroke="#949494" stroke-width="1"/><rect x="159.6" y="372" width="12" height="113" fill="#009688" stroke="#949494" stroke-width="1"/><rect x="171.6" y="369" width="12" height="116" fill="#4caf50" stroke="#949494" stroke-width="1"/><rect x="183.6" y="380" width="12" height="105" fill="#e91e63" stroke="#949494" stroke-width="1"/><rect x="195.6" y="376" width="12" height="109" fill="#795548" stroke="#949494" stroke-width="1"/><text x="270" y="488" font-size="6.5" fill="#231f20" text-anchor="middle" dominant-baseline="text-before-edge">IPC_benchmark</text><rect x="231.6" y="366" width="12" height="119" fill="#f44336" stroke="#949494" stroke-width="1"/><rect x="243.6" y="373" width="12" height="112" fill="#673ab7" stroke="#949494" stroke-width="1"/><rect x="255.6" y="372" width="12" height="113" fill="#009688" stroke="#949494" stroke-width="1"/><rect x="267.6" y="369" width="12" height="116" fill="#4caf50" stroke="#949494" stroke-width="1"/><rect x="279.6" y="378" width="12" height="107" fill="#e91e63" stroke="#949494" stroke-width="1"/><rect x="291.6" y="378" width="12" height="107" fill="#795548" stroke="#949494" stroke-width="1"/><text x="366" y="488" font-size="6.5" fill="#231f20" text-anchor="middle" dominant-baseline="text-before-edge">IPC_benchmark</text><rect x="327.6" y="366" width="12" height="119" fill="#f44336" stroke="#949494" stroke-width="1"/><rect x="339.6" y="371" width="12" height="114" fill="#673ab7" stroke="#949494" stroke-width="1"/><rect x="351.6" y="375" width="12" height="110" fill="#009688" stroke="#949494" stroke-width="1"/><rect x="363.6" y="370" width="12" height="115" fill="#4caf50" stroke="#949494" stroke-width="1"/><rect x="375.6" y="381" width="12" height="104" fill="#e91e63" stroke="#949494" stroke-width="1"/><rect x="387.6" y="378" width="12" height="107" fill="#795548" stroke="#949494" stroke-width="1"/><text x="495" y="19" font-size="17" fill="#231f20" text-anchor="middle">ipc</text><text x="990" y="92" font-size="7" fill="#949494" text-anchor="end">Phoronix Test Suite 10.4.0</text></svg>
