<?xml version="1.0"?>
<!DOCTYPE svg PUBLIC "-//W3C//DTD SVG 1.1//EN" "http://www.w3.org/Graphics/SVG/1.1/DTD/svg11.dtd">
<!--Phoronix Test Suite v10.4.0 [ http://www.phoronix-test-suite.com/ ]-->
<svg xmlns="http://www.w3.org/2000/svg" xmlns:xlink="http://www.w3.org/1999/xlink" version="1.1" font-family="sans-serif, droid-sans, helvetica, verdana, tahoma" viewbox="0 0 1000 509" width="1000" height="509" preserveAspectRatio="xMinYMin meet"><rect x="0" y="0" width="1000" height="508.66666666667" fill="#FEFEFE"/><g stroke="#757575" stroke-width="1"/><g font-size="9" text-anchor="start" font-weight="bold"/><rect x="30" y="103.66666666667" width="960" height="120" fill="#BABABA" stroke="#757575" stroke-width="1"/><text x="988" y="115.66666666667" font-size="10" fill="#065695" text-anchor="end" font-weight="bold">Phoronix Test Suite 10.4.0</text><g stroke="#757575" stroke-width="1" stroke-dasharray="5,5"><line x1="30" y1="205" x2="990" y2="205"/><line x1="30" y1="185" x2="990" y2="185"/><line x1="30" y1="165" x2="990" y2="165"/><line x1="30" y1="145" x2="990" y2="145"/><line x1="30" y1="125" x2="990" y2="125"/></g><g stroke="#757575" stroke-width="1"><line x1="26" y1="205" x2="34" y2="205"/><line x1="26" y1="185" x2="34" y2="185"/><line x1="26" y1="165" x2="34" y2="165"/><line x1="26" y1="145" x2="34" y2="145"/><line x1="26" y1="125" x2="34" y2="125"/></g><g stroke="#949494" stroke-width="1" stroke-dasharray="5,5"/><g font-size="10" fill="#065695" text-anchor="end"/><rect x="30" y="238.66666666667" width="960" height="120" fill="#BABABA" stroke="#757575" stroke-width="1"/><text x="988" y="250.66666666667" font-size="10" fill="#065695" text-anchor="end" font-weight="bold">Phoronix Test Suite 10.4.0</text><g stroke="#757575" stroke-width="1" stroke-dasharray="5,5"><line x1="30" y1="340" x2="990" y2="340"/><line x1="30" y1="320" x2="990" y2="320"/><line x1="30" y1="300" x2="990" y2="300"/><line x1="30" y1="280" x2="990" y2="280"/><line x1="30" y1="260" x2="990" y2="260"/></g><g stroke="#757575" stroke-width="1"><line x1="26" y1="340" x2="34" y2="340"/><line x1="26" y1="320" x2="34" y2="320"/><line x1="26" y1="300" x2="34" y2="300"/><line x1="26" y1="280" x2="34" y2="280"/><line x1="26" y1="260" x2="34" y2="260"/></g><g stroke="#949494" stroke-width="1" stroke-dasharray="5,5"/><g font-size="10" fill="#065695" text-anchor="end"/><rect x="30" y="373.66666666667" width="960" height="120" fill="#BABABA" stroke="#757575" stroke-width="1"/><text x="988" y="385.66666666667" font-size="10" fill="#065695" text-anchor="end" font-weight="bold">Phoronix Test Suite 10.4.0</text><g stroke="#757575" stroke-width="1" stroke-dasharray="5,5"><line x1="30" y1="475" x2="990" y2="475"/><line x1="30" y1="455" x2="990" y2="455"/><line x1="30" y1="435" x2="990" y2="435"/><line x1="30" y1="415" x2="990" y2="415"/><line x1="30" y1="395" x2="990" y2="395"/></g><g stroke="#757575" stroke-width="1"><line x1="26" y1="475" x2="34" y2="475"/><line x1="26" y1="455" x2="34" y2="455"/><line x1="26" y1="435" x2="34" y2="435"/><line x1="26" y1="415" x2="34" y2="415"/><line x1="26" y1="395" x2="34" y2="395"/></g><g stroke="#949494" stroke-width="1" stroke-dasharray="5,5"/><g font-size="10" fill="#065695" text-anchor="end"/><text x="78" y="227" font-size="6.5" fill="#231f20" text-anchor="middle" dominant-baseline="text-before-edge">IPC_benchmark</text><rect x="39.6" y="137" width="7" height="87" fill="#f44336" stroke="#949494" stroke-width="1"/><rect x="46.6" y="141" width="7" height="83" fill="#673ab7" stroke="#949494" stroke-width="1"/><rect x="53.6" y="144" width="7" height="80" fill="#009688" stroke="#949494" stroke-width="1"/><rect x="60.6" y="137" width="7" height="87" fill="#4caf50" stroke="#949494" stroke-width="1"/><rect x="67.6" y="144" width="7" height="80" fill="#e91e63" stroke="#949494" stroke-width="1"/><rect x="74.6" y="170" width="7" height="54" fill="#795548" stroke="#949494" stroke-width="1"/><rect x="81.6" y="117" width="7" height="107" fill="#9e9e9e" stroke="#949494" stroke-width="1"/><rect x="88.6" y="126" width="7" height="98" fill="#607d8b" stroke="#949494" stroke-width="1"/><rect x="95.6" y="126" width="7" height="98" fill="#FFB300" stroke="#949494" stroke-width="1"/><rect x="102.6" y="105" width="7" height="119" fill="#803E75" stroke="#949494" stroke-width="1"/><text x="174" y="227" font-size="6.5" fill="#231f20" text-anchor="middle" dominant-baseline="text-before-edge">IPC_benchmark</text><rect x="135.6" y="132" width="7" height="92" fill="#f44336" stroke="#949494" stroke-width="1"/><rect x="142.6" y="136" width="7" height="88" fill="#673ab7" stroke="#949494" stroke-width="1"/><rect x="149.6" y="140" width="7" height="84" fill="#009688" stroke="#949494" stroke-width="1"/><rect x="156.6" y="133" width="7" height="91" fill="#4caf50" stroke="#949494" stroke-width="1"/><rect x="163.6" y="140" width="7" height="84" fill="#e91e63" stroke="#949494" stroke-width="1"/><rect x="170.6" y="167" width="7" height="57" fill="#795548" stroke="#949494" stroke-width="1"/><rect x="177.6" y="114" width="7" height="110" fill="#9e9e9e" stroke="#949494" stroke-width="1"/><rect x="184.6" y="122" width="7" height="102" fill="#607d8b" stroke="#949494" stroke-width="1"/><rect x="191.6" y="122" width="7" height="102" fill="#FFB300" stroke="#949494" stroke-width="1"/><rect x="198.6" y="105" width="7" height="119" fill="#803E75" stroke="#949494" stroke-width="1"/><text x="270" y="227" font-size="6.5" fill="#231f20" text-anchor="middle" dominant-baseline="text-before-edge">IPC_benchmark</text><rect x="231.6" y="135" width="7" height="89" fill="#f44336" stroke="#949494" stroke-width="1"/><rect x="238.6" y="139" width="7" height="85" fill="#673ab7" stroke="#949494" stroke-width="1"/><rect x="245.6" y="142" width="7" height="82" fill="#009688" stroke="#949494" stroke-width="1"/><rect x="252.6" y="135" width="7" height="89" fill="#4caf50" stroke="#949494" stroke-width="1"/><rect x="259.6" y="142" width="7" height="82" fill="#e91e63" stroke="#949494" stroke-width="1"/><rect x="266.6" y="166" width="7" height="58" fill="#795548" stroke="#949494" stroke-width="1"/><rect x="273.6" y="119" width="7" height="105" fill="#9e9e9e" stroke="#949494" stroke-width="1"/><rect x="280.6" y="126" width="7" height="98" fill="#607d8b" stroke="#949494" stroke-width="1"/><rect x="287.6" y="126" width="7" height="98" fill="#FFB300" stroke="#949494" stroke-width="1"/><rect x="294.6" y="105" width="7" height="119" fill="#803E75" stroke="#949494" stroke-width="1"/><text x="366" y="227" font-size="6.5" fill="#231f20" text-anchor="middle" dominant-baseline="text-before-edge">IPC_benchmark</text><rect x="327.6" y="129" width="7" height="95" fill="#f44336" stroke="#949494" stroke-width="1"/><rect x="334.6" y="134" width="7" height="90" fill="#673ab7" stroke="#949494" stroke-width="1"/><rect x="341.6" y="139" width="7" height="85" fill="#009688" stroke="#949494" stroke-width="1"/><rect x="348.6" y="129" width="7" height="95" fill="#4caf50" stroke="#949494" stroke-width="1"/><rect x="355.6" y="138" width="7" height="86" fill="#e91e63" stroke="#949494" stroke-width="1"/><rect x="362.6" y="163" width="7" height="61" fill="#795548" stroke="#949494" stroke-width="1"/><rect x="369.6" y="113" width="7" height="111" fill="#9e9e9e" stroke="#949494" stroke-width="1"/><rect x="376.6" y="119" width="7" height="105" fill="#607d8b" stroke="#949494" stroke-width="1"/><rect x="383.6" y="118" width="7" height="106" fill="#FFB300" stroke="#949494" stroke-width="1"/><rect x="390.6" y="105" width="7" height="119" fill="#803E75" stroke="#949494" stroke-width="1"/><text x="462" y="227" font-size="6.5" fill="#231f20" text-anchor="middle" dominant-baseline="text-before-edge">IPC_benchmark</text><rect x="423.6" y="124" width="7" height="100" fill="#f44336" stroke="#949494" stroke-width="1"/><rect x="430.6" y="127" width="7" height="97" fill="#673ab7" stroke="#949494" stroke-width="1"/><rect x="437.6" y="133" width="7" height="91" fill="#009688" stroke="#949494" stroke-width="1"/><rect x="444.6" y="124" width="7" height="100" fill="#4caf50" stroke="#949494" stroke-width="1"/><rect x="451.6" y="128" width="7" height="96" fill="#e91e63" stroke="#949494" stroke-width="1"/><rect x="458.6" y="154" width="7" height="70" fill="#795548" stroke="#949494" stroke-width="1"/><rect x="465.6" y="111" width="7" height="113" fill="#9e9e9e" stroke="#949494" stroke-width="1"/><rect x="472.6" y="115" width="7" height="109" fill="#607d8b" stroke="#949494" stroke-width="1"/><rect x="479.6" y="115" width="7" height="109" fill="#FFB300" stroke="#949494" stroke-width="1"/><rect x="486.6" y="105" width="7" height="119" fill="#803E75" stroke="#949494" stroke-width="1"/><text x="558" y="227" font-size="6.5" fill="#231f20" text-anchor="middle" dominant-baseline="text-before-edge">IPC_benchmark</text><rect x="519.6" y="117" width="7" height="107" fill="#f44336" stroke="#949494" stroke-width="1"/><rect x="526.6" y="122" width="7" height="102" fill="#673ab7" stroke="#949494" stroke-width="1"/><rect x="533.6" y="127" width="7" height="97" fill="#009688" stroke="#949494" stroke-width="1"/><rect x="540.6" y="119" width="7" height="105" fill="#4caf50" stroke="#949494" stroke-width="1"/><rect x="547.6" y="123" width="7" height="101" fill="#e91e63" stroke="#949494" stroke-width="1"/><rect x="554.6" y="143" width="7" height="81" fill="#795548" stroke="#949494" stroke-width="1"/><rect x="561.6" y="108" width="7" height="116" fill="#9e9e9e" stroke="#949494" stroke-width="1"/><rect x="568.6" y="113" width="7" height="111" fill="#607d8b" stroke="#949494" stroke-width="1"/><rect x="575.6" y="113" width="7" height="111" fill="#FFB300" stroke="#949494" stroke-width="1"/><rect x="582.6" y="105" width="7" height="119" fill="#803E75" stroke="#949494" stroke-width="1"/><text x="654" y="227" font-size="6.5" fill="#231f20" text-anchor="middle" dominant-baseline="text-before-edge">IPC_benchmark</text><rect x="615.6" y="106" width="7" height="118" fill="#f44336" stroke="#949494" stroke-width="1"/><rect x="622.6" y="114" width="7" height="110" fill="#673ab7" stroke="#949494" stroke-width="1"/><rect x="629.6" y="116" width="7" height="108" fill="#009688" stroke="#949494" stroke-width="1"/><rect x="636.6" y="119" width="7" height="105" fill="#4caf50" stroke="#949494" stroke-width="1"/><rect x="643.6" y="107" width="7" height="117" fill="#e91e63" stroke="#949494" stroke-width="1"/><rect x="650.6" y="118" width="7" height="106" fill="#795548" stroke="#949494" stroke-width="1"/><rect x="657.6" y="122" width="7" height="102" fill="#9e9e9e" stroke="#949494" stroke-width="1"/><rect x="664.6" y="125" width="7" height="99" fill="#607d8b" stroke="#949494" stroke-width="1"/><rect x="671.6" y="135" width="7" height="89" fill="#FFB300" stroke="#949494" stroke-width="1"/><rect x="678.6" y="105" width="7" height="119" fill="#803E75" stroke="#949494" stroke-width="1"/><text x="750" y="227" font-size="6.5" fill="#231f20" text-anchor="middle" dominant-baseline="text-before-edge">IPC_benchmark</text><rect x="711.6" y="105" width="7" height="119" fill="#f44336" stroke="#949494" stroke-width="1"/><rect x="718.6" y="108" width="7" height="116" fill="#673ab7" stroke="#949494" stroke-width="1"/><rect x="725.6" y="112" width="7" height="112" fill="#009688" stroke="#949494" stroke-width="1"/><rect x="732.6" y="123" width="7" height="101" fill="#4caf50" stroke="#949494" stroke-width="1"/><rect x="739.6" y="117" width="7" height="107" fill="#e91e63" stroke="#949494" stroke-width="1"/><rect x="746.6" y="115" width="7" height="109" fill="#795548" stroke="#949494" stroke-width="1"/><rect x="753.6" y="110" width="7" height="114" fill="#9e9e9e" stroke="#949494" stroke-width="1"/><rect x="760.6" y="119" width="7" height="105" fill="#607d8b" stroke="#949494" stroke-width="1"/><rect x="767.6" y="125" width="7" height="99" fill="#FFB300" stroke="#949494" stroke-width="1"/><rect x="774.6" y="122" width="7" height="102" fill="#803E75" stroke="#949494" stroke-width="1"/><text x="846" y="227" font-size="6.5" fill="#231f20" text-anchor="middle" dominant-baseline="text-before-edge">IPC_benchmark</text><rect x="807.6" y="107" width="7" height="117" fill="#f44336" stroke="#949494" stroke-width="1"/><rect x="814.6" y="118" width="7" height="106" fill="#673ab7" stroke="#949494" stroke-width="1"/><rect x="821.6" y="119" width="7" height="105" fill="#009688" stroke="#949494" stroke-width="1"/><rect x="828.6" y="109" width="7" height="115" fill="#4caf50" stroke="#949494" stroke-width="1"/><rect x="835.6" y="105" width="7" height="119" fill="#e91e63" stroke="#949494" stroke-width="1"/><rect x="842.6" y="116" width="7" height="108" fill="#795548" stroke="#949494" stroke-width="1"/><rect x="849.6" y="118" width="7" height="106" fill="#9e9e9e" stroke="#949494" stroke-width="1"/><rect x="856.6" y="126" width="7" height="98" fill="#607d8b" stroke="#949494" stroke-width="1"/><rect x="863.6" y="115" width="7" height="109" fill="#FFB300" stroke="#949494" stroke-width="1"/><rect x="870.6" y="118" width="7" height="106" fill="#803E75" stroke="#949494" stroke-width="1"/><text x="942" y="227" font-size="6.5" fill="#231f20" text-anchor="middle" dominant-baseline="text-before-edge">IPC_benchmark</text><rect x="903.6" y="130" width="7" height="94" fill="#f44336" stroke="#949494" stroke-width="1"/><rect x="910.6" y="125" width="7" height="99" fill="#673ab7" stroke="#949494" stroke-width="1"/><rect x="917.6" y="109" width="7" height="115" fill="#009688" stroke="#949494" stroke-width="1"/><rect x="924.6" y="126" width="7" height="98" fill="#4caf50" stroke="#949494" stroke-width="1"/><rect x="931.6" y="121" width="7" height="103" fill="#e91e63" stroke="#949494" stroke-width="1"/><rect x="938.6" y="125" width="7" height="99" fill="#795548" stroke="#949494" stroke-width="1"/><rect x="945.6" y="124" width="7" height="100" fill="#9e9e9e" stroke="#949494" stroke-width="1"/><rect x="952.6" y="112" width="7" height="112" fill="#607d8b" stroke="#949494" stroke-width="1"/><rect x="959.6" y="105" width="7" height="119" fill="#FFB300" stroke="#949494" stroke-width="1"/><rect x="966.6" y="132" width="7" height="92" fill="#803E75" stroke="#949494" stroke-width="1"/><line x1="126" y1="224" x2="950" y2="224" stroke="#757575" stroke-width="10" stroke-dasharray="1,95"/><line x1="30" y1="224" x2="990" y2="224" stroke="#757575" stroke-width="1"/><text x="78" y="362" font-size="6.5" fill="#231f20" text-anchor="middle" dominant-baseline="text-before-edge">IPC_benchmark</text><rect x="39.6" y="240" width="7" height="119" fill="#f44336" stroke="#949494" stroke-width="1"/><rect x="46.6" y="247" width="7" height="112" fill="#673ab7" stroke="#949494" stroke-width="1"/><rect x="53.6" y="241" width="7" height="118" fill="#009688" stroke="#949494" stroke-width="1"/><rect x="60.6" y="255" width="7" height="104" fill="#4caf50" stroke="#949494" stroke-width="1"/><rect x="67.6" y="248" width="7" height="111" fill="#e91e63" stroke="#949494" stroke-width="1"/><rect x="74.6" y="242" width="7" height="117" fill="#795548" stroke="#949494" stroke-width="1"/><rect x="81.6" y="254" width="7" height="105" fill="#9e9e9e" stroke="#949494" stroke-width="1"/><rect x="88.6" y="241" width="7" height="118" fill="#607d8b" stroke="#949494" stroke-width="1"/><rect x="95.6" y="247" width="7" height="112" fill="#FFB300" stroke="#949494" stroke-width="1"/><rect x="102.6" y="247" width="7" height="112" fill="#803E75" stroke="#949494" stroke-width="1"/><text x="174" y="362" font-size="6.5" fill="#231f20" text-anchor="middle" dominant-baseline="text-before-edge">IPC_benchmark</text><rect x="135.6" y="240" width="7" height="119" fill="#f44336" stroke="#949494" stroke-width="1"/><rect x="142.6" y="253" width="7" height="106" fill="#673ab7" stroke="#949494" stroke-width="1"/><rect x="149.6" y="247" width="7" height="112" fill="#009688" stroke="#949494" stroke-width="1"/><rect x="156.6" y="255" width="7" height="104" fill="#4caf50" stroke="#949494" stroke-width="1"/><rect x="163.6" y="264" width="7" height="95" fill="#e91e63" stroke="#949494" stroke-width="1"/><rect x="170.6" y="241" width="7" height="118" fill="#795548" stroke="#949494" stroke-width="1"/><rect x="177.6" y="241" width="7" height="118" fill="#9e9e9e" stroke="#949494" stroke-width="1"/><rect x="184.6" y="257" width="7" height="102" fill="#607d8b" stroke="#949494" stroke-width="1"/><rect x="191.6" y="250" width="7" height="109" fill="#FFB300" stroke="#949494" stroke-width="1"/><rect x="198.6" y="248" width="7" height="111" fill="#803E75" stroke="#949494" stroke-width="1"/><text x="270" y="362" font-size="6.5" fill="#231f20" text-anchor="middle" dominant-baseline="text-before-edge">IPC_benchmark</text><rect x="231.6" y="261" width="7" height="98" fill="#f44336" stroke="#949494" stroke-width="1"/><rect x="238.6" y="248" width="7" height="111" fill="#673ab7" stroke="#949494" stroke-width="1"/><rect x="245.6" y="255" width="7" height="104" fill="#009688" stroke="#949494" stroke-width="1"/><rect x="252.6" y="247" width="7" height="112" fill="#4caf50" stroke="#949494" stroke-width="1"/><rect x="259.6" y="246" width="7" height="113" fill="#e91e63" stroke="#949494" stroke-width="1"/><rect x="266.6" y="255" width="7" height="104" fill="#795548" stroke="#949494" stroke-width="1"/><rect x="273.6" y="251" width="7" height="108" fill="#9e9e9e" stroke="#949494" stroke-width="1"/><rect x="280.6" y="257" width="7" height="102" fill="#607d8b" stroke="#949494" stroke-width="1"/><rect x="287.6" y="252" width="7" height="107" fill="#FFB300" stroke="#949494" stroke-width="1"/><rect x="294.6" y="240" width="7" height="119" fill="#803E75" stroke="#949494" stroke-width="1"/><text x="366" y="362" font-size="6.5" fill="#231f20" text-anchor="middle" dominant-baseline="text-before-edge">IPC_benchmark</text><rect x="327.6" y="256" width="7" height="103" fill="#f44336" stroke="#949494" stroke-width="1"/><rect x="334.6" y="240" width="7" height="119" fill="#673ab7" stroke="#949494" stroke-width="1"/><rect x="341.6" y="247" width="7" height="112" fill="#009688" stroke="#949494" stroke-width="1"/><rect x="348.6" y="256" width="7" height="103" fill="#4caf50" stroke="#949494" stroke-width="1"/><rect x="355.6" y="245" width="7" height="114" fill="#e91e63" stroke="#949494" stroke-width="1"/><rect x="362.6" y="259" width="7" height="100" fill="#795548" stroke="#949494" stroke-width="1"/><rect x="369.6" y="257" width="7" height="102" fill="#9e9e9e" stroke="#949494" stroke-width="1"/><rect x="376.6" y="253" width="7" height="106" fill="#607d8b" stroke="#949494" stroke-width="1"/><rect x="383.6" y="251" width="7" height="108" fill="#FFB300" stroke="#949494" stroke-width="1"/><rect x="390.6" y="249" width="7" height="110" fill="#803E75" stroke="#949494" stroke-width="1"/><text x="462" y="362" font-size="6.5" fill="#231f20" text-anchor="middle" dominant-baseline="text-before-edge">IPC_benchmark</text><rect x="423.6" y="251" width="7" height="108" fill="#f44336" stroke="#949494" stroke-width="1"/><rect x="430.6" y="245" width="7" height="114" fill="#673ab7" stroke="#949494" stroke-width="1"/><rect x="437.6" y="254" width="7" height="105" fill="#009688" stroke="#949494" stroke-width="1"/><rect x="444.6" y="240" width="7" height="119" fill="#4caf50" stroke="#949494" stroke-width="1"/><rect x="451.6" y="253" width="7" height="106" fill="#e91e63" stroke="#949494" stroke-width="1"/><rect x="458.6" y="253" width="7" height="106" fill="#795548" stroke="#949494" stroke-width="1"/><rect x="465.6" y="246" width="7" height="113" fill="#9e9e9e" stroke="#949494" stroke-width="1"/><rect x="472.6" y="248" width="7" height="111" fill="#607d8b" stroke="#949494" stroke-width="1"/><rect x="479.6" y="243" width="7" height="116" fill="#FFB300" stroke="#949494" stroke-width="1"/><rect x="486.6" y="244" width="7" height="115" fill="#803E75" stroke="#949494" stroke-width="1"/><text x="558" y="362" font-size="6.5" fill="#231f20" text-anchor="middle" dominant-baseline="text-before-edge">IPC_benchmark</text><rect x="519.6" y="253" width="7" height="106" fill="#f44336" stroke="#949494" stroke-width="1"/><rect x="526.6" y="248" width="7" height="111" fill="#673ab7" stroke="#949494" stroke-width="1"/><rect x="533.6" y="252" width="7" height="107" fill="#009688" stroke="#949494" stroke-width="1"/><rect x="540.6" y="242" width="7" height="117" fill="#4caf50" stroke="#949494" stroke-width="1"/><rect x="547.6" y="256" width="7" height="103" fill="#e91e63" stroke="#949494" stroke-width="1"/><rect x="554.6" y="250" width="7" height="109" fill="#795548" stroke="#949494" stroke-width="1"/><rect x="561.6" y="241" width="7" height="118" fill="#9e9e9e" stroke="#949494" stroke-width="1"/><rect x="568.6" y="247" width="7" height="112" fill="#607d8b" stroke="#949494" stroke-width="1"/><rect x="575.6" y="240" width="7" height="119" fill="#FFB300" stroke="#949494" stroke-width="1"/><rect x="582.6" y="244" width="7" height="115" fill="#803E75" stroke="#949494" stroke-width="1"/><text x="654" y="362" font-size="6.5" fill="#231f20" text-anchor="middle" dominant-baseline="text-before-edge">IPC_benchmark</text><rect x="615.6" y="251" width="7" height="108" fill="#f44336" stroke="#949494" stroke-width="1"/><rect x="622.6" y="243" width="7" height="116" fill="#673ab7" stroke="#949494" stroke-width="1"/><rect x="629.6" y="246" width="7" height="113" fill="#009688" stroke="#949494" stroke-width="1"/><rect x="636.6" y="240" width="7" height="119" fill="#4caf50" stroke="#949494" stroke-width="1"/><rect x="643.6" y="246" width="7" height="113" fill="#e91e63" stroke="#949494" stroke-width="1"/><rect x="650.6" y="244" width="7" height="115" fill="#795548" stroke="#949494" stroke-width="1"/><rect x="657.6" y="254" width="7" height="105" fill="#9e9e9e" stroke="#949494" stroke-width="1"/><rect x="664.6" y="245" width="7" height="114" fill="#607d8b" stroke="#949494" stroke-width="1"/><rect x="671.6" y="246" width="7" height="113" fill="#FFB300" stroke="#949494" stroke-width="1"/><rect x="678.6" y="247" width="7" height="112" fill="#803E75" stroke="#949494" stroke-width="1"/><text x="750" y="362" font-size="6.5" fill="#231f20" text-anchor="middle" dominant-baseline="text-before-edge">IPC_benchmark</text><rect x="711.6" y="243" width="7" height="116" fill="#f44336" stroke="#949494" stroke-width="1"/><rect x="718.6" y="253" width="7" height="106" fill="#673ab7" stroke="#949494" stroke-width="1"/><rect x="725.6" y="240" width="7" height="119" fill="#009688" stroke="#949494" stroke-width="1"/><rect x="732.6" y="248" width="7" height="111" fill="#4caf50" stroke="#949494" stroke-width="1"/><rect x="739.6" y="243" width="7" height="116" fill="#e91e63" stroke="#949494" stroke-width="1"/><rect x="746.6" y="244" width="7" height="115" fill="#795548" stroke="#949494" stroke-width="1"/><rect x="753.6" y="259" width="7" height="100" fill="#9e9e9e" stroke="#949494" stroke-width="1"/><rect x="760.6" y="266" width="7" height="93" fill="#607d8b" stroke="#949494" stroke-width="1"/><rect x="767.6" y="251" width="7" height="108" fill="#FFB300" stroke="#949494" stroke-width="1"/><rect x="774.6" y="248" width="7" height="111" fill="#803E75" stroke="#949494" stroke-width="1"/><text x="846" y="362" font-size="6.5" fill="#231f20" text-anchor="middle" dominant-baseline="text-before-edge">IPC_benchmark</text><rect x="807.6" y="259" width="7" height="100" fill="#f44336" stroke="#949494" stroke-width="1"/><rect x="814.6" y="258" width="7" height="101" fill="#673ab7" stroke="#949494" stroke-width="1"/><rect x="821.6" y="266" width="7" height="93" fill="#009688" stroke="#949494" stroke-width="1"/><rect x="828.6" y="260" width="7" height="99" fill="#4caf50" stroke="#949494" stroke-width="1"/><rect x="835.6" y="274" width="7" height="85" fill="#e91e63" stroke="#949494" stroke-width="1"/><rect x="842.6" y="271" width="7" height="88" fill="#795548" stroke="#949494" stroke-width="1"/><rect x="849.6" y="258" width="7" height="101" fill="#9e9e9e" stroke="#949494" stroke-width="1"/><rect x="856.6" y="255" width="7" height="104" fill="#607d8b" stroke="#949494" stroke-width="1"/><rect x="863.6" y="253" width="7" height="106" fill="#FFB300" stroke="#949494" stroke-width="1"/><rect x="870.6" y="240" width="7" height="119" fill="#803E75" stroke="#949494" stroke-width="1"/><text x="942" y="362" font-size="6.5" fill="#231f20" text-anchor="middle" dominant-baseline="text-before-edge">IPC_benchmark</text><rect x="903.6" y="260" width="7" height="99" fill="#f44336" stroke="#949494" stroke-width="1"/><rect x="910.6" y="259" width="7" height="100" fill="#673ab7" stroke="#949494" stroke-width="1"/><rect x="917.6" y="264" width="7" height="95" fill="#009688" stroke="#949494" stroke-width="1"/><rect x="924.6" y="261" width="7" height="98" fill="#4caf50" stroke="#949494" stroke-width="1"/><rect x="931.6" y="270" width="7" height="89" fill="#e91e63" stroke="#949494" stroke-width="1"/><rect x="938.6" y="270" width="7" height="89" fill="#795548" stroke="#949494" stroke-width="1"/><rect x="945.6" y="249" width="7" height="110" fill="#9e9e9e" stroke="#949494" stroke-width="1"/><rect x="952.6" y="259" width="7" height="100" fill="#607d8b" stroke="#949494" stroke-width="1"/><rect x="959.6" y="251" width="7" height="108" fill="#FFB300" stroke="#949494" stroke-width="1"/><rect x="966.6" y="240" width="7" height="119" fill="#803E75" stroke="#949494" stroke-width="1"/><line x1="126" y1="359" x2="950" y2="359" stroke="#757575" stroke-width="10" stroke-dasharray="1,95"/><line x1="30" y1="359" x2="990" y2="359" stroke="#757575" stroke-width="1"/><text x="78" y="497" font-size="6.5" fill="#231f20" text-anchor="middle" dominant-baseline="text-before-edge">IPC_benchmark</text><rect x="39.6" y="389" width="7" height="105" fill="#f44336" stroke="#949494" stroke-width="1"/><rect x="46.6" y="392" width="7" height="102" fill="#673ab7" stroke="#949494" stroke-width="1"/><rect x="53.6" y="399" width="7" height="95" fill="#009688" stroke="#949494" stroke-width="1"/><rect x="60.6" y="393" width="7" height="101" fill="#4caf50" stroke="#949494" stroke-width="1"/><rect x="67.6" y="402" width="7" height="92" fill="#e91e63" stroke="#949494" stroke-width="1"/><rect x="74.6" y="401" width="7" height="93" fill="#795548" stroke="#949494" stroke-width="1"/><rect x="81.6" y="377" width="7" height="117" fill="#9e9e9e" stroke="#949494" stroke-width="1"/><rect x="88.6" y="391" width="7" height="103" fill="#607d8b" stroke="#949494" stroke-width="1"/><rect x="95.6" y="383" width="7" height="111" fill="#FFB300" stroke="#949494" stroke-width="1"/><rect x="102.6" y="375" width="7" height="119" fill="#803E75" stroke="#949494" stroke-width="1"/><text x="174" y="497" font-size="6.5" fill="#231f20" text-anchor="middle" dominant-baseline="text-before-edge">IPC_benchmark</text><rect x="135.6" y="388" width="7" height="106" fill="#f44336" stroke="#949494" stroke-width="1"/><rect x="142.6" y="388" width="7" height="106" fill="#673ab7" stroke="#949494" stroke-width="1"/><rect x="149.6" y="393" width="7" height="101" fill="#009688" stroke="#949494" stroke-width="1"/><rect x="156.6" y="391" width="7" height="103" fill="#4caf50" stroke="#949494" stroke-width="1"/><rect x="163.6" y="400" width="7" height="94" fill="#e91e63" stroke="#949494" stroke-width="1"/><rect x="170.6" y="397" width="7" height="97" fill="#795548" stroke="#949494" stroke-width="1"/><rect x="177.6" y="378" width="7" height="116" fill="#9e9e9e" stroke="#949494" stroke-width="1"/><rect x="184.6" y="385" width="7" height="109" fill="#607d8b" stroke="#949494" stroke-width="1"/><rect x="191.6" y="384" width="7" height="110" fill="#FFB300" stroke="#949494" stroke-width="1"/><rect x="198.6" y="375" width="7" height="119" fill="#803E75" stroke="#949494" stroke-width="1"/><text x="270" y="497" font-size="6.5" fill="#231f20" text-anchor="middle" dominant-baseline="text-before-edge">IPC_benchmark</text><rect x="231.6" y="381" width="7" height="113" fill="#f44336" stroke="#949494" stroke-width="1"/><rect x="238.6" y="388" width="7" height="106" fill="#673ab7" stroke="#949494" stroke-width="1"/><rect x="245.6" y="387" width="7" height="107" fill="#009688" stroke="#949494" stroke-width="1"/><rect x="252.6" y="384" width="7" height="110" fill="#4caf50" stroke="#949494" stroke-width="1"/><rect x="259.6" y="393" width="7" height="101" fill="#e91e63" stroke="#949494" stroke-width="1"/><rect x="266.6" y="393" width="7" height="101" fill="#795548" stroke="#949494" stroke-width="1"/><rect x="273.6" y="380" width="7" height="114" fill="#9e9e9e" stroke="#949494" stroke-width="1"/><rect x="280.6" y="383" width="7" height="111" fill="#607d8b" stroke="#949494" stroke-width="1"/><rect x="287.6" y="384" width="7" height="110" fill="#FFB300" stroke="#949494" stroke-width="1"/><rect x="294.6" y="375" width="7" height="119" fill="#803E75" stroke="#949494" stroke-width="1"/><text x="366" y="497" font-size="6.5" fill="#231f20" text-anchor="middle" dominant-baseline="text-before-edge">IPC_benchmark</text><rect x="327.6" y="382" width="7" height="112" fill="#f44336" stroke="#949494" stroke-width="1"/><rect x="334.6" y="387" width="7" height="107" fill="#673ab7" stroke="#949494" stroke-width="1"/><rect x="341.6" y="391" width="7" height="103" fill="#009688" stroke="#949494" stroke-width="1"/><rect x="348.6" y="386" width="7" height="108" fill="#4caf50" stroke="#949494" stroke-width="1"/><rect x="355.6" y="397" width="7" height="97" fill="#e91e63" stroke="#949494" stroke-width="1"/><rect x="362.6" y="394" width="7" height="100" fill="#795548" stroke="#949494" stroke-width="1"/><rect x="369.6" y="380" width="7" height="114" fill="#9e9e9e" stroke="#949494" stroke-width="1"/><rect x="376.6" y="386" width="7" height="108" fill="#607d8b" stroke="#949494" stroke-width="1"/><rect x="383.6" y="385" width="7" height="109" fill="#FFB300" stroke="#949494" stroke-width="1"/><rect x="390.6" y="375" width="7" height="119" fill="#803E75" stroke="#949494" stroke-width="1"/><text x="495" y="19" font-size="17" fill="#231f20" text-anchor="middle">ipc</text><text x="990" y="100.66666666667" font-size="7" fill="#949494" text-anchor="end">Phoronix Test Suite 10.4.0</text></svg>
