<?xml version="1.0"?>
<!DOCTYPE svg PUBLIC "-//W3C//DTD SVG 1.1//EN" "http://www.w3.org/Graphics/SVG/1.1/DTD/svg11.dtd">
<!--Phoronix Test Suite v10.4.0 [ http://www.phoronix-test-suite.com/ ]-->
<svg xmlns="http://www.w3.org/2000/svg" xmlns:xlink="http://www.w3.org/1999/xlink" version="1.1" font-family="sans-serif, droid-sans, helvetica, verdana, tahoma" viewbox="0 0 900 980" width="900" height="980" preserveAspectRatio="xMinYMin meet"><rect x="0" y="0" width="900" height="980" fill="#FEFEFE"/><g stroke="#757575" stroke-width="1"><rect x="166.6" y="52" width="10" height="10" fill="#f44336"/><rect x="337.6" y="52" width="10" height="10" fill="#673ab7"/><rect x="508.6" y="52" width="10" height="10" fill="#009688"/></g><g font-size="9" text-anchor="start" font-weight="bold"><text x="179.6" y="61" fill="#f44336">apparmor-passive</text><text x="350.6" y="61" fill="#673ab7">apparmor-allow</text><text x="521.6" y="61" fill="#009688">apparmor-complaining</text></g><path d="m74 22v9m-5-16v16m-5-28v28m-23-2h12.5c2.485281 0 4.5-2.014719 4.5-4.5s-2.014719-4.5-4.5-4.5h-8c-2.485281 0-4.5-2.014719-4.5-4.5s2.014719-4.5 4.5-4.5h12.5m-21 5h-11m11 13h-2c-4.970563 0-9-4.029437-9-9v-20m-24 40v-20c0-4.970563 4.0294373-9 9-9 4.970563 0 9 4.029437 9 9s-4.029437 9-9 9h-9" stroke="#231f20" stroke-width="4" fill="none" transform="translate(10,2)"/><text x="100" y="21" font-size="17" fill="#231f20" text-anchor="start">Result Overview</text><a xlink:href="http://www.phoronix-test-suite.com/" target="_blank"><text x="100" y="33" font-size="9" fill="#231f20" text-anchor="start">Phoronix Test Suite 10.4.0</text></a><g font-size="10" fill="#757575"/><g font-size="9" fill="#949494" text-anchor="middle"><text x="450" y="656" dominant-baseline="hanging">100%</text><text x="450" y="704" dominant-baseline="hanging">139%</text><text x="450" y="751" dominant-baseline="hanging">177%</text><text x="450" y="799" dominant-baseline="hanging">216%</text><text x="450" y="847" dominant-baseline="hanging">255%</text></g><g font-size="10.5" fill="#757575" font-weight="800" dominant-baseline="text-after-edge"><text x="775" y="530" text-anchor="start">OSBench</text><text x="655" y="783" text-anchor="start">OSBench</text><text x="378" y="847" text-anchor="end">Timed Linux Kernel Compilation</text><text x="159" y="673" text-anchor="end">Apache Benchmark</text><text x="159" y="383" text-anchor="end">OSBench</text><text x="378" y="209" text-anchor="end">OSBench</text><text x="655" y="273" text-anchor="start">OSBench</text></g><g font-size="10" fill="#757575" dominant-baseline="text-after-edge"><text x="775" y="540" text-anchor="start">Create Files</text><text x="655" y="793" text-anchor="start">Launch Programs</text><text x="378" y="857" text-anchor="end">Time To Compile</text><text x="159" y="683" text-anchor="end">S.W.P.S</text><text x="159" y="398" text-anchor="end">Create Processes</text><text x="378" y="224" text-anchor="end">Memory Allocations</text><text x="655" y="288" text-anchor="start">Create Threads</text></g><circle stroke="#949494" stroke-width="1" stroke-dasharray="10,10,10" cx="450" cy="530" r="124" fill="transparent"/><circle stroke="#949494" stroke-width="1" stroke-dasharray="10,10,10" cx="450" cy="530" r="172" fill="transparent"/><circle stroke="#949494" stroke-width="1" stroke-dasharray="10,10,10" cx="450" cy="530" r="219" fill="transparent"/><circle stroke="#949494" stroke-width="1" stroke-dasharray="10,10,10" cx="450" cy="530" r="267" fill="transparent"/><circle stroke="#949494" stroke-width="1" stroke-dasharray="10,10,10" cx="450" cy="530" r="315" fill="transparent"/><line x1="765" y1="530" x2="562" y2="669" stroke="#f44336" stroke-width="3"/><line x1="744" y1="530" x2="562" y2="668" stroke="#673ab7" stroke-width="3"/><line x1="574" y1="530" x2="528" y2="626" stroke="#009688" stroke-width="3"/><line x1="562" y1="669" x2="416" y2="677" stroke="#f44336" stroke-width="3"/><line x1="562" y1="668" x2="416" y2="676" stroke="#673ab7" stroke-width="3"/><line x1="528" y1="626" x2="422" y2="651" stroke="#009688" stroke-width="3"/><line x1="416" y1="677" x2="336" y2="586" stroke="#f44336" stroke-width="3"/><line x1="416" y1="676" x2="336" y2="586" stroke="#673ab7" stroke-width="3"/><line x1="422" y1="651" x2="339" y2="584" stroke="#009688" stroke-width="3"/><line x1="336" y1="586" x2="339" y2="476" stroke="#f44336" stroke-width="3"/><line x1="336" y1="586" x2="338" y2="476" stroke="#673ab7" stroke-width="3"/><line x1="339" y1="584" x2="338" y2="475" stroke="#009688" stroke-width="3"/><line x1="339" y1="476" x2="422" y2="409" stroke="#f44336" stroke-width="3"/><line x1="338" y1="476" x2="422" y2="409" stroke="#673ab7" stroke-width="3"/><line x1="338" y1="475" x2="422" y2="409" stroke="#009688" stroke-width="3"/><line x1="422" y1="409" x2="528" y2="434" stroke="#f44336" stroke-width="3"/><line x1="422" y1="409" x2="528" y2="434" stroke="#673ab7" stroke-width="3"/><line x1="422" y1="409" x2="528" y2="434" stroke="#009688" stroke-width="3"/><line x1="528" y1="434" x2="765" y2="530" stroke="#f44336" stroke-width="2"/><line x1="528" y1="434" x2="744" y2="530" stroke="#673ab7" stroke-width="2"/><line x1="528" y1="434" x2="574" y2="530" stroke="#009688" stroke-width="2"/></svg>
