<?xml version="1.0"?>
<!DOCTYPE svg PUBLIC "-//W3C//DTD SVG 1.1//EN" "http://www.w3.org/Graphics/SVG/1.1/DTD/svg11.dtd">
<!--Phoronix Test Suite v10.4.0 [ http://www.phoronix-test-suite.com/ ]-->
<svg xmlns="http://www.w3.org/2000/svg" xmlns:xlink="http://www.w3.org/1999/xlink" version="1.1" font-family="sans-serif, droid-sans, helvetica, verdana, tahoma" viewbox="0 0 900 980" width="900" height="980" preserveAspectRatio="xMinYMin meet"><rect x="0" y="0" width="900" height="980" fill="#FEFEFE"/><g stroke="#757575" stroke-width="1"><rect x="166.6" y="52" width="10" height="10" fill="#f44336"/><rect x="352.6" y="52" width="10" height="10" fill="#673ab7"/><rect x="538.6" y="52" width="10" height="10" fill="#009688"/></g><g font-size="9" text-anchor="start" font-weight="bold"><text x="179.6" y="61" fill="#f44336">bpfcontain-passive</text><text x="365.6" y="61" fill="#673ab7">bpfcontain-allow</text><text x="551.6" y="61" fill="#009688">bpfcontain-complaining</text></g><path d="m74 22v9m-5-16v16m-5-28v28m-23-2h12.5c2.485281 0 4.5-2.014719 4.5-4.5s-2.014719-4.5-4.5-4.5h-8c-2.485281 0-4.5-2.014719-4.5-4.5s2.014719-4.5 4.5-4.5h12.5m-21 5h-11m11 13h-2c-4.970563 0-9-4.029437-9-9v-20m-24 40v-20c0-4.970563 4.0294373-9 9-9 4.970563 0 9 4.029437 9 9s-4.029437 9-9 9h-9" stroke="#231f20" stroke-width="4" fill="none" transform="translate(10,2)"/><text x="100" y="21" font-size="17" fill="#231f20" text-anchor="start">Result Overview</text><a xlink:href="http://www.phoronix-test-suite.com/" target="_blank"><text x="100" y="33" font-size="9" fill="#231f20" text-anchor="start">Phoronix Test Suite 10.4.0</text></a><g font-size="10" fill="#757575"/><g font-size="9" fill="#949494" text-anchor="middle"><text x="450" y="798" dominant-baseline="hanging">100%</text><text x="450" y="810" dominant-baseline="hanging">105%</text><text x="450" y="822" dominant-baseline="hanging">109%</text><text x="450" y="835" dominant-baseline="hanging">114%</text><text x="450" y="847" dominant-baseline="hanging">119%</text></g><g font-size="10.5" fill="#757575" font-weight="800" dominant-baseline="text-after-edge"><text x="775" y="530" text-anchor="start">OSBench</text><text x="655" y="783" text-anchor="start">Apache Benchmark</text><text x="378" y="847" text-anchor="end">OSBench</text><text x="159" y="673" text-anchor="end">OSBench</text><text x="159" y="383" text-anchor="end">OSBench</text><text x="378" y="209" text-anchor="end">Timed Linux Kernel Compilation</text><text x="655" y="273" text-anchor="start">OSBench</text></g><g font-size="10" fill="#757575" dominant-baseline="text-after-edge"><text x="775" y="540" text-anchor="start">Create Files</text><text x="655" y="793" text-anchor="start">S.W.P.S</text><text x="378" y="857" text-anchor="end">Create Threads</text><text x="159" y="683" text-anchor="end">Create Processes</text><text x="159" y="398" text-anchor="end">Launch Programs</text><text x="378" y="224" text-anchor="end">Time To Compile</text><text x="655" y="288" text-anchor="start">Memory Allocations</text></g><circle stroke="#949494" stroke-width="1" stroke-dasharray="10,10,10" cx="450" cy="530" r="266" fill="transparent"/><circle stroke="#949494" stroke-width="1" stroke-dasharray="10,10,10" cx="450" cy="530" r="278" fill="transparent"/><circle stroke="#949494" stroke-width="1" stroke-dasharray="10,10,10" cx="450" cy="530" r="290" fill="transparent"/><circle stroke="#949494" stroke-width="1" stroke-dasharray="10,10,10" cx="450" cy="530" r="303" fill="transparent"/><circle stroke="#949494" stroke-width="1" stroke-dasharray="10,10,10" cx="450" cy="530" r="315" fill="transparent"/><line x1="765" y1="530" x2="646" y2="772" stroke="#f44336" stroke-width="3"/><line x1="717" y1="530" x2="638" y2="763" stroke="#673ab7" stroke-width="3"/><line x1="716" y1="530" x2="617" y2="736" stroke="#009688" stroke-width="3"/><line x1="646" y1="772" x2="380" y2="832" stroke="#f44336" stroke-width="3"/><line x1="638" y1="763" x2="390" y2="790" stroke="#673ab7" stroke-width="3"/><line x1="617" y1="736" x2="390" y2="789" stroke="#009688" stroke-width="3"/><line x1="380" y1="832" x2="193" y2="655" stroke="#f44336" stroke-width="3"/><line x1="390" y1="790" x2="210" y2="647" stroke="#673ab7" stroke-width="3"/><line x1="390" y1="789" x2="211" y2="646" stroke="#009688" stroke-width="3"/><line x1="193" y1="655" x2="196" y2="406" stroke="#f44336" stroke-width="3"/><line x1="210" y1="647" x2="208" y2="412" stroke="#673ab7" stroke-width="3"/><line x1="211" y1="646" x2="211" y2="414" stroke="#009688" stroke-width="3"/><line x1="196" y1="406" x2="388" y2="262" stroke="#f44336" stroke-width="3"/><line x1="208" y1="412" x2="390" y2="268" stroke="#673ab7" stroke-width="3"/><line x1="211" y1="414" x2="390" y2="271" stroke="#009688" stroke-width="3"/><line x1="388" y1="262" x2="617" y2="324" stroke="#f44336" stroke-width="3"/><line x1="390" y1="268" x2="621" y2="319" stroke="#673ab7" stroke-width="3"/><line x1="390" y1="271" x2="618" y2="322" stroke="#009688" stroke-width="3"/><line x1="617" y1="324" x2="765" y2="530" stroke="#f44336" stroke-width="2"/><line x1="621" y1="319" x2="717" y2="530" stroke="#673ab7" stroke-width="2"/><line x1="618" y1="322" x2="716" y2="530" stroke="#009688" stroke-width="2"/></svg>
