<?xml version="1.0"?>
<!DOCTYPE svg PUBLIC "-//W3C//DTD SVG 1.1//EN" "http://www.w3.org/Graphics/SVG/1.1/DTD/svg11.dtd">
<!--Phoronix Test Suite v10.4.0 [ http://www.phoronix-test-suite.com/ ]-->
<svg xmlns="http://www.w3.org/2000/svg" xmlns:xlink="http://www.w3.org/1999/xlink" version="1.1" font-family="sans-serif, droid-sans, helvetica, verdana, tahoma" viewbox="0 0 470 541" width="470" height="541" preserveAspectRatio="xMinYMin meet"><rect x="0" y="0" width="470" height="541" fill="#FEFEFE"/><text x="235" y="19" font-size="17" fill="#231f20" text-anchor="middle" font-weight="bold">bpfcontain-new </text><text x="4" y="36" font-size="8" fill="#231f20" text-anchor="start" font-weight="bold">Phoronix Test Suite 10.4.0</text><text x="466" y="36" font-size="8" fill="#231f20" text-anchor="end" font-weight="bold">Phoronix Test Suite 10.4.0</text><g fill="#949494"><rect x="0" y="55" width="470" height="16"/><rect x="0" y="87" width="470" height="16"/><rect x="0" y="119" width="470" height="16"/><rect x="0" y="151" width="470" height="16"/><rect x="0" y="183" width="470" height="16"/><rect x="0" y="215" width="470" height="16"/><rect x="0" y="247" width="470" height="16"/></g><g fill="none" stroke-width="1" stroke="#005a00"/><g font-size="10" fill="#065695" text-anchor="middle" font-weight="bold"><a xlink:href="http://openbenchmarking.org/s/Intel Core i7-10875H @ 2.30GHz (8 Cores)" target="_blank"><text x="235" y="52">Intel Core i7-10875H @ 2.30GHz (8 Cores)</text></a><a xlink:href="http://openbenchmarking.org/s/System76 Oryx Pro (2020-10-19_d5deed5 BIOS)" target="_blank"><text x="235" y="68">System76 Oryx Pro (2020-10-19_d5deed5 BIOS)</text></a><text x="235" y="84">Intel Comet Lake PCH</text><text x="235" y="100">32GB</text><a xlink:href="http://openbenchmarking.org/s/1000GB Samsung SSD 970 EVO Plus 1TB" target="_blank"><text x="235" y="116">1000GB Samsung SSD 970 EVO Plus 1TB</text></a><a xlink:href="http://openbenchmarking.org/s/Intel UHD" target="_blank"><text x="235" y="132">Intel UHD</text></a><a xlink:href="http://openbenchmarking.org/s/Realtek ALC1220" target="_blank"><text x="235" y="148">Realtek ALC1220</text></a><text x="235" y="164">Realtek RTL8111/8168/8411 + Intel Comet Lake PCH CNVi WiFi</text><a xlink:href="http://openbenchmarking.org/s/Arch Linux" target="_blank"><text x="235" y="180">Arch Linux</text></a><text x="235" y="196">5.12.9-arch1-1 (x86_64)</text><text x="235" y="212">NVIDIA</text><a xlink:href="http://openbenchmarking.org/s/GCC 11.1.0 + Clang 12.0.0" target="_blank"><text x="235" y="228">GCC 11.1.0 + Clang 12.0.0</text></a><text x="235" y="244">overlayfs</text><text x="235" y="260">1920x1080</text><text x="235" y="276">docker</text></g><g font-size="7" fill="#065695" text-anchor="end"><text x="466" y="48">Processor</text><text x="466" y="64">Motherboard</text><text x="466" y="80">Chipset</text><text x="466" y="96">Memory</text><text x="466" y="112">Disk</text><text x="466" y="128">Graphics</text><text x="466" y="144">Audio</text><text x="466" y="160">Network</text><text x="466" y="176">OS</text><text x="466" y="192">Kernel</text><text x="466" y="208">Display Driver</text><text x="466" y="224">Compiler</text><text x="466" y="240">File-System</text><text x="466" y="256">Screen Resolution</text><text x="466" y="272">System Layer</text></g><g stroke="#757575" stroke-width="1"><line x1="0" y1="39" x2="470" y2="39"/><line x1="0" y1="55" x2="470" y2="55"/><line x1="0" y1="71" x2="470" y2="71"/><line x1="0" y1="87" x2="470" y2="87"/><line x1="0" y1="103" x2="470" y2="103"/><line x1="0" y1="119" x2="470" y2="119"/><line x1="0" y1="135" x2="470" y2="135"/><line x1="0" y1="151" x2="470" y2="151"/><line x1="0" y1="167" x2="470" y2="167"/><line x1="0" y1="183" x2="470" y2="183"/><line x1="0" y1="199" x2="470" y2="199"/><line x1="0" y1="215" x2="470" y2="215"/><line x1="0" y1="231" x2="470" y2="231"/><line x1="0" y1="247" x2="470" y2="247"/><line x1="0" y1="263" x2="470" y2="263"/></g><rect x="1" y="279" width="468" height="262" fill="#FEFEFE"/><text x="4" y="300" font-size="9" fill="#231f20" text-anchor="start">- Transparent Huge Pages: madvise</text><text x="4" y="312" font-size="9" fill="#231f20" text-anchor="start"><tspan x="4" y="312" dx="0" dy="0">- --disable-libssp --disable-libstdcxx-pch --disable-libunwind-exceptions</tspan><tspan x="4" y="312" dx="5" dy="10"> --disable-werror --enable-__cxa_atexit --enable-cet=auto --enable-checking=release</tspan><tspan x="4" y="312" dx="5" dy="20"> --enable-clocale=gnu --enable-default-pie --enable-default-ssp</tspan><tspan x="4" y="312" dx="5" dy="30"> --enable-gnu-indirect-function --enable-gnu-unique-object</tspan><tspan x="4" y="312" dx="5" dy="40"> --enable-install-libiberty</tspan><tspan x="4" y="312" dx="5" dy="50"> --enable-languages=c,c++,ada,fortran,go,lto,objc,obj-c++,d --enable-lto</tspan><tspan x="4" y="312" dx="5" dy="60"> --enable-multilib --enable-plugin --enable-shared --enable-threads=posix</tspan><tspan x="4" y="312" dx="5" dy="70"> --mandir=/usr/share/man --with-isl --with-linker-hash-style=gnu </tspan></text><text x="4" y="400" font-size="9" fill="#231f20" text-anchor="start">- Scaling Governor: intel_pstate performance - CPU Microcode: 0xc8</text><text x="4" y="412" font-size="9" fill="#231f20" text-anchor="start"><tspan x="4" y="412" dx="0" dy="0">- itlb_multihit: KVM: Mitigation of VMX disabled + l1tf: Not affected + mds: Not</tspan><tspan x="4" y="412" dx="5" dy="10"> affected + meltdown: Not affected + spec_store_bypass: Mitigation of SSB disabled</tspan><tspan x="4" y="412" dx="5" dy="20"> via prctl and seccomp + spectre_v1: Mitigation of usercopy/swapgs barriers and</tspan><tspan x="4" y="412" dx="5" dy="30"> __user pointer sanitization + spectre_v2: Mitigation of Enhanced IBRS IBPB:</tspan><tspan x="4" y="412" dx="5" dy="40"> conditional RSB filling + srbds: Not affected + tsx_async_abort: Not affected </tspan></text></svg>
