<?xml version="1.0"?>
<!DOCTYPE svg PUBLIC "-//W3C//DTD SVG 1.1//EN" "http://www.w3.org/Graphics/SVG/1.1/DTD/svg11.dtd">
<!--Phoronix Test Suite v10.4.0 [ http://www.phoronix-test-suite.com/ ]-->
<svg xmlns="http://www.w3.org/2000/svg" xmlns:xlink="http://www.w3.org/1999/xlink" version="1.1" font-family="sans-serif, droid-sans, helvetica, verdana, tahoma" viewbox="0 0 600 184" width="600" height="184" preserveAspectRatio="xMinYMin meet"><rect x="0" y="0" width="600" height="184" fill="#FEFEFE"/><g stroke="#757575" stroke-width="1"><line x1="115" y1="64" x2="115" y2="111"/><line x1="115" y1="110" x2="586" y2="110"/></g><text x="585" y="59" font-size="8" fill="#065695" text-anchor="end" font-weight="bold">Phoronix Test Suite 10.4.0</text><polygon points="115,56 124,61 124,51" fill="#065695" stroke="#949494" stroke-width="1"/><text x="127" y="59" font-size="8" font-weight="bold" fill="#065695" text-anchor="start">us Per Event, Fewer Is Better</text><a xlink:href="https://openbenchmarking.org/test/pts/osbench" target="_blank"><text x="6" y="19" font-size="17" fill="#231f20" text-anchor="start" font-weight="bold">OSBench</text></a><text x="6" y="36" font-size="11" font-weight="bold" fill="#231f20" text-anchor="start">Test: Create Processes</text><path d="m74 22v9m-5-16v16m-5-28v28m-23-2h12.5c2.485281 0 4.5-2.014719 4.5-4.5s-2.014719-4.5-4.5-4.5h-8c-2.485281 0-4.5-2.014719-4.5-4.5s2.014719-4.5 4.5-4.5h12.5m-21 5h-11m11 13h-2c-4.970563 0-9-4.029437-9-9v-20m-24 40v-20c0-4.970563 4.0294373-9 9-9 4.970563 0 9 4.029437 9 9s-4.029437 9-9 9h-9" stroke="#231f20" stroke-width="4" fill="none" transform="translate(508,4)"/><g font-size="11" fill="#231f20" font-weight="bold"><text x="110" y="85" text-anchor="end">base</text></g><g font-size="10" fill="#065695" text-anchor="middle"><text x="195" y="125">9</text><text x="273" y="125">18</text><text x="351" y="125">27</text><text x="429" y="125">36</text><text x="507" y="125">45</text></g><g stroke="#BABABA" stroke-width="1"><line x1="195" y1="64" x2="195" y2="105" stroke-dasharray="5,5"/><line x1="195" y1="106" x2="195" y2="115"/><line x1="273" y1="64" x2="273" y2="105" stroke-dasharray="5,5"/><line x1="273" y1="106" x2="273" y2="115"/><line x1="351" y1="64" x2="351" y2="105" stroke-dasharray="5,5"/><line x1="351" y1="106" x2="351" y2="115"/><line x1="429" y1="64" x2="429" y2="105" stroke-dasharray="5,5"/><line x1="429" y1="106" x2="429" y2="115"/><line x1="507" y1="64" x2="507" y2="105" stroke-dasharray="5,5"/><line x1="507" y1="106" x2="507" y2="115"/></g><g stroke="#949494" stroke-width="1"><rect x="115" y="70" height="34" width="336" fill="#2196f3"/></g><g font-size="8" fill="#065695" text-anchor="end"><text y="101" x="110">SE +/- 0.11, N = 10</text></g><g font-size="10" fill="#FFFFFF" font-weight="bold" text-anchor="end"><text x="446" y="93">38.65</text></g><text x="5" y="150" font-size="8" fill="#231f20" text-anchor="start">1. (CC) gcc options: -lm</text></svg>
