<?xml version="1.0"?>
<!DOCTYPE svg PUBLIC "-//W3C//DTD SVG 1.1//EN" "http://www.w3.org/Graphics/SVG/1.1/DTD/svg11.dtd">
<!--Phoronix Test Suite v10.4.0 [ http://www.phoronix-test-suite.com/ ]-->
<svg xmlns="http://www.w3.org/2000/svg" xmlns:xlink="http://www.w3.org/1999/xlink" version="1.1" font-family="sans-serif, droid-sans, helvetica, verdana, tahoma" viewbox="0 0 600 498" width="600" height="498" preserveAspectRatio="xMinYMin meet"><rect x="0" y="0" width="600" height="498" fill="#FEFEFE"/><g stroke="#757575" stroke-width="1"><line x1="191" y1="64" x2="191" y2="425"/><line x1="191" y1="424" x2="586" y2="424"/></g><text x="585" y="59" font-size="8" fill="#065695" text-anchor="end" font-weight="bold">Phoronix Test Suite 10.4.0</text><polygon points="191,56 200,61 200,51" fill="#065695" stroke="#949494" stroke-width="1"/><text x="203" y="59" font-size="8" font-weight="bold" fill="#065695" text-anchor="start">us Per Event, Fewer Is Better</text><a xlink:href="https://openbenchmarking.org/test/pts/osbench" target="_blank"><text x="6" y="19" font-size="17" fill="#231f20" text-anchor="start" font-weight="bold">OSBench</text></a><text x="6" y="36" font-size="11" font-weight="bold" fill="#231f20" text-anchor="start">Test: Launch Programs</text><path d="m74 22v9m-5-16v16m-5-28v28m-23-2h12.5c2.485281 0 4.5-2.014719 4.5-4.5s-2.014719-4.5-4.5-4.5h-8c-2.485281 0-4.5-2.014719-4.5-4.5s2.014719-4.5 4.5-4.5h12.5m-21 5h-11m11 13h-2c-4.970563 0-9-4.029437-9-9v-20m-24 40v-20c0-4.970563 4.0294373-9 9-9 4.970563 0 9 4.029437 9 9s-4.029437 9-9 9h-9" stroke="#231f20" stroke-width="4" fill="none" transform="translate(508,4)"/><line x1="191" y1="100" x2="191" y2="394" stroke="#757575" stroke-width="11" stroke-dasharray="1,35"/><g font-size="11" fill="#231f20" font-weight="bold"><text x="186" y="80" text-anchor="end">base</text><text x="186" y="116" text-anchor="end">apparmor-passive</text><text x="186" y="152" text-anchor="end">apparmor-allow</text><text x="186" y="188" text-anchor="end">apparmor-complaining</text><text x="186" y="224" text-anchor="end">bpfbox-passive</text><text x="186" y="260" text-anchor="end">bpfbox-allow</text><text x="186" y="296" text-anchor="end">bpfbox-complaining</text><text x="186" y="332" text-anchor="end">bpfcontain-passive</text><text x="186" y="368" text-anchor="end">bpfcontain-allow</text><text x="186" y="404" text-anchor="end">bpfcontain-complaining</text></g><g font-size="10" fill="#065695" text-anchor="middle"><text x="259" y="439">20</text><text x="325" y="439">40</text><text x="391" y="439">60</text><text x="457" y="439">80</text><text x="523" y="439">100</text></g><g stroke="#BABABA" stroke-width="1"><line x1="259" y1="64" x2="259" y2="419" stroke-dasharray="5,5"/><line x1="259" y1="420" x2="259" y2="429"/><line x1="325" y1="64" x2="325" y2="419" stroke-dasharray="5,5"/><line x1="325" y1="420" x2="325" y2="429"/><line x1="391" y1="64" x2="391" y2="419" stroke-dasharray="5,5"/><line x1="391" y1="420" x2="391" y2="429"/><line x1="457" y1="64" x2="457" y2="419" stroke-dasharray="5,5"/><line x1="457" y1="420" x2="457" y2="429"/><line x1="523" y1="64" x2="523" y2="419" stroke-dasharray="5,5"/><line x1="523" y1="420" x2="523" y2="429"/></g><g stroke="#949494" stroke-width="1"><rect x="191" y="70" height="24" width="202" fill="#2196f3"/><rect x="191" y="106" height="24" width="206" fill="#2196f3"/><rect x="191" y="142" height="24" width="207" fill="#2196f3"/><rect x="191" y="178" height="24" width="297" fill="#2196f3"/><rect x="191" y="214" height="24" width="208" fill="#2196f3"/><rect x="191" y="250" height="24" width="208" fill="#2196f3"/><rect x="191" y="286" height="24" width="214" fill="#2196f3"/><rect x="191" y="322" height="24" width="207" fill="#2196f3"/><rect x="191" y="358" height="24" width="214" fill="#2196f3"/><rect x="191" y="394" height="24" width="216" fill="#2196f3"/></g><g font-size="8" fill="#065695" text-anchor="end"><text y="94" x="186">SE +/- 0.06, N = 10</text><text y="130" x="186">SE +/- 0.08, N = 10</text><text y="166" x="186">SE +/- 0.06, N = 10</text><text y="202" x="186">SE +/- 0.62, N = 10</text><text y="238" x="186">SE +/- 0.09, N = 10</text><text y="274" x="186">SE +/- 0.13, N = 10</text><text y="310" x="186">SE +/- 0.15, N = 10</text><text y="346" x="186">SE +/- 0.09, N = 10</text><text y="382" x="186">SE +/- 0.12, N = 10</text><text y="418" x="186">SE +/- 0.10, N = 10</text></g><g font-size="10" fill="#FFFFFF" font-weight="bold" text-anchor="end"><text x="388" y="88">61.67</text><text x="392" y="124">62.84</text><text x="393" y="160">63.17</text><text x="483" y="196">90.56</text><text x="394" y="232">63.30</text><text x="394" y="268">63.44</text><text x="400" y="304">65.22</text><text x="393" y="340">63.12</text><text x="400" y="376">65.05</text><text x="402" y="412">65.66</text></g><text x="5" y="464" font-size="8" fill="#231f20" text-anchor="start">1. (CC) gcc options: -lm</text></svg>
