<?xml version="1.0"?>
<!DOCTYPE svg PUBLIC "-//W3C//DTD SVG 1.1//EN" "http://www.w3.org/Graphics/SVG/1.1/DTD/svg11.dtd">
<!--Phoronix Test Suite v10.4.0 [ http://www.phoronix-test-suite.com/ ]-->
<svg xmlns="http://www.w3.org/2000/svg" xmlns:xlink="http://www.w3.org/1999/xlink" version="1.1" font-family="sans-serif, droid-sans, helvetica, verdana, tahoma" viewbox="0 0 600 496" width="600" height="496" preserveAspectRatio="xMinYMin meet"><rect x="0" y="0" width="600" height="496" fill="#FEFEFE"/><g stroke="#757575" stroke-width="1"><line x1="191" y1="64" x2="191" y2="425"/><line x1="191" y1="424" x2="586" y2="424"/></g><text x="585" y="59" font-size="8" fill="#065695" text-anchor="end" font-weight="bold">Phoronix Test Suite 10.4.0</text><polygon points="200,56 191,61 191,51" fill="#065695" stroke="#949494" stroke-width="1"/><text x="203" y="59" font-size="8" font-weight="bold" fill="#065695" text-anchor="start">Requests Per Second, More Is Better</text><a xlink:href="https://openbenchmarking.org/test/pts/apache" target="_blank"><text x="6" y="19" font-size="17" fill="#231f20" text-anchor="start" font-weight="bold">Apache Benchmark 2.4.29</text></a><text x="6" y="36" font-size="11" font-weight="bold" fill="#231f20" text-anchor="start">Static Web Page Serving</text><path d="m74 22v9m-5-16v16m-5-28v28m-23-2h12.5c2.485281 0 4.5-2.014719 4.5-4.5s-2.014719-4.5-4.5-4.5h-8c-2.485281 0-4.5-2.014719-4.5-4.5s2.014719-4.5 4.5-4.5h12.5m-21 5h-11m11 13h-2c-4.970563 0-9-4.029437-9-9v-20m-24 40v-20c0-4.970563 4.0294373-9 9-9 4.970563 0 9 4.029437 9 9s-4.029437 9-9 9h-9" stroke="#231f20" stroke-width="4" fill="none" transform="translate(508,4)"/><line x1="191" y1="100" x2="191" y2="396" stroke="#757575" stroke-width="11" stroke-dasharray="1,35"/><g font-size="11" fill="#231f20" font-weight="bold"><text x="186" y="80" text-anchor="end">base</text><text x="186" y="116" text-anchor="end">apparmor-passive</text><text x="186" y="152" text-anchor="end">apparmor-allow</text><text x="186" y="188" text-anchor="end">apparmor-complaining</text><text x="186" y="224" text-anchor="end">bpfbox-passive</text><text x="186" y="260" text-anchor="end">bpfbox-allow</text><text x="186" y="296" text-anchor="end">bpfbox-complaining</text><text x="186" y="332" text-anchor="end">bpfcontain-passive</text><text x="186" y="368" text-anchor="end">bpfcontain-allow</text><text x="186" y="404" text-anchor="end">bpfcontain-complaining</text></g><g font-size="10" fill="#065695" text-anchor="middle"><text x="259" y="439">4K</text><text x="325" y="439">8K</text><text x="391" y="439">12K</text><text x="457" y="439">16K</text><text x="523" y="439">20K</text></g><g stroke="#BABABA" stroke-width="1"><line x1="259" y1="64" x2="259" y2="419" stroke-dasharray="5,5"/><line x1="259" y1="420" x2="259" y2="429"/><line x1="325" y1="64" x2="325" y2="419" stroke-dasharray="5,5"/><line x1="325" y1="420" x2="325" y2="429"/><line x1="391" y1="64" x2="391" y2="419" stroke-dasharray="5,5"/><line x1="391" y1="420" x2="391" y2="429"/><line x1="457" y1="64" x2="457" y2="419" stroke-dasharray="5,5"/><line x1="457" y1="420" x2="457" y2="429"/><line x1="523" y1="64" x2="523" y2="419" stroke-dasharray="5,5"/><line x1="523" y1="420" x2="523" y2="429"/></g><g stroke="#949494" stroke-width="1"><rect x="191" y="70" height="24" width="338" fill="#2196f3"/><rect x="191" y="106" height="24" width="334" fill="#2196f3"/><rect x="191" y="142" height="24" width="333" fill="#2196f3"/><rect x="191" y="178" height="24" width="325" fill="#2196f3"/><rect x="191" y="214" height="24" width="327" fill="#2196f3"/><rect x="191" y="250" height="24" width="320" fill="#2196f3"/><rect x="191" y="286" height="24" width="331" fill="#2196f3"/><rect x="191" y="322" height="24" width="321" fill="#2196f3"/><rect x="191" y="358" height="24" width="311" fill="#2196f3"/><rect x="191" y="394" height="24" width="300" fill="#2196f3"/></g><g font-size="8" fill="#065695" text-anchor="end"><text y="94" x="186">SE +/- 89.16, N = 10</text><text y="130" x="186">SE +/- 104.88, N = 10</text><text y="166" x="186">SE +/- 20.33, N = 10</text><text y="202" x="186">SE +/- 94.32, N = 10</text><text y="238" x="186">SE +/- 73.88, N = 10</text><text y="274" x="186">SE +/- 80.26, N = 10</text><text y="310" x="186">SE +/- 32.12, N = 10</text><text y="346" x="186">SE +/- 100.55, N = 10</text><text y="382" x="186">SE +/- 94.62, N = 10</text><text y="418" x="186">SE +/- 50.60, N = 10</text></g><g font-size="10" fill="#FFFFFF" font-weight="bold" text-anchor="end"><text x="524" y="88">20576.49</text><text x="520" y="124">20363.42</text><text x="519" y="160">20276.95</text><text x="511" y="196">19827.05</text><text x="513" y="232">19946.04</text><text x="506" y="268">19465.86</text><text x="517" y="304">20139.10</text><text x="507" y="340">19530.92</text><text x="497" y="376">18934.55</text><text x="486" y="412">18293.09</text></g><text x="5" y="464" font-size="8" fill="#231f20" text-anchor="start">1. (CC) gcc options: -shared -fPIC -O2 -pthread</text></svg>
