<?xml version="1.0"?>
<!DOCTYPE svg PUBLIC "-//W3C//DTD SVG 1.1//EN" "http://www.w3.org/Graphics/SVG/1.1/DTD/svg11.dtd">
<!--Phoronix Test Suite v10.4.0 [ http://www.phoronix-test-suite.com/ ]-->
<svg xmlns="http://www.w3.org/2000/svg" xmlns:xlink="http://www.w3.org/1999/xlink" version="1.1" font-family="sans-serif, droid-sans, helvetica, verdana, tahoma" viewbox="0 0 1440 201" width="1440" height="201" preserveAspectRatio="xMinYMin meet"><rect x="0" y="0" width="1440" height="201" fill="#FEFEFE"/><rect x="1" y="1" width="1439" height="200" fill="#FEFEFE" stroke="#757575" stroke-width="1"/><path d="m74 22v9m-5-16v16m-5-28v28m-23-2h12.5c2.485281 0 4.5-2.014719 4.5-4.5s-2.014719-4.5-4.5-4.5h-8c-2.485281 0-4.5-2.014719-4.5-4.5s2.014719-4.5 4.5-4.5h12.5m-21 5h-11m11 13h-2c-4.970563 0-9-4.029437-9-9v-20m-24 40v-20c0-4.970563 4.0294373-9 9-9 4.970563 0 9 4.029437 9 9s-4.029437 9-9 9h-9" stroke="#000000" stroke-width="4" fill="none" transform="translate(92,28)"/><line x1="264" y1="105" x2="1440" y2="105" stroke="#BABABA" stroke-width="160" stroke-dasharray="168,168"/><line x1="720" y1="73" x2="720" y2="185" stroke="#949494" stroke-width="1440" stroke-dasharray="16,16"/><line x1="264" y1="105" x2="1440" y2="105" stroke="#757575" stroke-width="160" stroke-dasharray="1,167"/><rect x="1" y="1" width="1438" height="25" fill="#231f20"/><text x="5" y="19" font-size="17" fill="#FEFEFE" text-anchor="start">results</text><line x1="1" y1="25" x2="1439" y2="25" stroke="#757575" stroke-width="1"/><g font-size="10" font-weight="bold" fill="#065695" text-anchor="end"><a xlink:href="https://openbenchmarking.org/test/pts/osbench-1.0.2" target="_blank"><text x="262" y="85">osbench: Create Files</text></a><a xlink:href="https://openbenchmarking.org/test/pts/osbench-1.0.2" target="_blank"><text x="262" y="101">osbench: Create Threads</text></a><a xlink:href="https://openbenchmarking.org/test/pts/osbench-1.0.2" target="_blank"><text x="262" y="117">osbench: Launch Programs</text></a><a xlink:href="https://openbenchmarking.org/test/pts/osbench-1.0.2" target="_blank"><text x="262" y="133">osbench: Create Processes</text></a><a xlink:href="https://openbenchmarking.org/test/pts/osbench-1.0.2" target="_blank"><text x="262" y="149">osbench: Memory Allocations</text></a><a xlink:href="https://openbenchmarking.org/test/pts/build-linux-kernel-1.11.0" target="_blank"><text x="262" y="165">build-linux-kernel: Time To Compile</text></a><a xlink:href="https://openbenchmarking.org/test/pts/apache-1.7.2" target="_blank"><text x="262" y="181">apache: Static Web Page Serving</text></a></g><g font-size="10" fill="#065695" font-weight="bold" text-anchor="middle" dominant-baseline="text-before-edge"><text x="348" y="49">apparmor-passive</text><text x="516" y="49">apparmor-allow</text><text x="684" y="49">apparmor-complaining</text><text x="852" y="49">base</text><text x="1020" y="49">bpfcontain-passive</text><text x="1188" y="49">bpfcontain-complaining</text><text x="1356" y="49">bpfcontain-allow</text></g><g fill="#BABABA"/><g text-anchor="middle" font-size="10" fill="#065695"><text x="348" y="86">44.861293</text><text x="348" y="102" fill="#005a00">20.635843</text><text x="348" y="118">61.239958</text><text x="348" y="134">38.944721</text><text x="348" y="150" fill="#C80000">119.090152</text><text x="348" y="166">236.257</text><text x="348" y="182">18776.64</text><text x="516" y="86">49.160755</text><text x="516" y="102">20.802736</text><text x="516" y="118">61.945200</text><text x="516" y="134">38.503170</text><text x="516" y="150">119.075775</text><text x="516" y="166">237.325</text><text x="516" y="182">18527.67</text><text x="684" y="86" fill="#C80000">115.089713</text><text x="684" y="102">20.763874</text><text x="684" y="118" fill="#C80000">88.608742</text><text x="684" y="134">38.853884</text><text x="684" y="150">117.567396</text><text x="684" y="166" fill="#C80000">288.890</text><text x="684" y="182">18867.83</text><text x="852" y="86" fill="#005a00">43.496989</text><text x="852" y="102">20.639658</text><text x="852" y="118" fill="#005a00">58.973313</text><text x="852" y="134" fill="#005a00">38.103342</text><text x="852" y="150">117.504263</text><text x="852" y="166" fill="#005a00">235.496</text><text x="852" y="182" fill="#005a00">21164.18</text><text x="1020" y="86">48.112109</text><text x="1020" y="102">21.088839</text><text x="1020" y="118">60.617924</text><text x="1020" y="134">38.194656</text><text x="1020" y="150">117.482066</text><text x="1020" y="166">237.136</text><text x="1020" y="182">19319.03</text><text x="1188" y="86">58.329522</text><text x="1188" y="102" fill="#C80000">24.384022</text><text x="1188" y="118">71.472645</text><text x="1188" y="134">40.652752</text><text x="1188" y="150" fill="#005a00">114.936686</text><text x="1188" y="166">269.997</text><text x="1188" y="182" fill="#C80000">17913.20</text><text x="1356" y="86">57.366706</text><text x="1356" y="102">24.259090</text><text x="1356" y="118">68.512917</text><text x="1356" y="134" fill="#C80000">41.371107</text><text x="1356" y="150">116.964030</text><text x="1356" y="166">269.271</text><text x="1356" y="182">18894.36</text></g><line x1="720" y1="73" x2="720" y2="185" stroke="#949494" stroke-width="1440" stroke-dasharray="1,15"/><rect x="0" y="185" width="1440" height="16" fill="#231f20"/><text x="1438" y="198" font-size="10" fill="#FFFFFF" text-anchor="end">Phoronix Test Suite 10.4.0</text></svg>
