<?xml version="1.0"?>
<!DOCTYPE svg PUBLIC "-//W3C//DTD SVG 1.1//EN" "http://www.w3.org/Graphics/SVG/1.1/DTD/svg11.dtd">
<!--Phoronix Test Suite v10.4.0 [ http://www.phoronix-test-suite.com/ ]-->
<svg xmlns="http://www.w3.org/2000/svg" xmlns:xlink="http://www.w3.org/1999/xlink" version="1.1" font-family="sans-serif, droid-sans, helvetica, verdana, tahoma" viewbox="0 0 1944 201" width="1944" height="201" preserveAspectRatio="xMinYMin meet"><rect x="0" y="0" width="1944" height="201" fill="#FEFEFE"/><rect x="1" y="1" width="1943" height="200" fill="#FEFEFE" stroke="#757575" stroke-width="1"/><path d="m74 22v9m-5-16v16m-5-28v28m-23-2h12.5c2.485281 0 4.5-2.014719 4.5-4.5s-2.014719-4.5-4.5-4.5h-8c-2.485281 0-4.5-2.014719-4.5-4.5s2.014719-4.5 4.5-4.5h12.5m-21 5h-11m11 13h-2c-4.970563 0-9-4.029437-9-9v-20m-24 40v-20c0-4.970563 4.0294373-9 9-9 4.970563 0 9 4.029437 9 9s-4.029437 9-9 9h-9" stroke="#000000" stroke-width="4" fill="none" transform="translate(92,28)"/><line x1="264" y1="105" x2="1944" y2="105" stroke="#BABABA" stroke-width="160" stroke-dasharray="168,168"/><line x1="972" y1="73" x2="972" y2="185" stroke="#949494" stroke-width="1944" stroke-dasharray="16,16"/><line x1="264" y1="105" x2="1944" y2="105" stroke="#757575" stroke-width="160" stroke-dasharray="1,167"/><rect x="1" y="1" width="1942" height="25" fill="#231f20"/><text x="5" y="19" font-size="17" fill="#FEFEFE" text-anchor="start">base</text><line x1="1" y1="25" x2="1943" y2="25" stroke="#757575" stroke-width="1"/><g font-size="10" font-weight="bold" fill="#065695" text-anchor="end"><a xlink:href="https://openbenchmarking.org/test/pts/osbench-1.0.2" target="_blank"><text x="262" y="85">osbench: Create Files</text></a><a xlink:href="https://openbenchmarking.org/test/pts/osbench-1.0.2" target="_blank"><text x="262" y="101">osbench: Create Threads</text></a><a xlink:href="https://openbenchmarking.org/test/pts/osbench-1.0.2" target="_blank"><text x="262" y="117">osbench: Launch Programs</text></a><a xlink:href="https://openbenchmarking.org/test/pts/osbench-1.0.2" target="_blank"><text x="262" y="133">osbench: Create Processes</text></a><a xlink:href="https://openbenchmarking.org/test/pts/osbench-1.0.2" target="_blank"><text x="262" y="149">osbench: Memory Allocations</text></a><a xlink:href="https://openbenchmarking.org/test/pts/build-linux-kernel-1.11.0" target="_blank"><text x="262" y="165">build-linux-kernel: Time To Compile</text></a><a xlink:href="https://openbenchmarking.org/test/pts/apache-1.7.2" target="_blank"><text x="262" y="181">apache: Static Web Page Serving</text></a></g><g font-size="10" fill="#065695" font-weight="bold" text-anchor="middle" dominant-baseline="text-before-edge"><text x="348" y="49">base</text><text x="516" y="49">apparmor-passive</text><text x="684" y="49">apparmor-allow</text><text x="852" y="49">apparmor-complaining</text><text x="1020" y="49">bpfbox-passive</text><text x="1188" y="49">bpfbox-allow</text><text x="1356" y="49">bpfbox-complaining</text><text x="1524" y="49">bpfcontain-passive</text><text x="1692" y="49">bpfcontain-allow</text><text x="1860" y="49">bpfcontain-complaining</text></g><g fill="#BABABA"/><g text-anchor="middle" font-size="10" fill="#065695"><text x="348" y="86" fill="#005a00">42.206979</text><text x="348" y="102" fill="#005a00">20.181894</text><text x="348" y="118" fill="#005a00">61.674118</text><text x="348" y="134" fill="#005a00">38.653135</text><text x="348" y="150">117.168713</text><text x="348" y="166" fill="#005a00">235.316</text><text x="348" y="182" fill="#005a00">20576.49</text><text x="516" y="86">43.867697</text><text x="516" y="102">20.324945</text><text x="516" y="118">62.839031</text><text x="516" y="134">39.044380</text><text x="516" y="150">117.237997</text><text x="516" y="166">236.446</text><text x="516" y="182">20363.42</text><text x="684" y="86">47.069141</text><text x="684" y="102">20.291567</text><text x="684" y="118">63.174009</text><text x="684" y="134">38.939476</text><text x="684" y="150">117.491651</text><text x="684" y="166">237.589</text><text x="684" y="182">20276.95</text><text x="852" y="86" fill="#C80000">111.659917</text><text x="852" y="102">20.322323</text><text x="852" y="118" fill="#C80000">90.555191</text><text x="852" y="134">38.681269</text><text x="852" y="150">116.808796</text><text x="852" y="166" fill="#C80000">288.539</text><text x="852" y="182">19827.05</text><text x="1020" y="86">49.091642</text><text x="1020" y="102">21.063089</text><text x="1020" y="118">63.302040</text><text x="1020" y="134">38.807154</text><text x="1020" y="150">116.866946</text><text x="1020" y="166">237.946</text><text x="1020" y="182">19946.04</text><text x="1188" y="86">49.413948</text><text x="1188" y="102">21.561384</text><text x="1188" y="118">63.439131</text><text x="1188" y="134">39.284229</text><text x="1188" y="150">117.409277</text><text x="1188" y="166">238.234</text><text x="1188" y="182">19465.86</text><text x="1356" y="86">50.338981</text><text x="1356" y="102">21.574736</text><text x="1356" y="118">65.220356</text><text x="1356" y="134">39.509535</text><text x="1356" y="150">117.618298</text><text x="1356" y="166">269.642</text><text x="1356" y="182">20139.10</text><text x="1524" y="86">48.163627</text><text x="1524" y="102">21.207810</text><text x="1524" y="118">63.116312</text><text x="1524" y="134">40.172815</text><text x="1524" y="150" fill="#C80000">120.049786</text><text x="1524" y="166">237.627</text><text x="1524" y="182">19530.92</text><text x="1692" y="86">53.433496</text><text x="1692" y="102" fill="#C80000">22.105932</text><text x="1692" y="118">65.045595</text><text x="1692" y="134">41.268587</text><text x="1692" y="150">116.422629</text><text x="1692" y="166">243.091</text><text x="1692" y="182">18934.55</text><text x="1860" y="86">55.667647</text><text x="1860" y="102">21.957159</text><text x="1860" y="118">65.662384</text><text x="1860" y="134" fill="#C80000">41.487694</text><text x="1860" y="150" fill="#005a00">115.734792</text><text x="1860" y="166">244.805</text><text x="1860" y="182" fill="#C80000">18293.09</text></g><line x1="972" y1="73" x2="972" y2="185" stroke="#949494" stroke-width="1944" stroke-dasharray="1,15"/><rect x="0" y="185" width="1944" height="16" fill="#231f20"/><text x="1942" y="198" font-size="10" fill="#FFFFFF" text-anchor="end">Phoronix Test Suite 10.4.0</text></svg>
