<?xml version="1.0"?>
<!DOCTYPE svg PUBLIC "-//W3C//DTD SVG 1.1//EN" "http://www.w3.org/Graphics/SVG/1.1/DTD/svg11.dtd">
<!--Phoronix Test Suite v10.4.0 [ http://www.phoronix-test-suite.com/ ]-->
<svg xmlns="http://www.w3.org/2000/svg" xmlns:xlink="http://www.w3.org/1999/xlink" version="1.1" font-family="sans-serif, droid-sans, helvetica, verdana, tahoma" viewbox="0 0 900 1028" width="900" height="1028" preserveAspectRatio="xMinYMin meet"><rect x="0" y="0" width="900" height="1028" fill="#FEFEFE"/><g stroke="#757575" stroke-width="1"><rect x="166.6" y="52" width="10" height="10" fill="#f44336"/><rect x="352.6" y="52" width="10" height="10" fill="#673ab7"/><rect x="538.6" y="52" width="10" height="10" fill="#009688"/><rect x="166.6" y="68" width="10" height="10" fill="#4caf50"/><rect x="352.6" y="68" width="10" height="10" fill="#e91e63"/><rect x="538.6" y="68" width="10" height="10" fill="#795548"/><rect x="166.6" y="84" width="10" height="10" fill="#9e9e9e"/><rect x="352.6" y="84" width="10" height="10" fill="#607d8b"/><rect x="538.6" y="84" width="10" height="10" fill="#FFB300"/><rect x="166.6" y="100" width="10" height="10" fill="#803E75"/></g><g font-size="9" text-anchor="start" font-weight="bold"><text x="179.6" y="61" fill="#f44336">base</text><text x="365.6" y="61" fill="#673ab7">apparmor-passive</text><text x="551.6" y="61" fill="#009688">apparmor-allow</text><text x="179.6" y="77" fill="#4caf50">apparmor-complaining</text><text x="365.6" y="77" fill="#e91e63">bpfbox-passive</text><text x="551.6" y="77" fill="#795548">bpfbox-allow</text><text x="179.6" y="93" fill="#9e9e9e">bpfbox-complaining</text><text x="365.6" y="93" fill="#607d8b">bpfcontain-passive</text><text x="551.6" y="93" fill="#FFB300">bpfcontain-allow</text><text x="179.6" y="109" fill="#803E75">bpfcontain-complaining</text></g><path d="m74 22v9m-5-16v16m-5-28v28m-23-2h12.5c2.485281 0 4.5-2.014719 4.5-4.5s-2.014719-4.5-4.5-4.5h-8c-2.485281 0-4.5-2.014719-4.5-4.5s2.014719-4.5 4.5-4.5h12.5m-21 5h-11m11 13h-2c-4.970563 0-9-4.029437-9-9v-20m-24 40v-20c0-4.970563 4.0294373-9 9-9 4.970563 0 9 4.029437 9 9s-4.029437 9-9 9h-9" stroke="#231f20" stroke-width="4" fill="none" transform="translate(10,2)"/><text x="100" y="21" font-size="17" fill="#231f20" text-anchor="start">Result Overview</text><a xlink:href="http://www.phoronix-test-suite.com/" target="_blank"><text x="100" y="33" font-size="9" fill="#231f20" text-anchor="start">Phoronix Test Suite 10.4.0</text></a><g font-size="10" fill="#757575"/><g font-size="9" fill="#949494" text-anchor="middle"><text x="450" y="699" dominant-baseline="hanging">100%</text><text x="450" y="748" dominant-baseline="hanging">141%</text><text x="450" y="797" dominant-baseline="hanging">182%</text><text x="450" y="846" dominant-baseline="hanging">223%</text><text x="450" y="895" dominant-baseline="hanging">265%</text></g><g font-size="10.5" fill="#757575" font-weight="800" dominant-baseline="text-after-edge"><text x="775" y="578" text-anchor="start">OSBench</text><text x="655" y="831" text-anchor="start">OSBench</text><text x="378" y="895" text-anchor="end">Timed Linux Kernel Compilation</text><text x="159" y="721" text-anchor="end">Apache Benchmark</text><text x="159" y="431" text-anchor="end">OSBench</text><text x="378" y="257" text-anchor="end">OSBench</text><text x="655" y="321" text-anchor="start">OSBench</text></g><g font-size="10" fill="#757575" dominant-baseline="text-after-edge"><text x="775" y="588" text-anchor="start">Create Files</text><text x="655" y="841" text-anchor="start">Launch Programs</text><text x="378" y="905" text-anchor="end">Time To Compile</text><text x="159" y="731" text-anchor="end">S.W.P.S</text><text x="159" y="446" text-anchor="end">Create Threads</text><text x="378" y="272" text-anchor="end">Create Processes</text><text x="655" y="336" text-anchor="start">Memory Allocations</text></g><circle stroke="#949494" stroke-width="1" stroke-dasharray="10,10,10" cx="450" cy="578" r="119" fill="transparent"/><circle stroke="#949494" stroke-width="1" stroke-dasharray="10,10,10" cx="450" cy="578" r="168" fill="transparent"/><circle stroke="#949494" stroke-width="1" stroke-dasharray="10,10,10" cx="450" cy="578" r="217" fill="transparent"/><circle stroke="#949494" stroke-width="1" stroke-dasharray="10,10,10" cx="450" cy="578" r="266" fill="transparent"/><circle stroke="#949494" stroke-width="1" stroke-dasharray="10,10,10" cx="450" cy="578" r="315" fill="transparent"/><line x1="765" y1="578" x2="560" y2="714" stroke="#f44336" stroke-width="3"/><line x1="753" y1="578" x2="558" y2="711" stroke="#673ab7" stroke-width="3"/><line x1="732" y1="578" x2="557" y2="711" stroke="#009688" stroke-width="3"/><line x1="569" y1="578" x2="525" y2="671" stroke="#4caf50" stroke-width="3"/><line x1="721" y1="578" x2="557" y2="710" stroke="#e91e63" stroke-width="3"/><line x1="719" y1="578" x2="557" y2="710" stroke="#795548" stroke-width="3"/><line x1="714" y1="578" x2="554" y2="707" stroke="#9e9e9e" stroke-width="3"/><line x1="726" y1="578" x2="558" y2="711" stroke="#607d8b" stroke-width="3"/><line x1="699" y1="578" x2="554" y2="707" stroke="#FFB300" stroke-width="3"/><line x1="689" y1="578" x2="553" y2="706" stroke="#803E75" stroke-width="3"/><line x1="560" y1="714" x2="417" y2="720" stroke="#f44336" stroke-width="3"/><line x1="558" y1="711" x2="417" y2="720" stroke="#673ab7" stroke-width="3"/><line x1="557" y1="711" x2="417" y2="719" stroke="#009688" stroke-width="3"/><line x1="525" y1="671" x2="423" y2="694" stroke="#4caf50" stroke-width="3"/><line x1="557" y1="710" x2="418" y2="719" stroke="#e91e63" stroke-width="3"/><line x1="557" y1="710" x2="418" y2="719" stroke="#795548" stroke-width="3"/><line x1="554" y1="707" x2="421" y2="702" stroke="#9e9e9e" stroke-width="3"/><line x1="558" y1="711" x2="417" y2="719" stroke="#607d8b" stroke-width="3"/><line x1="554" y1="707" x2="418" y2="716" stroke="#FFB300" stroke-width="3"/><line x1="553" y1="706" x2="418" y2="715" stroke="#803E75" stroke-width="3"/><line x1="417" y1="720" x2="330" y2="637" stroke="#f44336" stroke-width="3"/><line x1="417" y1="720" x2="331" y2="636" stroke="#673ab7" stroke-width="3"/><line x1="417" y1="719" x2="331" y2="636" stroke="#009688" stroke-width="3"/><line x1="423" y1="694" x2="334" y2="635" stroke="#4caf50" stroke-width="3"/><line x1="418" y1="719" x2="333" y2="635" stroke="#e91e63" stroke-width="3"/><line x1="418" y1="719" x2="336" y2="634" stroke="#795548" stroke-width="3"/><line x1="421" y1="702" x2="332" y2="635" stroke="#9e9e9e" stroke-width="3"/><line x1="417" y1="719" x2="336" y2="634" stroke="#607d8b" stroke-width="3"/><line x1="418" y1="716" x2="339" y2="632" stroke="#FFB300" stroke-width="3"/><line x1="418" y1="715" x2="343" y2="630" stroke="#803E75" stroke-width="3"/><line x1="330" y1="637" x2="333" y2="521" stroke="#f44336" stroke-width="3"/><line x1="331" y1="636" x2="334" y2="521" stroke="#673ab7" stroke-width="3"/><line x1="331" y1="636" x2="333" y2="521" stroke="#009688" stroke-width="3"/><line x1="334" y1="635" x2="334" y2="521" stroke="#4caf50" stroke-width="3"/><line x1="333" y1="635" x2="338" y2="523" stroke="#e91e63" stroke-width="3"/><line x1="336" y1="634" x2="340" y2="524" stroke="#795548" stroke-width="3"/><line x1="332" y1="635" x2="340" y2="524" stroke="#9e9e9e" stroke-width="3"/><line x1="336" y1="634" x2="338" y2="524" stroke="#607d8b" stroke-width="3"/><line x1="339" y1="632" x2="343" y2="526" stroke="#FFB300" stroke-width="3"/><line x1="343" y1="630" x2="342" y2="525" stroke="#803E75" stroke-width="3"/><line x1="333" y1="521" x2="421" y2="453" stroke="#f44336" stroke-width="3"/><line x1="334" y1="521" x2="422" y2="455" stroke="#673ab7" stroke-width="3"/><line x1="333" y1="521" x2="421" y2="454" stroke="#009688" stroke-width="3"/><line x1="334" y1="521" x2="421" y2="453" stroke="#4caf50" stroke-width="3"/><line x1="338" y1="523" x2="421" y2="454" stroke="#e91e63" stroke-width="3"/><line x1="340" y1="524" x2="422" y2="455" stroke="#795548" stroke-width="3"/><line x1="340" y1="524" x2="422" y2="456" stroke="#9e9e9e" stroke-width="3"/><line x1="338" y1="524" x2="422" y2="458" stroke="#607d8b" stroke-width="3"/><line x1="343" y1="526" x2="423" y2="461" stroke="#FFB300" stroke-width="3"/><line x1="342" y1="525" x2="423" y2="462" stroke="#803E75" stroke-width="3"/><line x1="421" y1="453" x2="527" y2="483" stroke="#f44336" stroke-width="3"/><line x1="422" y1="455" x2="527" y2="483" stroke="#673ab7" stroke-width="3"/><line x1="421" y1="454" x2="527" y2="483" stroke="#009688" stroke-width="3"/><line x1="421" y1="453" x2="527" y2="483" stroke="#4caf50" stroke-width="3"/><line x1="421" y1="454" x2="527" y2="483" stroke="#e91e63" stroke-width="3"/><line x1="422" y1="455" x2="527" y2="483" stroke="#795548" stroke-width="3"/><line x1="422" y1="456" x2="527" y2="484" stroke="#9e9e9e" stroke-width="3"/><line x1="422" y1="458" x2="525" y2="485" stroke="#607d8b" stroke-width="3"/><line x1="423" y1="461" x2="527" y2="483" stroke="#FFB300" stroke-width="3"/><line x1="423" y1="462" x2="528" y2="482" stroke="#803E75" stroke-width="3"/><line x1="527" y1="483" x2="765" y2="578" stroke="#f44336" stroke-width="2"/><line x1="527" y1="483" x2="753" y2="578" stroke="#673ab7" stroke-width="2"/><line x1="527" y1="483" x2="732" y2="578" stroke="#009688" stroke-width="2"/><line x1="527" y1="483" x2="569" y2="578" stroke="#4caf50" stroke-width="2"/><line x1="527" y1="483" x2="721" y2="578" stroke="#e91e63" stroke-width="2"/><line x1="527" y1="483" x2="719" y2="578" stroke="#795548" stroke-width="2"/><line x1="527" y1="484" x2="714" y2="578" stroke="#9e9e9e" stroke-width="2"/><line x1="525" y1="485" x2="726" y2="578" stroke="#607d8b" stroke-width="2"/><line x1="527" y1="483" x2="699" y2="578" stroke="#FFB300" stroke-width="2"/><line x1="528" y1="482" x2="689" y2="578" stroke="#803E75" stroke-width="2"/></svg>
