<?xml version="1.0"?>
<!DOCTYPE svg PUBLIC "-//W3C//DTD SVG 1.1//EN" "http://www.w3.org/Graphics/SVG/1.1/DTD/svg11.dtd">
<!--Phoronix Test Suite v10.4.0 [ http://www.phoronix-test-suite.com/ ]-->
<svg xmlns="http://www.w3.org/2000/svg" xmlns:xlink="http://www.w3.org/1999/xlink" version="1.1" font-family="sans-serif, droid-sans, helvetica, verdana, tahoma" viewbox="0 0 1000 310" width="1000" height="310" preserveAspectRatio="xMinYMin meet"><rect x="0" y="0" width="1000" height="310" fill="#FEFEFE"/><g stroke="#757575" stroke-width="1"/><g font-size="9" text-anchor="start" font-weight="bold"/><rect x="30" y="103.66666666667" width="960" height="120" fill="#BABABA" stroke="#757575" stroke-width="1"/><text x="988" y="115.66666666667" font-size="10" fill="#065695" text-anchor="end" font-weight="bold">Phoronix Test Suite 10.4.0</text><g stroke="#757575" stroke-width="1" stroke-dasharray="5,5"><line x1="30" y1="205" x2="990" y2="205"/><line x1="30" y1="185" x2="990" y2="185"/><line x1="30" y1="165" x2="990" y2="165"/><line x1="30" y1="145" x2="990" y2="145"/><line x1="30" y1="125" x2="990" y2="125"/></g><g stroke="#757575" stroke-width="1"><line x1="26" y1="205" x2="34" y2="205"/><line x1="26" y1="185" x2="34" y2="185"/><line x1="26" y1="165" x2="34" y2="165"/><line x1="26" y1="145" x2="34" y2="145"/><line x1="26" y1="125" x2="34" y2="125"/></g><g stroke="#949494" stroke-width="1" stroke-dasharray="5,5"/><g font-size="10" fill="#065695" text-anchor="end"/><text x="98.5" y="227" font-size="6.5" fill="#231f20" text-anchor="middle" dominant-baseline="text-before-edge">OSBench</text><rect x="43.7" y="105" width="10" height="119" fill="#f44336" stroke="#949494" stroke-width="1"/><rect x="53.7" y="109" width="10" height="115" fill="#673ab7" stroke="#949494" stroke-width="1"/><rect x="63.7" y="117" width="10" height="107" fill="#009688" stroke="#949494" stroke-width="1"/><rect x="73.7" y="180" width="10" height="44" fill="#4caf50" stroke="#949494" stroke-width="1"/><rect x="83.7" y="122" width="10" height="102" fill="#e91e63" stroke="#949494" stroke-width="1"/><rect x="93.7" y="122" width="10" height="102" fill="#795548" stroke="#949494" stroke-width="1"/><rect x="103.7" y="124" width="10" height="100" fill="#9e9e9e" stroke="#949494" stroke-width="1"/><rect x="113.7" y="120" width="10" height="104" fill="#607d8b" stroke="#949494" stroke-width="1"/><rect x="123.7" y="130" width="10" height="94" fill="#FFB300" stroke="#949494" stroke-width="1"/><rect x="133.7" y="134" width="10" height="90" fill="#803E75" stroke="#949494" stroke-width="1"/><text x="235.5" y="227" font-size="6.5" fill="#231f20" text-anchor="middle" dominant-baseline="text-before-edge">OSBench</text><rect x="180.7" y="105" width="10" height="119" fill="#f44336" stroke="#949494" stroke-width="1"/><rect x="190.7" y="105" width="10" height="119" fill="#673ab7" stroke="#949494" stroke-width="1"/><rect x="200.7" y="105" width="10" height="119" fill="#009688" stroke="#949494" stroke-width="1"/><rect x="210.7" y="105" width="10" height="119" fill="#4caf50" stroke="#949494" stroke-width="1"/><rect x="220.7" y="110" width="10" height="114" fill="#e91e63" stroke="#949494" stroke-width="1"/><rect x="230.7" y="112" width="10" height="112" fill="#795548" stroke="#949494" stroke-width="1"/><rect x="240.7" y="112" width="10" height="112" fill="#9e9e9e" stroke="#949494" stroke-width="1"/><rect x="250.7" y="111" width="10" height="113" fill="#607d8b" stroke="#949494" stroke-width="1"/><rect x="260.7" y="115" width="10" height="109" fill="#FFB300" stroke="#949494" stroke-width="1"/><rect x="270.7" y="114" width="10" height="110" fill="#803E75" stroke="#949494" stroke-width="1"/><text x="372.5" y="227" font-size="6.5" fill="#231f20" text-anchor="middle" dominant-baseline="text-before-edge">OSBench</text><rect x="317.7" y="105" width="10" height="119" fill="#f44336" stroke="#949494" stroke-width="1"/><rect x="327.7" y="107" width="10" height="117" fill="#673ab7" stroke="#949494" stroke-width="1"/><rect x="337.7" y="108" width="10" height="116" fill="#009688" stroke="#949494" stroke-width="1"/><rect x="347.7" y="143" width="10" height="81" fill="#4caf50" stroke="#949494" stroke-width="1"/><rect x="357.7" y="108" width="10" height="116" fill="#e91e63" stroke="#949494" stroke-width="1"/><rect x="367.7" y="108" width="10" height="116" fill="#795548" stroke="#949494" stroke-width="1"/><rect x="377.7" y="111" width="10" height="113" fill="#9e9e9e" stroke="#949494" stroke-width="1"/><rect x="387.7" y="107" width="10" height="117" fill="#607d8b" stroke="#949494" stroke-width="1"/><rect x="397.7" y="111" width="10" height="113" fill="#FFB300" stroke="#949494" stroke-width="1"/><rect x="407.7" y="112" width="10" height="112" fill="#803E75" stroke="#949494" stroke-width="1"/><text x="509.5" y="227" font-size="6.5" fill="#231f20" text-anchor="middle" dominant-baseline="text-before-edge">OSBench</text><rect x="454.7" y="105" width="10" height="119" fill="#f44336" stroke="#949494" stroke-width="1"/><rect x="464.7" y="106" width="10" height="118" fill="#673ab7" stroke="#949494" stroke-width="1"/><rect x="474.7" y="106" width="10" height="118" fill="#009688" stroke="#949494" stroke-width="1"/><rect x="484.7" y="105" width="10" height="119" fill="#4caf50" stroke="#949494" stroke-width="1"/><rect x="494.7" y="105" width="10" height="119" fill="#e91e63" stroke="#949494" stroke-width="1"/><rect x="504.7" y="107" width="10" height="117" fill="#795548" stroke="#949494" stroke-width="1"/><rect x="514.7" y="107" width="10" height="117" fill="#9e9e9e" stroke="#949494" stroke-width="1"/><rect x="524.7" y="109" width="10" height="115" fill="#607d8b" stroke="#949494" stroke-width="1"/><rect x="534.7" y="112" width="10" height="112" fill="#FFB300" stroke="#949494" stroke-width="1"/><rect x="544.7" y="113" width="10" height="111" fill="#803E75" stroke="#949494" stroke-width="1"/><text x="646.5" y="227" font-size="6.5" fill="#231f20" text-anchor="middle" dominant-baseline="text-before-edge">OSBench</text><rect x="591.7" y="106" width="10" height="118" fill="#f44336" stroke="#949494" stroke-width="1"/><rect x="601.7" y="106" width="10" height="118" fill="#673ab7" stroke="#949494" stroke-width="1"/><rect x="611.7" y="106" width="10" height="118" fill="#009688" stroke="#949494" stroke-width="1"/><rect x="621.7" y="106" width="10" height="118" fill="#4caf50" stroke="#949494" stroke-width="1"/><rect x="631.7" y="106" width="10" height="118" fill="#e91e63" stroke="#949494" stroke-width="1"/><rect x="641.7" y="106" width="10" height="118" fill="#795548" stroke="#949494" stroke-width="1"/><rect x="651.7" y="107" width="10" height="117" fill="#9e9e9e" stroke="#949494" stroke-width="1"/><rect x="661.7" y="109" width="10" height="115" fill="#607d8b" stroke="#949494" stroke-width="1"/><rect x="671.7" y="105" width="10" height="119" fill="#FFB300" stroke="#949494" stroke-width="1"/><rect x="681.7" y="105" width="10" height="119" fill="#803E75" stroke="#949494" stroke-width="1"/><text x="783.5" y="227" font-size="6.5" fill="#231f20" text-anchor="middle" dominant-baseline="text-before-edge">Timed Linux Kernel Compilation</text><rect x="728.7" y="105" width="10" height="119" fill="#f44336" stroke="#949494" stroke-width="1"/><rect x="738.7" y="105" width="10" height="119" fill="#673ab7" stroke="#949494" stroke-width="1"/><rect x="748.7" y="106" width="10" height="118" fill="#009688" stroke="#949494" stroke-width="1"/><rect x="758.7" y="127" width="10" height="97" fill="#4caf50" stroke="#949494" stroke-width="1"/><rect x="768.7" y="106" width="10" height="118" fill="#e91e63" stroke="#949494" stroke-width="1"/><rect x="778.7" y="106" width="10" height="118" fill="#795548" stroke="#949494" stroke-width="1"/><rect x="788.7" y="120" width="10" height="104" fill="#9e9e9e" stroke="#949494" stroke-width="1"/><rect x="798.7" y="106" width="10" height="118" fill="#607d8b" stroke="#949494" stroke-width="1"/><rect x="808.7" y="109" width="10" height="115" fill="#FFB300" stroke="#949494" stroke-width="1"/><rect x="818.7" y="109" width="10" height="115" fill="#803E75" stroke="#949494" stroke-width="1"/><text x="920.5" y="227" font-size="6.5" fill="#231f20" text-anchor="middle" dominant-baseline="text-before-edge">Apache Benchmark</text><rect x="865.7" y="105" width="10" height="119" fill="#f44336" stroke="#949494" stroke-width="1"/><rect x="875.7" y="106" width="10" height="118" fill="#673ab7" stroke="#949494" stroke-width="1"/><rect x="885.7" y="106" width="10" height="118" fill="#009688" stroke="#949494" stroke-width="1"/><rect x="895.7" y="109" width="10" height="115" fill="#4caf50" stroke="#949494" stroke-width="1"/><rect x="905.7" y="108" width="10" height="116" fill="#e91e63" stroke="#949494" stroke-width="1"/><rect x="915.7" y="111" width="10" height="113" fill="#795548" stroke="#949494" stroke-width="1"/><rect x="925.7" y="107" width="10" height="117" fill="#9e9e9e" stroke="#949494" stroke-width="1"/><rect x="935.7" y="111" width="10" height="113" fill="#607d8b" stroke="#949494" stroke-width="1"/><rect x="945.7" y="114" width="10" height="110" fill="#FFB300" stroke="#949494" stroke-width="1"/><rect x="955.7" y="118" width="10" height="106" fill="#803E75" stroke="#949494" stroke-width="1"/><line x1="167" y1="224" x2="949" y2="224" stroke="#757575" stroke-width="10" stroke-dasharray="1,136"/><line x1="30" y1="224" x2="990" y2="224" stroke="#757575" stroke-width="1"/><text x="495" y="19" font-size="17" fill="#231f20" text-anchor="middle">base</text><text x="990" y="100.66666666667" font-size="7" fill="#949494" text-anchor="end">Phoronix Test Suite 10.4.0</text></svg>
