<?xml version="1.0"?>
<!DOCTYPE svg PUBLIC "-//W3C//DTD SVG 1.1//EN" "http://www.w3.org/Graphics/SVG/1.1/DTD/svg11.dtd">
<!--Phoronix Test Suite v10.4.0 [ http://www.phoronix-test-suite.com/ ]-->
<svg xmlns="http://www.w3.org/2000/svg" xmlns:xlink="http://www.w3.org/1999/xlink" version="1.1" font-family="sans-serif, droid-sans, helvetica, verdana, tahoma" viewbox="0 0 862 473" width="862" height="473" preserveAspectRatio="xMinYMin meet"><rect x="0" y="0" width="862" height="473" fill="#FEFEFE"/><rect x="1" y="1" width="861" height="472" fill="#FEFEFE" stroke="#757575" stroke-width="1"/><path d="m74 22v9m-5-16v16m-5-28v28m-23-2h12.5c2.485281 0 4.5-2.014719 4.5-4.5s-2.014719-4.5-4.5-4.5h-8c-2.485281 0-4.5-2.014719-4.5-4.5s2.014719-4.5 4.5-4.5h12.5m-21 5h-11m11 13h-2c-4.970563 0-9-4.029437-9-9v-20m-24 40v-20c0-4.970563 4.0294373-9 9-9 4.970563 0 9 4.029437 9 9s-4.029437 9-9 9h-9" stroke="#000000" stroke-width="4" fill="none" transform="translate(139,28)"/><line x1="358" y1="241" x2="862" y2="241" stroke="#BABABA" stroke-width="432" stroke-dasharray="168,168"/><line x1="431" y1="73" x2="431" y2="457" stroke="#949494" stroke-width="862" stroke-dasharray="16,16"/><line x1="358" y1="241" x2="862" y2="241" stroke="#757575" stroke-width="432" stroke-dasharray="1,167"/><rect x="1" y="1" width="860" height="25" fill="#231f20"/><text x="5" y="19" font-size="17" fill="#FEFEFE" text-anchor="start">ipc-bpfcontain-new</text><line x1="1" y1="25" x2="861" y2="25" stroke="#757575" stroke-width="1"/><g font-size="10" font-weight="bold" fill="#065695" text-anchor="end"><a xlink:href="https://openbenchmarking.org/test/pts/ipc-benchmark-1.0.0" target="_blank"><text x="356" y="85">ipc-benchmark: TCP Socket - 128</text></a><a xlink:href="https://openbenchmarking.org/test/pts/ipc-benchmark-1.0.0" target="_blank"><text x="356" y="101">ipc-benchmark: TCP Socket - 256</text></a><a xlink:href="https://openbenchmarking.org/test/pts/ipc-benchmark-1.0.0" target="_blank"><text x="356" y="117">ipc-benchmark: TCP Socket - 512</text></a><a xlink:href="https://openbenchmarking.org/test/pts/ipc-benchmark-1.0.0" target="_blank"><text x="356" y="133">ipc-benchmark: TCP Socket - 1024</text></a><a xlink:href="https://openbenchmarking.org/test/pts/ipc-benchmark-1.0.0" target="_blank"><text x="356" y="149">ipc-benchmark: TCP Socket - 2048</text></a><a xlink:href="https://openbenchmarking.org/test/pts/ipc-benchmark-1.0.0" target="_blank"><text x="356" y="165">ipc-benchmark: TCP Socket - 4096</text></a><a xlink:href="https://openbenchmarking.org/test/pts/ipc-benchmark-1.0.0" target="_blank"><text x="356" y="181">ipc-benchmark: Unnamed Pipe - 128</text></a><a xlink:href="https://openbenchmarking.org/test/pts/ipc-benchmark-1.0.0" target="_blank"><text x="356" y="197">ipc-benchmark: Unnamed Pipe - 256</text></a><a xlink:href="https://openbenchmarking.org/test/pts/ipc-benchmark-1.0.0" target="_blank"><text x="356" y="213">ipc-benchmark: Unnamed Pipe - 512</text></a><a xlink:href="https://openbenchmarking.org/test/pts/ipc-benchmark-1.0.0" target="_blank"><text x="356" y="229">ipc-benchmark: Unnamed Pipe - 1024</text></a><a xlink:href="https://openbenchmarking.org/test/pts/ipc-benchmark-1.0.0" target="_blank"><text x="356" y="245">ipc-benchmark: Unnamed Pipe - 2048</text></a><a xlink:href="https://openbenchmarking.org/test/pts/ipc-benchmark-1.0.0" target="_blank"><text x="356" y="261">ipc-benchmark: Unnamed Pipe - 4096</text></a><a xlink:href="https://openbenchmarking.org/test/pts/ipc-benchmark-1.0.0" target="_blank"><text x="356" y="277">ipc-benchmark: FIFO Named Pipe - 128</text></a><a xlink:href="https://openbenchmarking.org/test/pts/ipc-benchmark-1.0.0" target="_blank"><text x="356" y="293">ipc-benchmark: FIFO Named Pipe - 256</text></a><a xlink:href="https://openbenchmarking.org/test/pts/ipc-benchmark-1.0.0" target="_blank"><text x="356" y="309">ipc-benchmark: FIFO Named Pipe - 512</text></a><a xlink:href="https://openbenchmarking.org/test/pts/ipc-benchmark-1.0.0" target="_blank"><text x="356" y="325">ipc-benchmark: FIFO Named Pipe - 1024</text></a><a xlink:href="https://openbenchmarking.org/test/pts/ipc-benchmark-1.0.0" target="_blank"><text x="356" y="341">ipc-benchmark: FIFO Named Pipe - 2048</text></a><a xlink:href="https://openbenchmarking.org/test/pts/ipc-benchmark-1.0.0" target="_blank"><text x="356" y="357">ipc-benchmark: FIFO Named Pipe - 4096</text></a><a xlink:href="https://openbenchmarking.org/test/pts/ipc-benchmark-1.0.0" target="_blank"><text x="356" y="373">ipc-benchmark: Unnamed Unix Domain Socket - 128</text></a><a xlink:href="https://openbenchmarking.org/test/pts/ipc-benchmark-1.0.0" target="_blank"><text x="356" y="389">ipc-benchmark: Unnamed Unix Domain Socket - 256</text></a><a xlink:href="https://openbenchmarking.org/test/pts/ipc-benchmark-1.0.0" target="_blank"><text x="356" y="405">ipc-benchmark: Unnamed Unix Domain Socket - 512</text></a><a xlink:href="https://openbenchmarking.org/test/pts/ipc-benchmark-1.0.0" target="_blank"><text x="356" y="421">ipc-benchmark: Unnamed Unix Domain Socket - 1024</text></a><a xlink:href="https://openbenchmarking.org/test/pts/ipc-benchmark-1.0.0" target="_blank"><text x="356" y="437">ipc-benchmark: Unnamed Unix Domain Socket - 2048</text></a><a xlink:href="https://openbenchmarking.org/test/pts/ipc-benchmark-1.0.0" target="_blank"><text x="356" y="453">ipc-benchmark: Unnamed Unix Domain Socket - 4096</text></a></g><g font-size="10" fill="#065695" font-weight="bold" text-anchor="middle" dominant-baseline="text-before-edge"><text x="442" y="49">bpfcontain-passive</text><text x="610" y="49">bpfcontain-allow</text><text x="778" y="49">bpfcontain-complaining</text></g><g fill="#BABABA"/><g text-anchor="middle" font-size="10" fill="#065695"><text x="442" y="86" fill="#005a00">1383043</text><text x="442" y="102" fill="#005a00">1330561</text><text x="442" y="118" fill="#005a00">1219722</text><text x="442" y="134" fill="#005a00">1109997</text><text x="442" y="150" fill="#005a00">889503</text><text x="442" y="166" fill="#005a00">615411</text><text x="442" y="182">2033450</text><text x="442" y="198" fill="#005a00">2128181</text><text x="442" y="214">1873920</text><text x="442" y="230" fill="#C80000">1243478</text><text x="442" y="246">900910</text><text x="442" y="262" fill="#C80000">611616</text><text x="442" y="278" fill="#005a00">1921443</text><text x="442" y="294" fill="#C80000">1712046</text><text x="442" y="310" fill="#005a00">1811748</text><text x="442" y="326">1320591</text><text x="442" y="342">937003</text><text x="442" y="358" fill="#C80000">727872</text><text x="442" y="374" fill="#005a00">826266</text><text x="442" y="390" fill="#005a00">797713</text><text x="442" y="406" fill="#005a00">801678</text><text x="442" y="422" fill="#005a00">703674</text><text x="442" y="438" fill="#005a00">562966</text><text x="442" y="454" fill="#005a00">546047</text><text x="610" y="86">1262332</text><text x="610" y="102">1223603</text><text x="610" y="118">1133481</text><text x="610" y="134">1032132</text><text x="610" y="150">852776</text><text x="610" y="166">608475</text><text x="610" y="182" fill="#005a00">2065603</text><text x="610" y="198">2083552</text><text x="610" y="214" fill="#C80000">1814444</text><text x="610" y="230">1329981</text><text x="610" y="246" fill="#C80000">846557</text><text x="610" y="262">647466</text><text x="610" y="278">1814310</text><text x="610" y="294">1819023</text><text x="610" y="310">1785156</text><text x="610" y="326" fill="#005a00">1355800</text><text x="610" y="342" fill="#C80000">903518</text><text x="610" y="358">740991</text><text x="610" y="374">740880</text><text x="610" y="390">718927</text><text x="610" y="406">717489</text><text x="610" y="422">656433</text><text x="610" y="438" fill="#C80000">528389</text><text x="610" y="454" fill="#C80000">516404</text><text x="778" y="86" fill="#C80000">845704</text><text x="778" y="102" fill="#C80000">834338</text><text x="778" y="118" fill="#C80000">793208</text><text x="778" y="134" fill="#C80000">728623</text><text x="778" y="150" fill="#C80000">624580</text><text x="778" y="166" fill="#C80000">470107</text><text x="778" y="182" fill="#C80000">1970472</text><text x="778" y="198" fill="#C80000">1795188</text><text x="778" y="214" fill="#005a00">1927736</text><text x="778" y="230" fill="#005a00">1374927</text><text x="778" y="246" fill="#005a00">926901</text><text x="778" y="262" fill="#005a00">711517</text><text x="778" y="278" fill="#C80000">1805439</text><text x="778" y="294" fill="#005a00">1868350</text><text x="778" y="310" fill="#C80000">1751301</text><text x="778" y="326" fill="#C80000">1270653</text><text x="778" y="342" fill="#005a00">990789</text><text x="778" y="358" fill="#005a00">763553</text><text x="778" y="374" fill="#C80000">735862</text><text x="778" y="390" fill="#C80000">691825</text><text x="778" y="406" fill="#C80000">668390</text><text x="778" y="422" fill="#C80000">642667</text><text x="778" y="438">536251</text><text x="778" y="454">522219</text></g><line x1="431" y1="73" x2="431" y2="457" stroke="#949494" stroke-width="862" stroke-dasharray="1,15"/><rect x="0" y="457" width="862" height="16" fill="#231f20"/><text x="860" y="470" font-size="10" fill="#FFFFFF" text-anchor="end">Phoronix Test Suite 10.4.0</text></svg>
