<?xml version="1.0"?>
<!DOCTYPE svg PUBLIC "-//W3C//DTD SVG 1.1//EN" "http://www.w3.org/Graphics/SVG/1.1/DTD/svg11.dtd">
<!--Phoronix Test Suite v10.4.0 [ http://www.phoronix-test-suite.com/ ]-->
<svg xmlns="http://www.w3.org/2000/svg" xmlns:xlink="http://www.w3.org/1999/xlink" version="1.1" font-family="sans-serif, droid-sans, helvetica, verdana, tahoma" viewbox="0 0 900 1030" width="900" height="1030" preserveAspectRatio="xMinYMin meet"><rect x="0" y="0" width="900" height="1030" fill="#FEFEFE"/><g stroke="#757575" stroke-width="1"><rect x="122.4" y="52" width="10" height="10" fill="#f44336"/><rect x="308.4" y="52" width="10" height="10" fill="#673ab7"/><rect x="494.4" y="52" width="10" height="10" fill="#009688"/></g><g font-size="9" text-anchor="start" font-weight="bold"><text x="135.4" y="61" fill="#f44336">bpfcontain-passive</text><text x="321.4" y="61" fill="#673ab7">bpfcontain-allow</text><text x="507.4" y="61" fill="#009688">bpfcontain-complaining</text></g><path d="m74 22v9m-5-16v16m-5-28v28m-23-2h12.5c2.485281 0 4.5-2.014719 4.5-4.5s-2.014719-4.5-4.5-4.5h-8c-2.485281 0-4.5-2.014719-4.5-4.5s2.014719-4.5 4.5-4.5h12.5m-21 5h-11m11 13h-2c-4.970563 0-9-4.029437-9-9v-20m-24 40v-20c0-4.970563 4.0294373-9 9-9 4.970563 0 9 4.029437 9 9s-4.029437 9-9 9h-9" stroke="#231f20" stroke-width="4" fill="none" transform="translate(10,2)"/><text x="100" y="21" font-size="17" fill="#231f20" text-anchor="start">Result Overview</text><a xlink:href="http://www.phoronix-test-suite.com/" target="_blank"><text x="100" y="33" font-size="9" fill="#231f20" text-anchor="start">Phoronix Test Suite 10.4.0</text></a><g font-size="10" fill="#757575"/><g font-size="9" fill="#949494" text-anchor="middle"><text x="450" y="750" dominant-baseline="hanging">100%</text><text x="450" y="780" dominant-baseline="hanging">116%</text><text x="450" y="811" dominant-baseline="hanging">132%</text><text x="450" y="841" dominant-baseline="hanging">148%</text><text x="450" y="872" dominant-baseline="hanging">164%</text></g><g font-size="10.5" fill="#757575" font-weight="800" dominant-baseline="text-after-edge"><text x="775" y="555" text-anchor="start" transform="rotate(0 775 555)">IPC_benchmark</text><text x="764" y="639" text-anchor="start" transform="rotate(15 764 639)">IPC_benchmark</text><text x="731" y="718" text-anchor="start" transform="rotate(30 731 718)">IPC_benchmark</text><text x="680" y="785" text-anchor="start" transform="rotate(45 680 785)">IPC_benchmark</text><text x="613" y="836" text-anchor="start" transform="rotate(60 613 836)">IPC_benchmark</text><text x="534" y="869" text-anchor="start" transform="rotate(75 534 869)">IPC_benchmark</text><text x="451" y="880" text-anchor="start" transform="rotate(90 451 880)">IPC_benchmark</text><text x="367" y="869" text-anchor="end" transform="rotate(285 367 869)">IPC_benchmark</text><text x="288" y="836" text-anchor="end" transform="rotate(300 288 836)">IPC_benchmark</text><text x="221" y="785" text-anchor="end" transform="rotate(315 221 785)">IPC_benchmark</text><text x="170" y="718" text-anchor="end" transform="rotate(330 170 718)">IPC_benchmark</text><text x="137" y="639" text-anchor="end" transform="rotate(345 137 639)">IPC_benchmark</text><text x="126" y="556" text-anchor="end" transform="rotate(360 126 556)">IPC_benchmark</text><text x="137" y="467" text-anchor="end" transform="rotate(375 137 472)">IPC_benchmark</text><text x="170" y="388" text-anchor="end" transform="rotate(390 170 393)">IPC_benchmark</text><text x="221" y="321" text-anchor="end" transform="rotate(405 221 326)">IPC_benchmark</text><text x="288" y="270" text-anchor="end" transform="rotate(420 288 275)">IPC_benchmark</text><text x="367" y="237" text-anchor="end" transform="rotate(435 367 242)">IPC_benchmark</text><text x="450" y="226" text-anchor="start" transform="rotate(270 450 231)">IPC_benchmark</text><text x="534" y="237" text-anchor="start" transform="rotate(285 534 242)">IPC_benchmark</text><text x="613" y="270" text-anchor="start" transform="rotate(300 613 275)">IPC_benchmark</text><text x="680" y="321" text-anchor="start" transform="rotate(315 680 326)">IPC_benchmark</text><text x="731" y="388" text-anchor="start" transform="rotate(330 731 393)">IPC_benchmark</text><text x="764" y="467" text-anchor="start" transform="rotate(345 764 472)">IPC_benchmark</text></g><g font-size="10" fill="#757575" dominant-baseline="text-after-edge"><text x="775" y="565" text-anchor="start" transform="rotate(0 775 555)">TCP Socket - 128</text><text x="764" y="649" text-anchor="start" transform="rotate(15 764 639)">TCP Socket - 256</text><text x="731" y="728" text-anchor="start" transform="rotate(30 731 718)">TCP Socket - 512</text><text x="680" y="795" text-anchor="start" transform="rotate(45 680 785)">TCP Socket - 1024</text><text x="613" y="846" text-anchor="start" transform="rotate(60 613 836)">TCP Socket - 2048</text><text x="534" y="879" text-anchor="start" transform="rotate(75 534 869)">TCP Socket - 4096</text><text x="451" y="890" text-anchor="start" transform="rotate(90 451 880)">U.U.D.S - 512</text><text x="367" y="879" text-anchor="end" transform="rotate(285 367 869)">Unnamed Pipe - 256</text><text x="288" y="846" text-anchor="end" transform="rotate(300 288 836)">Unnamed Pipe - 4096</text><text x="221" y="795" text-anchor="end" transform="rotate(315 221 785)">U.U.D.S - 256</text><text x="170" y="728" text-anchor="end" transform="rotate(330 170 718)">U.U.D.S - 128</text><text x="137" y="649" text-anchor="end" transform="rotate(345 137 639)">Unnamed Pipe - 1024</text><text x="126" y="566" text-anchor="end" transform="rotate(360 126 556)">FIFO Named Pipe - 2048</text><text x="137" y="482" text-anchor="end" transform="rotate(375 137 472)">U.U.D.S - 1024</text><text x="170" y="403" text-anchor="end" transform="rotate(390 170 393)">Unnamed Pipe - 2048</text><text x="221" y="336" text-anchor="end" transform="rotate(405 221 326)">FIFO Named Pipe - 256</text><text x="288" y="285" text-anchor="end" transform="rotate(420 288 275)">FIFO Named Pipe - 1024</text><text x="367" y="252" text-anchor="end" transform="rotate(435 367 242)">U.U.D.S - 2048</text><text x="450" y="241" text-anchor="start" transform="rotate(270 450 231)">FIFO Named Pipe - 128</text><text x="534" y="252" text-anchor="start" transform="rotate(285 534 242)">Unnamed Pipe - 512</text><text x="613" y="285" text-anchor="start" transform="rotate(300 613 275)">U.U.D.S - 4096</text><text x="680" y="336" text-anchor="start" transform="rotate(315 680 326)">FIFO Named Pipe - 4096</text><text x="731" y="403" text-anchor="start" transform="rotate(330 731 393)">Unnamed Pipe - 128</text><text x="764" y="482" text-anchor="start" transform="rotate(345 764 472)">FIFO Named Pipe - 512</text></g><circle stroke="#949494" stroke-width="1" stroke-dasharray="10,10,10" cx="450" cy="555" r="193" fill="transparent"/><circle stroke="#949494" stroke-width="1" stroke-dasharray="10,10,10" cx="450" cy="555" r="223" fill="transparent"/><circle stroke="#949494" stroke-width="1" stroke-dasharray="10,10,10" cx="450" cy="555" r="254" fill="transparent"/><circle stroke="#949494" stroke-width="1" stroke-dasharray="10,10,10" cx="450" cy="555" r="284" fill="transparent"/><circle stroke="#949494" stroke-width="1" stroke-dasharray="10,10,10" cx="450" cy="555" r="315" fill="transparent"/><line x1="765" y1="555" x2="747" y2="635" stroke="#f44336" stroke-width="3"/><line x1="738" y1="555" x2="723" y2="628" stroke="#673ab7" stroke-width="3"/><line x1="643" y1="555" x2="636" y2="605" stroke="#009688" stroke-width="3"/><line x1="747" y1="635" x2="707" y2="703" stroke="#f44336" stroke-width="3"/><line x1="723" y1="628" x2="688" y2="693" stroke="#673ab7" stroke-width="3"/><line x1="636" y1="605" x2="617" y2="651" stroke="#009688" stroke-width="3"/><line x1="707" y1="703" x2="657" y2="762" stroke="#f44336" stroke-width="3"/><line x1="688" y1="693" x2="643" y2="748" stroke="#673ab7" stroke-width="3"/><line x1="617" y1="651" x2="586" y2="691" stroke="#009688" stroke-width="3"/><line x1="657" y1="762" x2="587" y2="793" stroke="#f44336" stroke-width="3"/><line x1="643" y1="748" x2="581" y2="783" stroke="#673ab7" stroke-width="3"/><line x1="586" y1="691" x2="546" y2="722" stroke="#009688" stroke-width="3"/><line x1="587" y1="793" x2="515" y2="799" stroke="#f44336" stroke-width="3"/><line x1="581" y1="783" x2="515" y2="796" stroke="#673ab7" stroke-width="3"/><line x1="546" y1="722" x2="500" y2="741" stroke="#009688" stroke-width="3"/><line x1="515" y1="799" x2="450" y2="786" stroke="#f44336" stroke-width="3"/><line x1="515" y1="796" x2="450" y2="762" stroke="#673ab7" stroke-width="3"/><line x1="500" y1="741" x2="450" y2="748" stroke="#009688" stroke-width="3"/><line x1="450" y1="786" x2="391" y2="776" stroke="#f44336" stroke-width="3"/><line x1="450" y1="762" x2="392" y2="771" stroke="#673ab7" stroke-width="3"/><line x1="450" y1="748" x2="400" y2="741" stroke="#009688" stroke-width="3"/><line x1="391" y1="776" x2="354" y2="722" stroke="#f44336" stroke-width="3"/><line x1="392" y1="771" x2="348" y2="732" stroke="#673ab7" stroke-width="3"/><line x1="400" y1="741" x2="338" y2="749" stroke="#009688" stroke-width="3"/><line x1="354" y1="722" x2="293" y2="712" stroke="#f44336" stroke-width="3"/><line x1="348" y1="732" x2="308" y2="697" stroke="#673ab7" stroke-width="3"/><line x1="338" y1="749" x2="314" y2="691" stroke="#009688" stroke-width="3"/><line x1="293" y1="712" x2="263" y2="663" stroke="#f44336" stroke-width="3"/><line x1="308" y1="697" x2="282" y2="652" stroke="#673ab7" stroke-width="3"/><line x1="314" y1="691" x2="283" y2="651" stroke="#009688" stroke-width="3"/><line x1="263" y1="663" x2="264" y2="605" stroke="#f44336" stroke-width="3"/><line x1="282" y1="652" x2="251" y2="608" stroke="#673ab7" stroke-width="3"/><line x1="283" y1="651" x2="244" y2="610" stroke="#009688" stroke-width="3"/><line x1="264" y1="605" x2="250" y2="555" stroke="#f44336" stroke-width="3"/><line x1="251" y1="608" x2="257" y2="555" stroke="#673ab7" stroke-width="3"/><line x1="244" y1="610" x2="239" y2="555" stroke="#009688" stroke-width="3"/><line x1="250" y1="555" x2="246" y2="500" stroke="#f44336" stroke-width="3"/><line x1="257" y1="555" x2="260" y2="504" stroke="#673ab7" stroke-width="3"/><line x1="239" y1="555" x2="264" y2="505" stroke="#009688" stroke-width="3"/><line x1="246" y1="500" x2="272" y2="453" stroke="#f44336" stroke-width="3"/><line x1="260" y1="504" x2="283" y2="459" stroke="#673ab7" stroke-width="3"/><line x1="264" y1="505" x2="267" y2="450" stroke="#009688" stroke-width="3"/><line x1="272" y1="453" x2="314" y2="419" stroke="#f44336" stroke-width="3"/><line x1="283" y1="459" x2="305" y2="410" stroke="#673ab7" stroke-width="3"/><line x1="267" y1="450" x2="301" y2="406" stroke="#009688" stroke-width="3"/><line x1="314" y1="419" x2="350" y2="382" stroke="#f44336" stroke-width="3"/><line x1="305" y1="410" x2="347" y2="377" stroke="#673ab7" stroke-width="3"/><line x1="301" y1="406" x2="354" y2="388" stroke="#009688" stroke-width="3"/><line x1="350" y1="382" x2="397" y2="357" stroke="#f44336" stroke-width="3"/><line x1="347" y1="377" x2="400" y2="369" stroke="#673ab7" stroke-width="3"/><line x1="354" y1="388" x2="399" y2="366" stroke="#009688" stroke-width="3"/><line x1="397" y1="357" x2="450" y2="350" stroke="#f44336" stroke-width="3"/><line x1="400" y1="369" x2="450" y2="361" stroke="#673ab7" stroke-width="3"/><line x1="399" y1="366" x2="450" y2="362" stroke="#009688" stroke-width="3"/><line x1="450" y1="350" x2="502" y2="363" stroke="#f44336" stroke-width="3"/><line x1="450" y1="361" x2="500" y2="369" stroke="#673ab7" stroke-width="3"/><line x1="450" y1="362" x2="503" y2="357" stroke="#009688" stroke-width="3"/><line x1="502" y1="363" x2="552" y2="379" stroke="#f44336" stroke-width="3"/><line x1="500" y1="369" x2="546" y2="388" stroke="#673ab7" stroke-width="3"/><line x1="503" y1="357" x2="547" y2="386" stroke="#009688" stroke-width="3"/><line x1="552" y1="379" x2="586" y2="419" stroke="#f44336" stroke-width="3"/><line x1="546" y1="388" x2="589" y2="416" stroke="#673ab7" stroke-width="3"/><line x1="547" y1="386" x2="593" y2="412" stroke="#009688" stroke-width="3"/><line x1="586" y1="419" x2="622" y2="456" stroke="#f44336" stroke-width="3"/><line x1="589" y1="416" x2="625" y2="454" stroke="#673ab7" stroke-width="3"/><line x1="593" y1="412" x2="617" y2="459" stroke="#009688" stroke-width="3"/><line x1="622" y1="456" x2="643" y2="503" stroke="#f44336" stroke-width="3"/><line x1="625" y1="454" x2="640" y2="504" stroke="#673ab7" stroke-width="3"/><line x1="617" y1="459" x2="636" y2="505" stroke="#009688" stroke-width="3"/><line x1="643" y1="503" x2="765" y2="555" stroke="#f44336" stroke-width="2"/><line x1="640" y1="504" x2="738" y2="555" stroke="#673ab7" stroke-width="2"/><line x1="636" y1="505" x2="643" y2="555" stroke="#009688" stroke-width="2"/></svg>
