<?xml version="1.0"?>
<!DOCTYPE svg PUBLIC "-//W3C//DTD SVG 1.1//EN" "http://www.w3.org/Graphics/SVG/1.1/DTD/svg11.dtd">
<!--Phoronix Test Suite v10.4.0 [ http://www.phoronix-test-suite.com/ ]-->
<svg xmlns="http://www.w3.org/2000/svg" xmlns:xlink="http://www.w3.org/1999/xlink" version="1.1" font-family="sans-serif, droid-sans, helvetica, verdana, tahoma" viewbox="0 0 1000 494" width="1000" height="494" preserveAspectRatio="xMinYMin meet"><rect x="0" y="0" width="1000" height="493.5" fill="#FEFEFE"/><g stroke="#757575" stroke-width="1"/><g font-size="9" text-anchor="start" font-weight="bold"/><rect x="30" y="88.5" width="960" height="120" fill="#BABABA" stroke="#757575" stroke-width="1"/><text x="988" y="100.5" font-size="10" fill="#065695" text-anchor="end" font-weight="bold">Phoronix Test Suite 10.4.0</text><g stroke="#757575" stroke-width="1" stroke-dasharray="5,5"><line x1="30" y1="190" x2="990" y2="190"/><line x1="30" y1="170" x2="990" y2="170"/><line x1="30" y1="150" x2="990" y2="150"/><line x1="30" y1="130" x2="990" y2="130"/><line x1="30" y1="110" x2="990" y2="110"/></g><g stroke="#757575" stroke-width="1"><line x1="26" y1="190" x2="34" y2="190"/><line x1="26" y1="170" x2="34" y2="170"/><line x1="26" y1="150" x2="34" y2="150"/><line x1="26" y1="130" x2="34" y2="130"/><line x1="26" y1="110" x2="34" y2="110"/></g><g stroke="#949494" stroke-width="1" stroke-dasharray="5,5"/><g font-size="10" fill="#065695" text-anchor="end"/><rect x="30" y="223.5" width="960" height="120" fill="#BABABA" stroke="#757575" stroke-width="1"/><text x="988" y="235.5" font-size="10" fill="#065695" text-anchor="end" font-weight="bold">Phoronix Test Suite 10.4.0</text><g stroke="#757575" stroke-width="1" stroke-dasharray="5,5"><line x1="30" y1="325" x2="990" y2="325"/><line x1="30" y1="305" x2="990" y2="305"/><line x1="30" y1="285" x2="990" y2="285"/><line x1="30" y1="265" x2="990" y2="265"/><line x1="30" y1="245" x2="990" y2="245"/></g><g stroke="#757575" stroke-width="1"><line x1="26" y1="325" x2="34" y2="325"/><line x1="26" y1="305" x2="34" y2="305"/><line x1="26" y1="285" x2="34" y2="285"/><line x1="26" y1="265" x2="34" y2="265"/><line x1="26" y1="245" x2="34" y2="245"/></g><g stroke="#949494" stroke-width="1" stroke-dasharray="5,5"/><g font-size="10" fill="#065695" text-anchor="end"/><rect x="30" y="358.5" width="960" height="120" fill="#BABABA" stroke="#757575" stroke-width="1"/><text x="988" y="370.5" font-size="10" fill="#065695" text-anchor="end" font-weight="bold">Phoronix Test Suite 10.4.0</text><g stroke="#757575" stroke-width="1" stroke-dasharray="5,5"><line x1="30" y1="460" x2="990" y2="460"/><line x1="30" y1="440" x2="990" y2="440"/><line x1="30" y1="420" x2="990" y2="420"/><line x1="30" y1="400" x2="990" y2="400"/><line x1="30" y1="380" x2="990" y2="380"/></g><g stroke="#757575" stroke-width="1"><line x1="26" y1="460" x2="34" y2="460"/><line x1="26" y1="440" x2="34" y2="440"/><line x1="26" y1="420" x2="34" y2="420"/><line x1="26" y1="400" x2="34" y2="400"/><line x1="26" y1="380" x2="34" y2="380"/></g><g stroke="#949494" stroke-width="1" stroke-dasharray="5,5"/><g font-size="10" fill="#065695" text-anchor="end"/><text x="78" y="212" font-size="6.5" fill="#231f20" text-anchor="middle" dominant-baseline="text-before-edge">IPC_benchmark</text><rect x="39.6" y="89" width="25" height="120" fill="#f44336" stroke="#949494" stroke-width="1"/><rect x="64.6" y="100" width="25" height="109" fill="#673ab7" stroke="#949494" stroke-width="1"/><rect x="89.6" y="136" width="25" height="73" fill="#009688" stroke="#949494" stroke-width="1"/><text x="174" y="212" font-size="6.5" fill="#231f20" text-anchor="middle" dominant-baseline="text-before-edge">IPC_benchmark</text><rect x="135.6" y="89" width="25" height="120" fill="#f44336" stroke="#949494" stroke-width="1"/><rect x="160.6" y="99" width="25" height="110" fill="#673ab7" stroke="#949494" stroke-width="1"/><rect x="185.6" y="134" width="25" height="75" fill="#009688" stroke="#949494" stroke-width="1"/><text x="270" y="212" font-size="6.5" fill="#231f20" text-anchor="middle" dominant-baseline="text-before-edge">IPC_benchmark</text><rect x="231.6" y="89" width="25" height="120" fill="#f44336" stroke="#949494" stroke-width="1"/><rect x="256.6" y="98" width="25" height="111" fill="#673ab7" stroke="#949494" stroke-width="1"/><rect x="281.6" y="132" width="25" height="77" fill="#009688" stroke="#949494" stroke-width="1"/><text x="366" y="212" font-size="6.5" fill="#231f20" text-anchor="middle" dominant-baseline="text-before-edge">IPC_benchmark</text><rect x="327.6" y="89" width="25" height="120" fill="#f44336" stroke="#949494" stroke-width="1"/><rect x="352.6" y="98" width="25" height="111" fill="#673ab7" stroke="#949494" stroke-width="1"/><rect x="377.6" y="131" width="25" height="78" fill="#009688" stroke="#949494" stroke-width="1"/><text x="462" y="212" font-size="6.5" fill="#231f20" text-anchor="middle" dominant-baseline="text-before-edge">IPC_benchmark</text><rect x="423.6" y="89" width="25" height="120" fill="#f44336" stroke="#949494" stroke-width="1"/><rect x="448.6" y="94" width="25" height="115" fill="#673ab7" stroke="#949494" stroke-width="1"/><rect x="473.6" y="125" width="25" height="84" fill="#009688" stroke="#949494" stroke-width="1"/><text x="558" y="212" font-size="6.5" fill="#231f20" text-anchor="middle" dominant-baseline="text-before-edge">IPC_benchmark</text><rect x="519.6" y="89" width="25" height="120" fill="#f44336" stroke="#949494" stroke-width="1"/><rect x="544.6" y="91" width="25" height="118" fill="#673ab7" stroke="#949494" stroke-width="1"/><rect x="569.6" y="118" width="25" height="91" fill="#009688" stroke="#949494" stroke-width="1"/><text x="654" y="212" font-size="6.5" fill="#231f20" text-anchor="middle" dominant-baseline="text-before-edge">IPC_benchmark</text><rect x="615.6" y="91" width="25" height="118" fill="#f44336" stroke="#949494" stroke-width="1"/><rect x="640.6" y="89" width="25" height="120" fill="#673ab7" stroke="#949494" stroke-width="1"/><rect x="665.6" y="95" width="25" height="114" fill="#009688" stroke="#949494" stroke-width="1"/><text x="750" y="212" font-size="6.5" fill="#231f20" text-anchor="middle" dominant-baseline="text-before-edge">IPC_benchmark</text><rect x="711.6" y="89" width="25" height="120" fill="#f44336" stroke="#949494" stroke-width="1"/><rect x="736.6" y="92" width="25" height="117" fill="#673ab7" stroke="#949494" stroke-width="1"/><rect x="761.6" y="108" width="25" height="101" fill="#009688" stroke="#949494" stroke-width="1"/><text x="846" y="212" font-size="6.5" fill="#231f20" text-anchor="middle" dominant-baseline="text-before-edge">IPC_benchmark</text><rect x="807.6" y="93" width="25" height="116" fill="#f44336" stroke="#949494" stroke-width="1"/><rect x="832.6" y="97" width="25" height="112" fill="#673ab7" stroke="#949494" stroke-width="1"/><rect x="857.6" y="89" width="25" height="120" fill="#009688" stroke="#949494" stroke-width="1"/><text x="942" y="212" font-size="6.5" fill="#231f20" text-anchor="middle" dominant-baseline="text-before-edge">IPC_benchmark</text><rect x="903.6" y="101" width="25" height="108" fill="#f44336" stroke="#949494" stroke-width="1"/><rect x="928.6" y="93" width="25" height="116" fill="#673ab7" stroke="#949494" stroke-width="1"/><rect x="953.6" y="89" width="25" height="120" fill="#009688" stroke="#949494" stroke-width="1"/><line x1="126" y1="209" x2="950" y2="209" stroke="#757575" stroke-width="10" stroke-dasharray="1,95"/><line x1="30" y1="209" x2="990" y2="209" stroke="#757575" stroke-width="1"/><text x="78" y="347" font-size="6.5" fill="#231f20" text-anchor="middle" dominant-baseline="text-before-edge">IPC_benchmark</text><rect x="39.6" y="228" width="25" height="116" fill="#f44336" stroke="#949494" stroke-width="1"/><rect x="64.6" y="235" width="25" height="109" fill="#673ab7" stroke="#949494" stroke-width="1"/><rect x="89.6" y="224" width="25" height="120" fill="#009688" stroke="#949494" stroke-width="1"/><text x="174" y="347" font-size="6.5" fill="#231f20" text-anchor="middle" dominant-baseline="text-before-edge">IPC_benchmark</text><rect x="135.6" y="241" width="25" height="103" fill="#f44336" stroke="#949494" stroke-width="1"/><rect x="160.6" y="235" width="25" height="109" fill="#673ab7" stroke="#949494" stroke-width="1"/><rect x="185.6" y="224" width="25" height="120" fill="#009688" stroke="#949494" stroke-width="1"/><text x="270" y="347" font-size="6.5" fill="#231f20" text-anchor="middle" dominant-baseline="text-before-edge">IPC_benchmark</text><rect x="231.6" y="224" width="25" height="120" fill="#f44336" stroke="#949494" stroke-width="1"/><rect x="256.6" y="231" width="25" height="113" fill="#673ab7" stroke="#949494" stroke-width="1"/><rect x="281.6" y="232" width="25" height="112" fill="#009688" stroke="#949494" stroke-width="1"/><text x="366" y="347" font-size="6.5" fill="#231f20" text-anchor="middle" dominant-baseline="text-before-edge">IPC_benchmark</text><rect x="327.6" y="235" width="25" height="109" fill="#f44336" stroke="#949494" stroke-width="1"/><rect x="352.6" y="228" width="25" height="116" fill="#673ab7" stroke="#949494" stroke-width="1"/><rect x="377.6" y="224" width="25" height="120" fill="#009688" stroke="#949494" stroke-width="1"/><text x="462" y="347" font-size="6.5" fill="#231f20" text-anchor="middle" dominant-baseline="text-before-edge">IPC_benchmark</text><rect x="423.6" y="224" width="25" height="120" fill="#f44336" stroke="#949494" stroke-width="1"/><rect x="448.6" y="226" width="25" height="118" fill="#673ab7" stroke="#949494" stroke-width="1"/><rect x="473.6" y="229" width="25" height="115" fill="#009688" stroke="#949494" stroke-width="1"/><text x="558" y="347" font-size="6.5" fill="#231f20" text-anchor="middle" dominant-baseline="text-before-edge">IPC_benchmark</text><rect x="519.6" y="228" width="25" height="116" fill="#f44336" stroke="#949494" stroke-width="1"/><rect x="544.6" y="224" width="25" height="120" fill="#673ab7" stroke="#949494" stroke-width="1"/><rect x="569.6" y="232" width="25" height="112" fill="#009688" stroke="#949494" stroke-width="1"/><text x="654" y="347" font-size="6.5" fill="#231f20" text-anchor="middle" dominant-baseline="text-before-edge">IPC_benchmark</text><rect x="615.6" y="231" width="25" height="113" fill="#f44336" stroke="#949494" stroke-width="1"/><rect x="640.6" y="235" width="25" height="109" fill="#673ab7" stroke="#949494" stroke-width="1"/><rect x="665.6" y="224" width="25" height="120" fill="#009688" stroke="#949494" stroke-width="1"/><text x="750" y="347" font-size="6.5" fill="#231f20" text-anchor="middle" dominant-baseline="text-before-edge">IPC_benchmark</text><rect x="711.6" y="230" width="25" height="114" fill="#f44336" stroke="#949494" stroke-width="1"/><rect x="736.6" y="228" width="25" height="116" fill="#673ab7" stroke="#949494" stroke-width="1"/><rect x="761.6" y="224" width="25" height="120" fill="#009688" stroke="#949494" stroke-width="1"/><text x="846" y="347" font-size="6.5" fill="#231f20" text-anchor="middle" dominant-baseline="text-before-edge">IPC_benchmark</text><rect x="807.6" y="224" width="25" height="120" fill="#f44336" stroke="#949494" stroke-width="1"/><rect x="832.6" y="237" width="25" height="107" fill="#673ab7" stroke="#949494" stroke-width="1"/><rect x="857.6" y="238" width="25" height="106" fill="#009688" stroke="#949494" stroke-width="1"/><text x="942" y="347" font-size="6.5" fill="#231f20" text-anchor="middle" dominant-baseline="text-before-edge">IPC_benchmark</text><rect x="903.6" y="224" width="25" height="120" fill="#f44336" stroke="#949494" stroke-width="1"/><rect x="928.6" y="236" width="25" height="108" fill="#673ab7" stroke="#949494" stroke-width="1"/><rect x="953.6" y="240" width="25" height="104" fill="#009688" stroke="#949494" stroke-width="1"/><line x1="126" y1="344" x2="950" y2="344" stroke="#757575" stroke-width="10" stroke-dasharray="1,95"/><line x1="30" y1="344" x2="990" y2="344" stroke="#757575" stroke-width="1"/><text x="78" y="482" font-size="6.5" fill="#231f20" text-anchor="middle" dominant-baseline="text-before-edge">IPC_benchmark</text><rect x="39.6" y="359" width="25" height="120" fill="#f44336" stroke="#949494" stroke-width="1"/><rect x="64.6" y="372" width="25" height="107" fill="#673ab7" stroke="#949494" stroke-width="1"/><rect x="89.6" y="380" width="25" height="99" fill="#009688" stroke="#949494" stroke-width="1"/><text x="174" y="482" font-size="6.5" fill="#231f20" text-anchor="middle" dominant-baseline="text-before-edge">IPC_benchmark</text><rect x="135.6" y="359" width="25" height="120" fill="#f44336" stroke="#949494" stroke-width="1"/><rect x="160.6" y="368" width="25" height="111" fill="#673ab7" stroke="#949494" stroke-width="1"/><rect x="185.6" y="370" width="25" height="109" fill="#009688" stroke="#949494" stroke-width="1"/><text x="270" y="482" font-size="6.5" fill="#231f20" text-anchor="middle" dominant-baseline="text-before-edge">IPC_benchmark</text><rect x="231.6" y="359" width="25" height="120" fill="#f44336" stroke="#949494" stroke-width="1"/><rect x="256.6" y="367" width="25" height="112" fill="#673ab7" stroke="#949494" stroke-width="1"/><rect x="281.6" y="365" width="25" height="114" fill="#009688" stroke="#949494" stroke-width="1"/><text x="366" y="482" font-size="6.5" fill="#231f20" text-anchor="middle" dominant-baseline="text-before-edge">IPC_benchmark</text><rect x="327.6" y="359" width="25" height="120" fill="#f44336" stroke="#949494" stroke-width="1"/><rect x="352.6" y="366" width="25" height="113" fill="#673ab7" stroke="#949494" stroke-width="1"/><rect x="377.6" y="365" width="25" height="114" fill="#009688" stroke="#949494" stroke-width="1"/><text x="495" y="19" font-size="17" fill="#231f20" text-anchor="middle">ipc-bpfcontain-new</text><text x="990" y="85.5" font-size="7" fill="#949494" text-anchor="end">Phoronix Test Suite 10.4.0</text></svg>
