<?xml version="1.0"?>
<!DOCTYPE svg PUBLIC "-//W3C//DTD SVG 1.1//EN" "http://www.w3.org/Graphics/SVG/1.1/DTD/svg11.dtd">
<!--Phoronix Test Suite v10.4.0 [ http://www.phoronix-test-suite.com/ ]-->
<svg xmlns="http://www.w3.org/2000/svg" xmlns:xlink="http://www.w3.org/1999/xlink" version="1.1" font-family="sans-serif, droid-sans, helvetica, verdana, tahoma" viewbox="0 0 600 274" width="600" height="274" preserveAspectRatio="xMinYMin meet"><rect x="0" y="0" width="600" height="274" fill="#FEFEFE"/><g stroke="#757575" stroke-width="1"><line x1="177" y1="64" x2="177" y2="203"/><line x1="177" y1="202" x2="586" y2="202"/></g><text x="585" y="59" font-size="8" fill="#065695" text-anchor="end" font-weight="bold">Phoronix Test Suite 10.4.0</text><polygon points="186,56 177,61 177,51" fill="#065695" stroke="#949494" stroke-width="1"/><text x="189" y="59" font-size="8" font-weight="bold" fill="#065695" text-anchor="start">Requests Per Second, More Is Better</text><a xlink:href="https://openbenchmarking.org/test/pts/apache" target="_blank"><text x="6" y="19" font-size="17" fill="#231f20" text-anchor="start" font-weight="bold">Apache Benchmark 2.4.29</text></a><text x="6" y="36" font-size="11" font-weight="bold" fill="#231f20" text-anchor="start">Static Web Page Serving</text><path d="m74 22v9m-5-16v16m-5-28v28m-23-2h12.5c2.485281 0 4.5-2.014719 4.5-4.5s-2.014719-4.5-4.5-4.5h-8c-2.485281 0-4.5-2.014719-4.5-4.5s2.014719-4.5 4.5-4.5h12.5m-21 5h-11m11 13h-2c-4.970563 0-9-4.029437-9-9v-20m-24 40v-20c0-4.970563 4.0294373-9 9-9 4.970563 0 9 4.029437 9 9s-4.029437 9-9 9h-9" stroke="#231f20" stroke-width="4" fill="none" transform="translate(508,4)"/><line x1="177" y1="110" x2="177" y2="158" stroke="#757575" stroke-width="11" stroke-dasharray="1,45"/><g font-size="11" fill="#231f20" font-weight="bold"><text x="172" y="85" text-anchor="end">apparmor-passive</text><text x="172" y="131" text-anchor="end">apparmor-allow</text><text x="172" y="177" text-anchor="end">apparmor-complaining</text></g><g font-size="10" fill="#065695" text-anchor="middle"><text x="247" y="217">4K</text><text x="315" y="217">8K</text><text x="383" y="217">12K</text><text x="451" y="217">16K</text><text x="519" y="217">20K</text></g><g stroke="#BABABA" stroke-width="1"><line x1="247" y1="64" x2="247" y2="197" stroke-dasharray="5,5"/><line x1="247" y1="198" x2="247" y2="207"/><line x1="315" y1="64" x2="315" y2="197" stroke-dasharray="5,5"/><line x1="315" y1="198" x2="315" y2="207"/><line x1="383" y1="64" x2="383" y2="197" stroke-dasharray="5,5"/><line x1="383" y1="198" x2="383" y2="207"/><line x1="451" y1="64" x2="451" y2="197" stroke-dasharray="5,5"/><line x1="451" y1="198" x2="451" y2="207"/><line x1="519" y1="64" x2="519" y2="197" stroke-dasharray="5,5"/><line x1="519" y1="198" x2="519" y2="207"/></g><g stroke="#949494" stroke-width="1"><rect x="177" y="70" height="34" width="343" fill="#2196f3"/><rect x="177" y="116" height="34" width="324" fill="#2196f3"/><rect x="177" y="162" height="34" width="332" fill="#2196f3"/></g><g font-size="8" fill="#065695" text-anchor="end"><text y="101" x="172">SE +/- 46.63, N = 10</text><text y="147" x="172">SE +/- 176.10, N = 10</text><text y="193" x="172">SE +/- 103.38, N = 10</text></g><g font-size="10" fill="#FFFFFF" font-weight="bold" text-anchor="end"><text x="515" y="93">20154.34</text><text x="496" y="139">19060.39</text><text x="504" y="185">19546.08</text></g><text x="5" y="242" font-size="8" fill="#231f20" text-anchor="start">1. (CC) gcc options: -shared -fPIC -O2 -pthread</text></svg>
