<?xml version="1.0"?>
<!DOCTYPE svg PUBLIC "-//W3C//DTD SVG 1.1//EN" "http://www.w3.org/Graphics/SVG/1.1/DTD/svg11.dtd">
<!--Phoronix Test Suite v10.4.0 [ http://www.phoronix-test-suite.com/ ]-->
<svg xmlns="http://www.w3.org/2000/svg" xmlns:xlink="http://www.w3.org/1999/xlink" version="1.1" font-family="sans-serif, droid-sans, helvetica, verdana, tahoma" viewbox="0 0 698 153" width="698" height="153" preserveAspectRatio="xMinYMin meet"><rect x="0" y="0" width="698" height="153" fill="#FEFEFE"/><rect x="1" y="1" width="697" height="152" fill="#FEFEFE" stroke="#757575" stroke-width="1"/><path d="m74 22v9m-5-16v16m-5-28v28m-23-2h12.5c2.485281 0 4.5-2.014719 4.5-4.5s-2.014719-4.5-4.5-4.5h-8c-2.485281 0-4.5-2.014719-4.5-4.5s2.014719-4.5 4.5-4.5h12.5m-21 5h-11m11 13h-2c-4.970563 0-9-4.029437-9-9v-20m-24 40v-20c0-4.970563 4.0294373-9 9-9 4.970563 0 9 4.029437 9 9s-4.029437 9-9 9h-9" stroke="#000000" stroke-width="4" fill="none" transform="translate(78,28)"/><line x1="236" y1="81" x2="698" y2="81" stroke="#BABABA" stroke-width="112" stroke-dasharray="154,154"/><line x1="349" y1="73" x2="349" y2="137" stroke="#949494" stroke-width="698" stroke-dasharray="16,16"/><line x1="236" y1="81" x2="698" y2="81" stroke="#757575" stroke-width="112" stroke-dasharray="1,153"/><rect x="1" y="1" width="696" height="25" fill="#231f20"/><text x="5" y="19" font-size="17" fill="#FEFEFE" text-anchor="start">apache-new</text><line x1="1" y1="25" x2="697" y2="25" stroke="#757575" stroke-width="1"/><g font-size="10" font-weight="bold" fill="#065695" text-anchor="end"><a xlink:href="https://openbenchmarking.org/test/pts/apache-1.7.2" target="_blank"><text x="234" y="85">apache: Static Web Page Serving</text></a><text x="234" y="101">Difference</text><text x="234" y="117">Standard Error</text><text x="234" y="133">Standard Deviation</text></g><g font-size="10" fill="#065695" font-weight="bold" text-anchor="middle" dominant-baseline="text-before-edge"><text x="313" y="49">apparmor-passive</text><text x="467" y="49">apparmor-allow</text><text x="621" y="49">apparmor-complaining</text></g><g fill="#BABABA"/><g text-anchor="middle" font-size="10" fill="#065695"><text x="313" y="86" fill="#005a00">20154.34</text><text x="313" y="102">1.06x</text><text x="313" y="118">46.63</text><text x="313" y="134">0.73%</text><text x="467" y="86" fill="#C80000">19060.39</text><text x="467" y="102">1.00x</text><text x="467" y="118">176.10</text><text x="467" y="134">2.92%</text><text x="621" y="86">19546.08</text><text x="621" y="102">1.03x</text><text x="621" y="118">103.38</text><text x="621" y="134">1.67%</text></g><line x1="349" y1="73" x2="349" y2="137" stroke="#949494" stroke-width="698" stroke-dasharray="1,15"/><rect x="0" y="137" width="698" height="16" fill="#231f20"/><text x="696" y="150" font-size="10" fill="#FFFFFF" text-anchor="end">Phoronix Test Suite 10.4.0</text></svg>
