<?xml version="1.0"?>
<!DOCTYPE svg PUBLIC "-//W3C//DTD SVG 1.1//EN" "http://www.w3.org/Graphics/SVG/1.1/DTD/svg11.dtd">
<!--Phoronix Test Suite v10.4.0 [ http://www.phoronix-test-suite.com/ ]-->
<svg xmlns="http://www.w3.org/2000/svg" xmlns:xlink="http://www.w3.org/1999/xlink" version="1.1" font-family="sans-serif, droid-sans, helvetica, verdana, tahoma" viewbox="0 0 820 473" width="820" height="473" preserveAspectRatio="xMinYMin meet"><rect x="0" y="0" width="820" height="473" fill="#FEFEFE"/><rect x="1" y="1" width="819" height="472" fill="#FEFEFE" stroke="#757575" stroke-width="1"/><path d="m74 22v9m-5-16v16m-5-28v28m-23-2h12.5c2.485281 0 4.5-2.014719 4.5-4.5s-2.014719-4.5-4.5-4.5h-8c-2.485281 0-4.5-2.014719-4.5-4.5s2.014719-4.5 4.5-4.5h12.5m-21 5h-11m11 13h-2c-4.970563 0-9-4.029437-9-9v-20m-24 40v-20c0-4.970563 4.0294373-9 9-9 4.970563 0 9 4.029437 9 9s-4.029437 9-9 9h-9" stroke="#000000" stroke-width="4" fill="none" transform="translate(139,28)"/><line x1="358" y1="241" x2="820" y2="241" stroke="#BABABA" stroke-width="432" stroke-dasharray="154,154"/><line x1="410" y1="73" x2="410" y2="457" stroke="#949494" stroke-width="820" stroke-dasharray="16,16"/><line x1="358" y1="241" x2="820" y2="241" stroke="#757575" stroke-width="432" stroke-dasharray="1,153"/><rect x="1" y="1" width="818" height="25" fill="#231f20"/><text x="5" y="19" font-size="17" fill="#FEFEFE" text-anchor="start">ipc-apparmor-new</text><line x1="1" y1="25" x2="819" y2="25" stroke="#757575" stroke-width="1"/><g font-size="10" font-weight="bold" fill="#065695" text-anchor="end"><a xlink:href="https://openbenchmarking.org/test/pts/ipc-benchmark-1.0.0" target="_blank"><text x="356" y="85">ipc-benchmark: TCP Socket - 128</text></a><a xlink:href="https://openbenchmarking.org/test/pts/ipc-benchmark-1.0.0" target="_blank"><text x="356" y="101">ipc-benchmark: TCP Socket - 256</text></a><a xlink:href="https://openbenchmarking.org/test/pts/ipc-benchmark-1.0.0" target="_blank"><text x="356" y="117">ipc-benchmark: TCP Socket - 512</text></a><a xlink:href="https://openbenchmarking.org/test/pts/ipc-benchmark-1.0.0" target="_blank"><text x="356" y="133">ipc-benchmark: TCP Socket - 1024</text></a><a xlink:href="https://openbenchmarking.org/test/pts/ipc-benchmark-1.0.0" target="_blank"><text x="356" y="149">ipc-benchmark: TCP Socket - 2048</text></a><a xlink:href="https://openbenchmarking.org/test/pts/ipc-benchmark-1.0.0" target="_blank"><text x="356" y="165">ipc-benchmark: TCP Socket - 4096</text></a><a xlink:href="https://openbenchmarking.org/test/pts/ipc-benchmark-1.0.0" target="_blank"><text x="356" y="181">ipc-benchmark: Unnamed Pipe - 128</text></a><a xlink:href="https://openbenchmarking.org/test/pts/ipc-benchmark-1.0.0" target="_blank"><text x="356" y="197">ipc-benchmark: Unnamed Pipe - 256</text></a><a xlink:href="https://openbenchmarking.org/test/pts/ipc-benchmark-1.0.0" target="_blank"><text x="356" y="213">ipc-benchmark: Unnamed Pipe - 512</text></a><a xlink:href="https://openbenchmarking.org/test/pts/ipc-benchmark-1.0.0" target="_blank"><text x="356" y="229">ipc-benchmark: Unnamed Pipe - 1024</text></a><a xlink:href="https://openbenchmarking.org/test/pts/ipc-benchmark-1.0.0" target="_blank"><text x="356" y="245">ipc-benchmark: Unnamed Pipe - 2048</text></a><a xlink:href="https://openbenchmarking.org/test/pts/ipc-benchmark-1.0.0" target="_blank"><text x="356" y="261">ipc-benchmark: Unnamed Pipe - 4096</text></a><a xlink:href="https://openbenchmarking.org/test/pts/ipc-benchmark-1.0.0" target="_blank"><text x="356" y="277">ipc-benchmark: FIFO Named Pipe - 128</text></a><a xlink:href="https://openbenchmarking.org/test/pts/ipc-benchmark-1.0.0" target="_blank"><text x="356" y="293">ipc-benchmark: FIFO Named Pipe - 256</text></a><a xlink:href="https://openbenchmarking.org/test/pts/ipc-benchmark-1.0.0" target="_blank"><text x="356" y="309">ipc-benchmark: FIFO Named Pipe - 512</text></a><a xlink:href="https://openbenchmarking.org/test/pts/ipc-benchmark-1.0.0" target="_blank"><text x="356" y="325">ipc-benchmark: FIFO Named Pipe - 1024</text></a><a xlink:href="https://openbenchmarking.org/test/pts/ipc-benchmark-1.0.0" target="_blank"><text x="356" y="341">ipc-benchmark: FIFO Named Pipe - 2048</text></a><a xlink:href="https://openbenchmarking.org/test/pts/ipc-benchmark-1.0.0" target="_blank"><text x="356" y="357">ipc-benchmark: FIFO Named Pipe - 4096</text></a><a xlink:href="https://openbenchmarking.org/test/pts/ipc-benchmark-1.0.0" target="_blank"><text x="356" y="373">ipc-benchmark: Unnamed Unix Domain Socket - 128</text></a><a xlink:href="https://openbenchmarking.org/test/pts/ipc-benchmark-1.0.0" target="_blank"><text x="356" y="389">ipc-benchmark: Unnamed Unix Domain Socket - 256</text></a><a xlink:href="https://openbenchmarking.org/test/pts/ipc-benchmark-1.0.0" target="_blank"><text x="356" y="405">ipc-benchmark: Unnamed Unix Domain Socket - 512</text></a><a xlink:href="https://openbenchmarking.org/test/pts/ipc-benchmark-1.0.0" target="_blank"><text x="356" y="421">ipc-benchmark: Unnamed Unix Domain Socket - 1024</text></a><a xlink:href="https://openbenchmarking.org/test/pts/ipc-benchmark-1.0.0" target="_blank"><text x="356" y="437">ipc-benchmark: Unnamed Unix Domain Socket - 2048</text></a><a xlink:href="https://openbenchmarking.org/test/pts/ipc-benchmark-1.0.0" target="_blank"><text x="356" y="453">ipc-benchmark: Unnamed Unix Domain Socket - 4096</text></a></g><g font-size="10" fill="#065695" font-weight="bold" text-anchor="middle" dominant-baseline="text-before-edge"><text x="435" y="49">apparmor-passive</text><text x="589" y="49">apparmor-allow</text><text x="743" y="49">apparmor-complaining</text></g><g fill="#BABABA"/><g text-anchor="middle" font-size="10" fill="#065695"><text x="435" y="86" fill="#005a00">1689332</text><text x="435" y="102" fill="#005a00">1615322</text><text x="435" y="118" fill="#005a00">1428090</text><text x="435" y="134" fill="#005a00">1303125</text><text x="435" y="150" fill="#005a00">1020061</text><text x="435" y="166" fill="#005a00">691528</text><text x="435" y="182" fill="#005a00">2003489</text><text x="435" y="198" fill="#005a00">2097190</text><text x="435" y="214" fill="#005a00">2018749</text><text x="435" y="230">1463605</text><text x="435" y="246" fill="#C80000">917698</text><text x="435" y="262" fill="#005a00">670642</text><text x="435" y="278" fill="#005a00">1907018</text><text x="435" y="294" fill="#005a00">1902006</text><text x="435" y="310">1857059</text><text x="435" y="326" fill="#005a00">1439430</text><text x="435" y="342">939858</text><text x="435" y="358" fill="#C80000">643439</text><text x="435" y="374" fill="#005a00">915164</text><text x="435" y="390" fill="#005a00">883701</text><text x="435" y="406" fill="#005a00">862636</text><text x="435" y="422" fill="#005a00">782195</text><text x="435" y="438" fill="#005a00">619416</text><text x="435" y="454" fill="#005a00">621423</text><text x="589" y="86" fill="#C80000">1559039</text><text x="589" y="102">1500882</text><text x="589" y="118" fill="#C80000">1327871</text><text x="589" y="134">1231697</text><text x="589" y="150">976924</text><text x="589" y="166">673934</text><text x="589" y="182">1930228</text><text x="589" y="198" fill="#C80000">1693521</text><text x="589" y="214" fill="#C80000">1525509</text><text x="589" y="230" fill="#005a00">1531501</text><text x="589" y="246" fill="#005a00">973378</text><text x="589" y="262" fill="#C80000">640107</text><text x="589" y="278" fill="#C80000">1708497</text><text x="589" y="294" fill="#C80000">1791965</text><text x="589" y="310" fill="#005a00">1885111</text><text x="589" y="326">1411084</text><text x="589" y="342" fill="#005a00">993894</text><text x="589" y="358">663704</text><text x="589" y="374" fill="#C80000">818255</text><text x="589" y="390" fill="#C80000">808815</text><text x="589" y="406" fill="#C80000">797996</text><text x="589" y="422" fill="#C80000">731924</text><text x="589" y="438" fill="#C80000">586456</text><text x="589" y="454">596900</text><text x="743" y="86">1561240</text><text x="743" y="102" fill="#C80000">1499369</text><text x="743" y="118">1351426</text><text x="743" y="134" fill="#C80000">1206372</text><text x="743" y="150" fill="#C80000">945434</text><text x="743" y="166" fill="#C80000">665112</text><text x="743" y="182" fill="#C80000">1690548</text><text x="743" y="198">2028401</text><text x="743" y="214">1932213</text><text x="743" y="230" fill="#C80000">1195719</text><text x="743" y="246">972908</text><text x="743" y="262">645544</text><text x="743" y="278">1874910</text><text x="743" y="294">1804971</text><text x="743" y="310" fill="#C80000">1825160</text><text x="743" y="326" fill="#C80000">1220040</text><text x="743" y="342" fill="#C80000">927502</text><text x="743" y="358" fill="#005a00">744188</text><text x="743" y="374">848583</text><text x="743" y="390">811332</text><text x="743" y="406">841064</text><text x="743" y="422">733111</text><text x="743" y="438">601970</text><text x="743" y="454" fill="#C80000">596333</text></g><line x1="410" y1="73" x2="410" y2="457" stroke="#949494" stroke-width="820" stroke-dasharray="1,15"/><rect x="0" y="457" width="820" height="16" fill="#231f20"/><text x="818" y="470" font-size="10" fill="#FFFFFF" text-anchor="end">Phoronix Test Suite 10.4.0</text></svg>
