<?xml version="1.0"?>
<!DOCTYPE svg PUBLIC "-//W3C//DTD SVG 1.1//EN" "http://www.w3.org/Graphics/SVG/1.1/DTD/svg11.dtd">
<!--Phoronix Test Suite v10.4.0 [ http://www.phoronix-test-suite.com/ ]-->
<svg xmlns="http://www.w3.org/2000/svg" xmlns:xlink="http://www.w3.org/1999/xlink" version="1.1" font-family="sans-serif, droid-sans, helvetica, verdana, tahoma" viewbox="0 0 900 1030" width="900" height="1030" preserveAspectRatio="xMinYMin meet"><rect x="0" y="0" width="900" height="1030" fill="#FEFEFE"/><g stroke="#757575" stroke-width="1"><rect x="122.4" y="52" width="10" height="10" fill="#f44336"/><rect x="293.4" y="52" width="10" height="10" fill="#673ab7"/><rect x="464.4" y="52" width="10" height="10" fill="#009688"/></g><g font-size="9" text-anchor="start" font-weight="bold"><text x="135.4" y="61" fill="#f44336">apparmor-passive</text><text x="306.4" y="61" fill="#673ab7">apparmor-allow</text><text x="477.4" y="61" fill="#009688">apparmor-complaining</text></g><path d="m74 22v9m-5-16v16m-5-28v28m-23-2h12.5c2.485281 0 4.5-2.014719 4.5-4.5s-2.014719-4.5-4.5-4.5h-8c-2.485281 0-4.5-2.014719-4.5-4.5s2.014719-4.5 4.5-4.5h12.5m-21 5h-11m11 13h-2c-4.970563 0-9-4.029437-9-9v-20m-24 40v-20c0-4.970563 4.0294373-9 9-9 4.970563 0 9 4.029437 9 9s-4.029437 9-9 9h-9" stroke="#231f20" stroke-width="4" fill="none" transform="translate(10,2)"/><text x="100" y="21" font-size="17" fill="#231f20" text-anchor="start">Result Overview</text><a xlink:href="http://www.phoronix-test-suite.com/" target="_blank"><text x="100" y="33" font-size="9" fill="#231f20" text-anchor="start">Phoronix Test Suite 10.4.0</text></a><g font-size="10" fill="#757575"/><g font-size="9" fill="#949494" text-anchor="middle"><text x="450" y="795" dominant-baseline="hanging">100%</text><text x="450" y="814" dominant-baseline="hanging">108%</text><text x="450" y="834" dominant-baseline="hanging">116%</text><text x="450" y="853" dominant-baseline="hanging">124%</text></g><g font-size="10.5" fill="#757575" font-weight="800" dominant-baseline="text-after-edge"><text x="775" y="555" text-anchor="start" transform="rotate(0 775 555)">IPC_benchmark</text><text x="764" y="639" text-anchor="start" transform="rotate(15 764 639)">IPC_benchmark</text><text x="731" y="718" text-anchor="start" transform="rotate(30 731 718)">IPC_benchmark</text><text x="680" y="785" text-anchor="start" transform="rotate(45 680 785)">IPC_benchmark</text><text x="613" y="836" text-anchor="start" transform="rotate(60 613 836)">IPC_benchmark</text><text x="534" y="869" text-anchor="start" transform="rotate(75 534 869)">IPC_benchmark</text><text x="451" y="880" text-anchor="start" transform="rotate(90 451 880)">IPC_benchmark</text><text x="367" y="869" text-anchor="end" transform="rotate(285 367 869)">IPC_benchmark</text><text x="288" y="836" text-anchor="end" transform="rotate(300 288 836)">IPC_benchmark</text><text x="221" y="785" text-anchor="end" transform="rotate(315 221 785)">IPC_benchmark</text><text x="170" y="718" text-anchor="end" transform="rotate(330 170 718)">IPC_benchmark</text><text x="137" y="639" text-anchor="end" transform="rotate(345 137 639)">IPC_benchmark</text><text x="126" y="556" text-anchor="end" transform="rotate(360 126 556)">IPC_benchmark</text><text x="137" y="467" text-anchor="end" transform="rotate(375 137 472)">IPC_benchmark</text><text x="170" y="388" text-anchor="end" transform="rotate(390 170 393)">IPC_benchmark</text><text x="221" y="321" text-anchor="end" transform="rotate(405 221 326)">IPC_benchmark</text><text x="288" y="270" text-anchor="end" transform="rotate(420 288 275)">IPC_benchmark</text><text x="367" y="237" text-anchor="end" transform="rotate(435 367 242)">IPC_benchmark</text><text x="450" y="226" text-anchor="start" transform="rotate(270 450 231)">IPC_benchmark</text><text x="534" y="237" text-anchor="start" transform="rotate(285 534 242)">IPC_benchmark</text><text x="613" y="270" text-anchor="start" transform="rotate(300 613 275)">IPC_benchmark</text><text x="680" y="321" text-anchor="start" transform="rotate(315 680 326)">IPC_benchmark</text><text x="731" y="388" text-anchor="start" transform="rotate(330 731 393)">IPC_benchmark</text><text x="764" y="467" text-anchor="start" transform="rotate(345 764 472)">IPC_benchmark</text></g><g font-size="10" fill="#757575" dominant-baseline="text-after-edge"><text x="775" y="565" text-anchor="start" transform="rotate(0 775 555)">Unnamed Pipe - 512</text><text x="764" y="649" text-anchor="start" transform="rotate(15 764 639)">Unnamed Pipe - 1024</text><text x="731" y="728" text-anchor="start" transform="rotate(30 731 718)">Unnamed Pipe - 256</text><text x="680" y="795" text-anchor="start" transform="rotate(45 680 785)">Unnamed Pipe - 128</text><text x="613" y="846" text-anchor="start" transform="rotate(60 613 836)">FIFO Named Pipe - 1024</text><text x="534" y="879" text-anchor="start" transform="rotate(75 534 869)">FIFO Named Pipe - 4096</text><text x="451" y="890" text-anchor="start" transform="rotate(90 451 880)">U.U.D.S - 128</text><text x="367" y="879" text-anchor="end" transform="rotate(285 367 869)">FIFO Named Pipe - 128</text><text x="288" y="846" text-anchor="end" transform="rotate(300 288 836)">U.U.D.S - 256</text><text x="221" y="795" text-anchor="end" transform="rotate(315 221 785)">TCP Socket - 128</text><text x="170" y="728" text-anchor="end" transform="rotate(330 170 718)">U.U.D.S - 512</text><text x="137" y="649" text-anchor="end" transform="rotate(345 137 639)">TCP Socket - 1024</text><text x="126" y="566" text-anchor="end" transform="rotate(360 126 556)">TCP Socket - 2048</text><text x="137" y="482" text-anchor="end" transform="rotate(375 137 472)">TCP Socket - 256</text><text x="170" y="403" text-anchor="end" transform="rotate(390 170 393)">TCP Socket - 512</text><text x="221" y="336" text-anchor="end" transform="rotate(405 221 326)">FIFO Named Pipe - 2048</text><text x="288" y="285" text-anchor="end" transform="rotate(420 288 275)">U.U.D.S - 1024</text><text x="367" y="252" text-anchor="end" transform="rotate(435 367 242)">FIFO Named Pipe - 256</text><text x="450" y="241" text-anchor="start" transform="rotate(270 450 231)">Unnamed Pipe - 2048</text><text x="534" y="252" text-anchor="start" transform="rotate(285 534 242)">U.U.D.S - 2048</text><text x="613" y="285" text-anchor="start" transform="rotate(300 613 275)">Unnamed Pipe - 4096</text><text x="680" y="336" text-anchor="start" transform="rotate(315 680 326)">U.U.D.S - 4096</text><text x="731" y="403" text-anchor="start" transform="rotate(330 731 393)">TCP Socket - 4096</text><text x="764" y="482" text-anchor="start" transform="rotate(345 764 472)">FIFO Named Pipe - 512</text></g><circle stroke="#949494" stroke-width="1" stroke-dasharray="10,10,10" cx="450" cy="555" r="238" fill="transparent"/><circle stroke="#949494" stroke-width="1" stroke-dasharray="10,10,10" cx="450" cy="555" r="257" fill="transparent"/><circle stroke="#949494" stroke-width="1" stroke-dasharray="10,10,10" cx="450" cy="555" r="277" fill="transparent"/><circle stroke="#949494" stroke-width="1" stroke-dasharray="10,10,10" cx="450" cy="555" r="296" fill="transparent"/><line x1="765" y1="555" x2="731" y2="630" stroke="#f44336" stroke-width="3"/><line x1="688" y1="555" x2="745" y2="634" stroke="#673ab7" stroke-width="3"/><line x1="752" y1="555" x2="680" y2="617" stroke="#009688" stroke-width="3"/><line x1="731" y1="630" x2="705" y2="702" stroke="#f44336" stroke-width="3"/><line x1="745" y1="634" x2="656" y2="674" stroke="#673ab7" stroke-width="3"/><line x1="680" y1="617" x2="697" y2="698" stroke="#009688" stroke-width="3"/><line x1="705" y1="702" x2="650" y2="755" stroke="#f44336" stroke-width="3"/><line x1="656" y1="674" x2="642" y2="747" stroke="#673ab7" stroke-width="3"/><line x1="697" y1="698" x2="618" y2="723" stroke="#009688" stroke-width="3"/><line x1="650" y1="755" x2="590" y2="798" stroke="#f44336" stroke-width="3"/><line x1="642" y1="747" x2="588" y2="794" stroke="#673ab7" stroke-width="3"/><line x1="618" y1="723" x2="569" y2="761" stroke="#009688" stroke-width="3"/><line x1="590" y1="798" x2="512" y2="785" stroke="#f44336" stroke-width="3"/><line x1="588" y1="794" x2="514" y2="792" stroke="#673ab7" stroke-width="3"/><line x1="569" y1="761" x2="521" y2="821" stroke="#009688" stroke-width="3"/><line x1="512" y1="785" x2="450" y2="821" stroke="#f44336" stroke-width="3"/><line x1="514" y1="792" x2="450" y2="793" stroke="#673ab7" stroke-width="3"/><line x1="521" y1="821" x2="450" y2="802" stroke="#009688" stroke-width="3"/><line x1="450" y1="821" x2="381" y2="812" stroke="#f44336" stroke-width="3"/><line x1="450" y1="793" x2="388" y2="785" stroke="#673ab7" stroke-width="3"/><line x1="450" y1="802" x2="382" y2="807" stroke="#009688" stroke-width="3"/><line x1="381" y1="812" x2="320" y2="780" stroke="#f44336" stroke-width="3"/><line x1="388" y1="785" x2="331" y2="761" stroke="#673ab7" stroke-width="3"/><line x1="382" y1="807" x2="331" y2="762" stroke="#009688" stroke-width="3"/><line x1="320" y1="780" x2="267" y2="738" stroke="#f44336" stroke-width="3"/><line x1="331" y1="761" x2="282" y2="723" stroke="#673ab7" stroke-width="3"/><line x1="331" y1="762" x2="281" y2="724" stroke="#009688" stroke-width="3"/><line x1="267" y1="738" x2="227" y2="684" stroke="#f44336" stroke-width="3"/><line x1="282" y1="723" x2="244" y2="674" stroke="#673ab7" stroke-width="3"/><line x1="281" y1="724" x2="233" y2="680" stroke="#009688" stroke-width="3"/><line x1="227" y1="684" x2="202" y2="622" stroke="#f44336" stroke-width="3"/><line x1="244" y1="674" x2="215" y2="618" stroke="#673ab7" stroke-width="3"/><line x1="233" y1="680" x2="220" y2="617" stroke="#009688" stroke-width="3"/><line x1="202" y1="622" x2="193" y2="555" stroke="#f44336" stroke-width="3"/><line x1="215" y1="618" x2="204" y2="555" stroke="#673ab7" stroke-width="3"/><line x1="220" y1="617" x2="212" y2="555" stroke="#009688" stroke-width="3"/><line x1="193" y1="555" x2="202" y2="489" stroke="#f44336" stroke-width="3"/><line x1="204" y1="555" x2="220" y2="493" stroke="#673ab7" stroke-width="3"/><line x1="212" y1="555" x2="220" y2="493" stroke="#009688" stroke-width="3"/><line x1="202" y1="489" x2="228" y2="427" stroke="#f44336" stroke-width="3"/><line x1="220" y1="493" x2="244" y2="436" stroke="#673ab7" stroke-width="3"/><line x1="220" y1="493" x2="240" y2="434" stroke="#009688" stroke-width="3"/><line x1="228" y1="427" x2="279" y2="384" stroke="#f44336" stroke-width="3"/><line x1="244" y1="436" x2="270" y2="375" stroke="#673ab7" stroke-width="3"/><line x1="240" y1="434" x2="282" y2="387" stroke="#009688" stroke-width="3"/><line x1="279" y1="384" x2="323" y2="335" stroke="#f44336" stroke-width="3"/><line x1="270" y1="375" x2="331" y2="349" stroke="#673ab7" stroke-width="3"/><line x1="282" y1="387" x2="331" y2="348" stroke="#009688" stroke-width="3"/><line x1="323" y1="335" x2="385" y2="311" stroke="#f44336" stroke-width="3"/><line x1="331" y1="349" x2="388" y2="325" stroke="#673ab7" stroke-width="3"/><line x1="331" y1="348" x2="388" y2="323" stroke="#009688" stroke-width="3"/><line x1="385" y1="311" x2="450" y2="317" stroke="#f44336" stroke-width="3"/><line x1="388" y1="325" x2="450" y2="302" stroke="#673ab7" stroke-width="3"/><line x1="388" y1="323" x2="450" y2="303" stroke="#009688" stroke-width="3"/><line x1="450" y1="317" x2="515" y2="312" stroke="#f44336" stroke-width="3"/><line x1="450" y1="302" x2="512" y2="325" stroke="#673ab7" stroke-width="3"/><line x1="450" y1="303" x2="513" y2="319" stroke="#009688" stroke-width="3"/><line x1="515" y1="312" x2="575" y2="339" stroke="#f44336" stroke-width="3"/><line x1="512" y1="325" x2="569" y2="349" stroke="#673ab7" stroke-width="3"/><line x1="513" y1="319" x2="570" y2="347" stroke="#009688" stroke-width="3"/><line x1="575" y1="339" x2="625" y2="380" stroke="#f44336" stroke-width="3"/><line x1="569" y1="349" x2="619" y2="386" stroke="#673ab7" stroke-width="3"/><line x1="570" y1="347" x2="618" y2="387" stroke="#009688" stroke-width="3"/><line x1="625" y1="380" x2="664" y2="431" stroke="#f44336" stroke-width="3"/><line x1="619" y1="386" x2="659" y2="434" stroke="#673ab7" stroke-width="3"/><line x1="618" y1="387" x2="656" y2="436" stroke="#009688" stroke-width="3"/><line x1="664" y1="431" x2="684" y2="492" stroke="#f44336" stroke-width="3"/><line x1="659" y1="434" x2="688" y2="491" stroke="#673ab7" stroke-width="3"/><line x1="656" y1="436" x2="680" y2="493" stroke="#009688" stroke-width="3"/><line x1="684" y1="492" x2="765" y2="555" stroke="#f44336" stroke-width="2"/><line x1="688" y1="491" x2="688" y2="555" stroke="#673ab7" stroke-width="2"/><line x1="680" y1="493" x2="752" y2="555" stroke="#009688" stroke-width="2"/></svg>
