<?xml version="1.0"?>
<!DOCTYPE svg PUBLIC "-//W3C//DTD SVG 1.1//EN" "http://www.w3.org/Graphics/SVG/1.1/DTD/svg11.dtd">
<!--Phoronix Test Suite v10.4.0 [ http://www.phoronix-test-suite.com/ ]-->
<svg xmlns="http://www.w3.org/2000/svg" xmlns:xlink="http://www.w3.org/1999/xlink" version="1.1" font-family="sans-serif, droid-sans, helvetica, verdana, tahoma" viewbox="0 0 900 980" width="900" height="980" preserveAspectRatio="xMinYMin meet"><rect x="0" y="0" width="900" height="980" fill="#FEFEFE"/><g stroke="#757575" stroke-width="1"><rect x="166.6" y="52" width="10" height="10" fill="#f44336"/><rect x="321.6" y="52" width="10" height="10" fill="#673ab7"/><rect x="476.6" y="52" width="10" height="10" fill="#009688"/></g><g font-size="9" text-anchor="start" font-weight="bold"><text x="179.6" y="61" fill="#f44336">bpfbox-allow</text><text x="334.6" y="61" fill="#673ab7">bpfbox-complaining</text><text x="489.6" y="61" fill="#009688">bpfbox-passive</text></g><path d="m74 22v9m-5-16v16m-5-28v28m-23-2h12.5c2.485281 0 4.5-2.014719 4.5-4.5s-2.014719-4.5-4.5-4.5h-8c-2.485281 0-4.5-2.014719-4.5-4.5s2.014719-4.5 4.5-4.5h12.5m-21 5h-11m11 13h-2c-4.970563 0-9-4.029437-9-9v-20m-24 40v-20c0-4.970563 4.0294373-9 9-9 4.970563 0 9 4.029437 9 9s-4.029437 9-9 9h-9" stroke="#231f20" stroke-width="4" fill="none" transform="translate(10,2)"/><text x="100" y="21" font-size="17" fill="#231f20" text-anchor="start">Result Overview</text><a xlink:href="http://www.phoronix-test-suite.com/" target="_blank"><text x="100" y="33" font-size="9" fill="#231f20" text-anchor="start">Phoronix Test Suite 10.4.0</text></a><g font-size="10" fill="#757575"/><g font-size="9" fill="#949494" text-anchor="middle"><text x="450" y="810" dominant-baseline="hanging">100%</text><text x="450" y="819" dominant-baseline="hanging">103%</text><text x="450" y="829" dominant-baseline="hanging">107%</text><text x="450" y="838" dominant-baseline="hanging">110%</text><text x="450" y="847" dominant-baseline="hanging">113%</text></g><g font-size="10.5" fill="#757575" font-weight="800" dominant-baseline="text-after-edge"><text x="775" y="530" text-anchor="start">Timed Linux Kernel Compilation</text><text x="655" y="783" text-anchor="start">Apache Benchmark</text><text x="378" y="847" text-anchor="end">OSBench</text><text x="159" y="673" text-anchor="end">OSBench</text><text x="159" y="383" text-anchor="end">OSBench</text><text x="378" y="209" text-anchor="end">OSBench</text><text x="655" y="273" text-anchor="start">OSBench</text></g><g font-size="10" fill="#757575" dominant-baseline="text-after-edge"><text x="775" y="540" text-anchor="start">Time To Compile</text><text x="655" y="793" text-anchor="start">S.W.P.S</text><text x="378" y="857" text-anchor="end">Launch Programs</text><text x="159" y="683" text-anchor="end">Create Files</text><text x="159" y="398" text-anchor="end">Create Threads</text><text x="378" y="224" text-anchor="end">Create Processes</text><text x="655" y="288" text-anchor="start">Memory Allocations</text></g><circle stroke="#949494" stroke-width="1" stroke-dasharray="10,10,10" cx="450" cy="530" r="278" fill="transparent"/><circle stroke="#949494" stroke-width="1" stroke-dasharray="10,10,10" cx="450" cy="530" r="287" fill="transparent"/><circle stroke="#949494" stroke-width="1" stroke-dasharray="10,10,10" cx="450" cy="530" r="297" fill="transparent"/><circle stroke="#949494" stroke-width="1" stroke-dasharray="10,10,10" cx="450" cy="530" r="306" fill="transparent"/><circle stroke="#949494" stroke-width="1" stroke-dasharray="10,10,10" cx="450" cy="530" r="315" fill="transparent"/><line x1="765" y1="530" x2="625" y2="746" stroke="#f44336" stroke-width="3"/><line x1="728" y1="530" x2="631" y2="754" stroke="#673ab7" stroke-width="3"/><line x1="765" y1="530" x2="629" y2="751" stroke="#009688" stroke-width="3"/><line x1="625" y1="746" x2="386" y2="808" stroke="#f44336" stroke-width="3"/><line x1="631" y1="754" x2="387" y2="801" stroke="#673ab7" stroke-width="3"/><line x1="629" y1="751" x2="386" y2="809" stroke="#009688" stroke-width="3"/><line x1="386" y1="808" x2="195" y2="654" stroke="#f44336" stroke-width="3"/><line x1="387" y1="801" x2="200" y2="652" stroke="#673ab7" stroke-width="3"/><line x1="386" y1="809" x2="194" y2="655" stroke="#009688" stroke-width="3"/><line x1="195" y1="654" x2="200" y2="408" stroke="#f44336" stroke-width="3"/><line x1="200" y1="652" x2="200" y2="408" stroke="#673ab7" stroke-width="3"/><line x1="194" y1="655" x2="194" y2="405" stroke="#009688" stroke-width="3"/><line x1="200" y1="408" x2="387" y2="257" stroke="#f44336" stroke-width="3"/><line x1="200" y1="408" x2="387" y2="259" stroke="#673ab7" stroke-width="3"/><line x1="194" y1="405" x2="386" y2="254" stroke="#009688" stroke-width="3"/><line x1="387" y1="257" x2="625" y2="314" stroke="#f44336" stroke-width="3"/><line x1="387" y1="259" x2="625" y2="314" stroke="#673ab7" stroke-width="3"/><line x1="386" y1="254" x2="626" y2="313" stroke="#009688" stroke-width="3"/><line x1="625" y1="314" x2="765" y2="530" stroke="#f44336" stroke-width="2"/><line x1="625" y1="314" x2="728" y2="530" stroke="#673ab7" stroke-width="2"/><line x1="626" y1="313" x2="765" y2="530" stroke="#009688" stroke-width="2"/></svg>
