<?xml version="1.0"?>
<!DOCTYPE svg PUBLIC "-//W3C//DTD SVG 1.1//EN" "http://www.w3.org/Graphics/SVG/1.1/DTD/svg11.dtd">
<!--Phoronix Test Suite v10.4.0 [ http://www.phoronix-test-suite.com/ ]-->
<svg xmlns="http://www.w3.org/2000/svg" xmlns:xlink="http://www.w3.org/1999/xlink" version="1.1" font-family="sans-serif, droid-sans, helvetica, verdana, tahoma" viewbox="0 0 726 201" width="726" height="201" preserveAspectRatio="xMinYMin meet"><rect x="0" y="0" width="726" height="201" fill="#FEFEFE"/><rect x="1" y="1" width="725" height="200" fill="#FEFEFE" stroke="#757575" stroke-width="1"/><path d="m74 22v9m-5-16v16m-5-28v28m-23-2h12.5c2.485281 0 4.5-2.014719 4.5-4.5s-2.014719-4.5-4.5-4.5h-8c-2.485281 0-4.5-2.014719-4.5-4.5s2.014719-4.5 4.5-4.5h12.5m-21 5h-11m11 13h-2c-4.970563 0-9-4.029437-9-9v-20m-24 40v-20c0-4.970563 4.0294373-9 9-9 4.970563 0 9 4.029437 9 9s-4.029437 9-9 9h-9" stroke="#000000" stroke-width="4" fill="none" transform="translate(92,28)"/><line x1="264" y1="105" x2="726" y2="105" stroke="#BABABA" stroke-width="160" stroke-dasharray="154,154"/><line x1="363" y1="73" x2="363" y2="185" stroke="#949494" stroke-width="726" stroke-dasharray="16,16"/><line x1="264" y1="105" x2="726" y2="105" stroke="#757575" stroke-width="160" stroke-dasharray="1,153"/><rect x="1" y="1" width="724" height="25" fill="#231f20"/><text x="5" y="19" font-size="17" fill="#FEFEFE" text-anchor="start">apparmor-new</text><line x1="1" y1="25" x2="725" y2="25" stroke="#757575" stroke-width="1"/><g font-size="10" font-weight="bold" fill="#065695" text-anchor="end"><a xlink:href="https://openbenchmarking.org/test/pts/osbench-1.0.2" target="_blank"><text x="262" y="85">osbench: Create Files</text></a><a xlink:href="https://openbenchmarking.org/test/pts/osbench-1.0.2" target="_blank"><text x="262" y="101">osbench: Create Threads</text></a><a xlink:href="https://openbenchmarking.org/test/pts/osbench-1.0.2" target="_blank"><text x="262" y="117">osbench: Launch Programs</text></a><a xlink:href="https://openbenchmarking.org/test/pts/osbench-1.0.2" target="_blank"><text x="262" y="133">osbench: Create Processes</text></a><a xlink:href="https://openbenchmarking.org/test/pts/osbench-1.0.2" target="_blank"><text x="262" y="149">osbench: Memory Allocations</text></a><a xlink:href="https://openbenchmarking.org/test/pts/build-linux-kernel-1.11.0" target="_blank"><text x="262" y="165">build-linux-kernel: Time To Compile</text></a><a xlink:href="https://openbenchmarking.org/test/pts/apache-1.7.2" target="_blank"><text x="262" y="181">apache: Static Web Page Serving</text></a></g><g font-size="10" fill="#065695" font-weight="bold" text-anchor="middle" dominant-baseline="text-before-edge"><text x="341" y="49">apparmor-passive</text><text x="495" y="49">apparmor-allow</text><text x="649" y="49">apparmor-complaining</text></g><g fill="#BABABA"/><g text-anchor="middle" font-size="10" fill="#065695"><text x="341" y="86" fill="#005a00">45.430676</text><text x="341" y="102" fill="#005a00">20.100832</text><text x="341" y="118" fill="#005a00">63.024044</text><text x="341" y="134">39.511919</text><text x="341" y="150">118.800092</text><text x="341" y="166" fill="#005a00">236.460</text><text x="341" y="182" fill="#C80000">19234.97</text><text x="495" y="86">48.336940</text><text x="495" y="102">20.291328</text><text x="495" y="118">63.428402</text><text x="495" y="134" fill="#005a00">38.675547</text><text x="495" y="150" fill="#C80000">119.242072</text><text x="495" y="166">237.490</text><text x="495" y="182">19505.11</text><text x="649" y="86" fill="#C80000">113.004341</text><text x="649" y="102" fill="#C80000">20.492315</text><text x="649" y="118" fill="#C80000">93.065023</text><text x="649" y="134" fill="#C80000">39.650202</text><text x="649" y="150" fill="#005a00">117.652917</text><text x="649" y="166" fill="#C80000">288.801</text><text x="649" y="182" fill="#005a00">19778.79</text></g><line x1="363" y1="73" x2="363" y2="185" stroke="#949494" stroke-width="726" stroke-dasharray="1,15"/><rect x="0" y="185" width="726" height="16" fill="#231f20"/><text x="724" y="198" font-size="10" fill="#FFFFFF" text-anchor="end">Phoronix Test Suite 10.4.0</text></svg>
