<?xml version="1.0"?>
<!DOCTYPE svg PUBLIC "-//W3C//DTD SVG 1.1//EN" "http://www.w3.org/Graphics/SVG/1.1/DTD/svg11.dtd">
<!--Phoronix Test Suite v10.4.0 [ http://www.phoronix-test-suite.com/ ]-->
<svg xmlns="http://www.w3.org/2000/svg" xmlns:xlink="http://www.w3.org/1999/xlink" version="1.1" font-family="sans-serif, droid-sans, helvetica, verdana, tahoma" viewbox="0 0 900 980" width="900" height="980" preserveAspectRatio="xMinYMin meet"><rect x="0" y="0" width="900" height="980" fill="#FEFEFE"/><g stroke="#757575" stroke-width="1"><rect x="166.6" y="52" width="10" height="10" fill="#f44336"/><rect x="337.6" y="52" width="10" height="10" fill="#673ab7"/><rect x="508.6" y="52" width="10" height="10" fill="#009688"/></g><g font-size="9" text-anchor="start" font-weight="bold"><text x="179.6" y="61" fill="#f44336">apparmor-passive</text><text x="350.6" y="61" fill="#673ab7">apparmor-allow</text><text x="521.6" y="61" fill="#009688">apparmor-complaining</text></g><path d="m74 22v9m-5-16v16m-5-28v28m-23-2h12.5c2.485281 0 4.5-2.014719 4.5-4.5s-2.014719-4.5-4.5-4.5h-8c-2.485281 0-4.5-2.014719-4.5-4.5s2.014719-4.5 4.5-4.5h12.5m-21 5h-11m11 13h-2c-4.970563 0-9-4.029437-9-9v-20m-24 40v-20c0-4.970563 4.0294373-9 9-9 4.970563 0 9 4.029437 9 9s-4.029437 9-9 9h-9" stroke="#231f20" stroke-width="4" fill="none" transform="translate(10,2)"/><text x="100" y="21" font-size="17" fill="#231f20" text-anchor="start">Result Overview</text><a xlink:href="http://www.phoronix-test-suite.com/" target="_blank"><text x="100" y="33" font-size="9" fill="#231f20" text-anchor="start">Phoronix Test Suite 10.4.0</text></a><g font-size="10" fill="#757575"/><g font-size="9" fill="#949494" text-anchor="middle"><text x="450" y="659" dominant-baseline="hanging">100%</text><text x="450" y="706" dominant-baseline="hanging">137%</text><text x="450" y="753" dominant-baseline="hanging">174%</text><text x="450" y="800" dominant-baseline="hanging">212%</text><text x="450" y="847" dominant-baseline="hanging">249%</text></g><g font-size="10.5" fill="#757575" font-weight="800" dominant-baseline="text-after-edge"><text x="775" y="530" text-anchor="start">OSBench</text><text x="655" y="783" text-anchor="start">OSBench</text><text x="378" y="847" text-anchor="end">Timed Linux Kernel Compilation</text><text x="159" y="673" text-anchor="end">Apache Benchmark</text><text x="159" y="383" text-anchor="end">OSBench</text><text x="378" y="209" text-anchor="end">OSBench</text><text x="655" y="273" text-anchor="start">OSBench</text></g><g font-size="10" fill="#757575" dominant-baseline="text-after-edge"><text x="775" y="540" text-anchor="start">Create Files</text><text x="655" y="793" text-anchor="start">Launch Programs</text><text x="378" y="857" text-anchor="end">Time To Compile</text><text x="159" y="683" text-anchor="end">S.W.P.S</text><text x="159" y="398" text-anchor="end">Create Processes</text><text x="378" y="224" text-anchor="end">Create Threads</text><text x="655" y="288" text-anchor="start">Memory Allocations</text></g><circle stroke="#949494" stroke-width="1" stroke-dasharray="10,10,10" cx="450" cy="530" r="127" fill="transparent"/><circle stroke="#949494" stroke-width="1" stroke-dasharray="10,10,10" cx="450" cy="530" r="174" fill="transparent"/><circle stroke="#949494" stroke-width="1" stroke-dasharray="10,10,10" cx="450" cy="530" r="221" fill="transparent"/><circle stroke="#949494" stroke-width="1" stroke-dasharray="10,10,10" cx="450" cy="530" r="268" fill="transparent"/><circle stroke="#949494" stroke-width="1" stroke-dasharray="10,10,10" cx="450" cy="530" r="315" fill="transparent"/><line x1="765" y1="530" x2="568" y2="675" stroke="#f44336" stroke-width="3"/><line x1="746" y1="530" x2="567" y2="674" stroke="#673ab7" stroke-width="3"/><line x1="577" y1="530" x2="530" y2="628" stroke="#009688" stroke-width="3"/><line x1="568" y1="675" x2="415" y2="681" stroke="#f44336" stroke-width="3"/><line x1="567" y1="674" x2="415" y2="680" stroke="#673ab7" stroke-width="3"/><line x1="530" y1="628" x2="422" y2="653" stroke="#009688" stroke-width="3"/><line x1="415" y1="681" x2="336" y2="586" stroke="#f44336" stroke-width="3"/><line x1="415" y1="680" x2="335" y2="586" stroke="#673ab7" stroke-width="3"/><line x1="422" y1="653" x2="333" y2="587" stroke="#009688" stroke-width="3"/><line x1="336" y1="586" x2="336" y2="474" stroke="#f44336" stroke-width="3"/><line x1="335" y1="586" x2="333" y2="473" stroke="#673ab7" stroke-width="3"/><line x1="333" y1="587" x2="336" y2="474" stroke="#009688" stroke-width="3"/><line x1="336" y1="474" x2="421" y2="404" stroke="#f44336" stroke-width="3"/><line x1="333" y1="473" x2="421" y2="405" stroke="#673ab7" stroke-width="3"/><line x1="336" y1="474" x2="422" y2="407" stroke="#009688" stroke-width="3"/><line x1="421" y1="404" x2="530" y2="431" stroke="#f44336" stroke-width="3"/><line x1="421" y1="405" x2="530" y2="432" stroke="#673ab7" stroke-width="3"/><line x1="422" y1="407" x2="531" y2="430" stroke="#009688" stroke-width="3"/><line x1="530" y1="431" x2="765" y2="530" stroke="#f44336" stroke-width="2"/><line x1="530" y1="432" x2="746" y2="530" stroke="#673ab7" stroke-width="2"/><line x1="531" y1="430" x2="577" y2="530" stroke="#009688" stroke-width="2"/></svg>
