<?xml version="1.0"?>
<!DOCTYPE svg PUBLIC "-//W3C//DTD SVG 1.1//EN" "http://www.w3.org/Graphics/SVG/1.1/DTD/svg11.dtd">
<!--Phoronix Test Suite v10.4.0 [ http://www.phoronix-test-suite.com/ ]-->
<svg xmlns="http://www.w3.org/2000/svg" xmlns:xlink="http://www.w3.org/1999/xlink" version="1.1" font-family="sans-serif, droid-sans, helvetica, verdana, tahoma" viewbox="0 0 404 201" width="404" height="201" preserveAspectRatio="xMinYMin meet"><rect x="0" y="0" width="404" height="201" fill="#FEFEFE"/><rect x="1" y="1" width="403" height="200" fill="#FEFEFE" stroke="#757575" stroke-width="1"/><path d="m74 22v9m-5-16v16m-5-28v28m-23-2h12.5c2.485281 0 4.5-2.014719 4.5-4.5s-2.014719-4.5-4.5-4.5h-8c-2.485281 0-4.5-2.014719-4.5-4.5s2.014719-4.5 4.5-4.5h12.5m-21 5h-11m11 13h-2c-4.970563 0-9-4.029437-9-9v-20m-24 40v-20c0-4.970563 4.0294373-9 9-9 4.970563 0 9 4.029437 9 9s-4.029437 9-9 9h-9" stroke="#000000" stroke-width="4" fill="none" transform="translate(92,28)"/><line x1="264" y1="105" x2="404" y2="105" stroke="#BABABA" stroke-width="160" stroke-dasharray="140,140"/><line x1="202" y1="73" x2="202" y2="185" stroke="#949494" stroke-width="404" stroke-dasharray="16,16"/><line x1="264" y1="105" x2="404" y2="105" stroke="#757575" stroke-width="160" stroke-dasharray="1,139"/><rect x="1" y="1" width="402" height="25" fill="#231f20"/><text x="5" y="19" font-size="17" fill="#FEFEFE" text-anchor="start">bpfcontain-updated-new</text><line x1="1" y1="25" x2="403" y2="25" stroke="#757575" stroke-width="1"/><g font-size="10" font-weight="bold" fill="#065695" text-anchor="end"><a xlink:href="https://openbenchmarking.org/test/pts/osbench-1.0.2" target="_blank"><text x="262" y="85">osbench: Create Files</text></a><a xlink:href="https://openbenchmarking.org/test/pts/osbench-1.0.2" target="_blank"><text x="262" y="101">osbench: Create Threads</text></a><a xlink:href="https://openbenchmarking.org/test/pts/osbench-1.0.2" target="_blank"><text x="262" y="117">osbench: Launch Programs</text></a><a xlink:href="https://openbenchmarking.org/test/pts/osbench-1.0.2" target="_blank"><text x="262" y="133">osbench: Create Processes</text></a><a xlink:href="https://openbenchmarking.org/test/pts/osbench-1.0.2" target="_blank"><text x="262" y="149">osbench: Memory Allocations</text></a><a xlink:href="https://openbenchmarking.org/test/pts/build-linux-kernel-1.11.0" target="_blank"><text x="262" y="165">build-linux-kernel: Time To Compile</text></a><a xlink:href="https://openbenchmarking.org/test/pts/apache-1.7.2" target="_blank"><text x="262" y="181">apache: Static Web Page Serving</text></a></g><g font-size="10" fill="#065695" font-weight="bold" text-anchor="middle" dominant-baseline="text-before-edge"><text x="334" y="49">bpfcontain-passive</text></g><g fill="#BABABA"/><g text-anchor="middle" font-size="10" fill="#065695"><text x="334" y="86">48.775568</text><text x="334" y="102">20.995140</text><text x="334" y="118">63.342571</text><text x="334" y="134">40.379047</text><text x="334" y="150">117.673397</text><text x="334" y="166">237.072</text><text x="334" y="182">19933.27</text></g><line x1="202" y1="73" x2="202" y2="185" stroke="#949494" stroke-width="404" stroke-dasharray="1,15"/><rect x="0" y="185" width="404" height="16" fill="#231f20"/><text x="402" y="198" font-size="10" fill="#FFFFFF" text-anchor="end">Phoronix Test Suite 10.4.0</text></svg>
