<?xml version="1.0"?>
<!DOCTYPE svg PUBLIC "-//W3C//DTD SVG 1.1//EN" "http://www.w3.org/Graphics/SVG/1.1/DTD/svg11.dtd">
<!--Phoronix Test Suite v10.4.0 [ http://www.phoronix-test-suite.com/ ]-->
<svg xmlns="http://www.w3.org/2000/svg" xmlns:xlink="http://www.w3.org/1999/xlink" version="1.1" font-family="sans-serif, droid-sans, helvetica, verdana, tahoma" viewbox="0 0 1318 168" width="1318" height="168" preserveAspectRatio="xMinYMin meet"><rect x="0" y="0" width="1318" height="168" fill="#FEFEFE"/><rect x="1" y="1" width="1317" height="167" fill="#FEFEFE" stroke="#757575" stroke-width="1"/><path d="m74 22v9m-5-16v16m-5-28v28m-23-2h12.5c2.485281 0 4.5-2.014719 4.5-4.5s-2.014719-4.5-4.5-4.5h-8c-2.485281 0-4.5-2.014719-4.5-4.5s2.014719-4.5 4.5-4.5h12.5m-21 5h-11m11 13h-2c-4.970563 0-9-4.029437-9-9v-20m-24 40v-20c0-4.970563 4.0294373-9 9-9 4.970563 0 9 4.029437 9 9s-4.029437 9-9 9h-9" stroke="#000000" stroke-width="4" fill="none" transform="translate(31,43)"/><line x1="142" y1="96" x2="1318" y2="96" stroke="#BABABA" stroke-width="112" stroke-dasharray="168,168"/><line x1="659" y1="88" x2="659" y2="152" stroke="#949494" stroke-width="1318" stroke-dasharray="16,16"/><line x1="142" y1="96" x2="1318" y2="96" stroke="#757575" stroke-width="112" stroke-dasharray="1,167"/><rect x="1" y="1" width="1316" height="40" fill="#231f20"/><text x="5" y="19" font-size="17" fill="#FEFEFE" text-anchor="start">OSBench</text><text x="5" y="33" font-size="11" fill="#FEFEFE" text-anchor="start">Test: Launch Programs</text><line x1="1" y1="40" x2="1317" y2="40" stroke="#757575" stroke-width="1"/><g font-size="10" font-weight="bold" fill="#065695" text-anchor="end"><text x="140" y="100">Results</text><text x="140" y="116">Difference</text><text x="140" y="132">Standard Error</text><text x="140" y="148">Standard Deviation</text></g><g font-size="10" fill="#065695" font-weight="bold" text-anchor="middle" dominant-baseline="text-before-edge"><text x="226" y="64">apparmor-passive</text><text x="394" y="64">apparmor-allow</text><text x="562" y="64">apparmor-complaining</text><text x="730" y="64">base</text><text x="898" y="64">bpfcontain-passive</text><text x="1066" y="64">bpfcontain-complaining</text><text x="1234" y="64">bpfcontain-allow</text></g><g fill="#BABABA"/><g text-anchor="middle" font-size="10" fill="#065695"><text x="226" y="101">61.239958</text><text x="226" y="117">1.31x</text><text x="226" y="133">0.18</text><text x="226" y="149">0.95%</text><text x="394" y="101">61.945200</text><text x="394" y="117">1.30x</text><text x="394" y="133">0.21</text><text x="394" y="149">1.08%</text><text x="562" y="101" fill="#C80000">88.608742</text><text x="562" y="117">1.00x</text><text x="562" y="133">0.68</text><text x="562" y="149">2.42%</text><text x="730" y="101" fill="#005a00">58.973313</text><text x="730" y="117">1.33x</text><text x="730" y="133">0.22</text><text x="730" y="149">1.16%</text><text x="898" y="101">60.617924</text><text x="898" y="117">1.32x</text><text x="898" y="133">0.14</text><text x="898" y="149">0.75%</text><text x="1066" y="101">71.472645</text><text x="1066" y="117">1.19x</text><text x="1066" y="133">0.78</text><text x="1066" y="149">3.43%</text><text x="1234" y="101">68.512917</text><text x="1234" y="117">1.23x</text><text x="1234" y="133">0.72</text><text x="1234" y="149">3.31%</text></g><line x1="659" y1="88" x2="659" y2="152" stroke="#949494" stroke-width="1318" stroke-dasharray="1,15"/><rect x="0" y="152" width="1318" height="16" fill="#231f20"/><text x="1316" y="165" font-size="10" fill="#FFFFFF" text-anchor="end">Phoronix Test Suite 10.4.0</text></svg>
