<?xml version="1.0"?>
<!DOCTYPE svg PUBLIC "-//W3C//DTD SVG 1.1//EN" "http://www.w3.org/Graphics/SVG/1.1/DTD/svg11.dtd">
<!--Phoronix Test Suite v10.4.0 [ http://www.phoronix-test-suite.com/ ]-->
<svg xmlns="http://www.w3.org/2000/svg" xmlns:xlink="http://www.w3.org/1999/xlink" version="1.1" font-family="sans-serif, droid-sans, helvetica, verdana, tahoma" viewbox="0 0 600 460" width="600" height="460" preserveAspectRatio="xMinYMin meet"><rect x="0" y="0" width="600" height="460" fill="#FEFEFE"/><g stroke="#757575" stroke-width="1"><line x1="191" y1="64" x2="191" y2="387"/><line x1="191" y1="386" x2="586" y2="386"/></g><text x="585" y="59" font-size="8" fill="#065695" text-anchor="end" font-weight="bold">Phoronix Test Suite 10.4.0</text><polygon points="191,56 200,61 200,51" fill="#065695" stroke="#949494" stroke-width="1"/><text x="203" y="59" font-size="8" font-weight="bold" fill="#065695" text-anchor="start">us Per Event, Fewer Is Better</text><a xlink:href="https://openbenchmarking.org/test/pts/osbench" target="_blank"><text x="6" y="19" font-size="17" fill="#231f20" text-anchor="start" font-weight="bold">OSBench</text></a><text x="6" y="36" font-size="11" font-weight="bold" fill="#231f20" text-anchor="start">Test: Create Processes</text><path d="m74 22v9m-5-16v16m-5-28v28m-23-2h12.5c2.485281 0 4.5-2.014719 4.5-4.5s-2.014719-4.5-4.5-4.5h-8c-2.485281 0-4.5-2.014719-4.5-4.5s2.014719-4.5 4.5-4.5h12.5m-21 5h-11m11 13h-2c-4.970563 0-9-4.029437-9-9v-20m-24 40v-20c0-4.970563 4.0294373-9 9-9 4.970563 0 9 4.029437 9 9s-4.029437 9-9 9h-9" stroke="#231f20" stroke-width="4" fill="none" transform="translate(508,4)"/><line x1="191" y1="110" x2="191" y2="386" stroke="#757575" stroke-width="11" stroke-dasharray="1,45"/><g font-size="11" fill="#231f20" font-weight="bold"><text x="186" y="85" text-anchor="end">apparmor-passive</text><text x="186" y="131" text-anchor="end">apparmor-allow</text><text x="186" y="177" text-anchor="end">apparmor-complaining</text><text x="186" y="223" text-anchor="end">base</text><text x="186" y="269" text-anchor="end">bpfcontain-passive</text><text x="186" y="315" text-anchor="end">bpfcontain-complaining</text><text x="186" y="361" text-anchor="end">bpfcontain-allow</text></g><g font-size="10" fill="#065695" text-anchor="middle"><text x="259" y="401">9</text><text x="325" y="401">18</text><text x="391" y="401">27</text><text x="457" y="401">36</text><text x="523" y="401">45</text></g><g stroke="#BABABA" stroke-width="1"><line x1="259" y1="64" x2="259" y2="381" stroke-dasharray="5,5"/><line x1="259" y1="382" x2="259" y2="391"/><line x1="325" y1="64" x2="325" y2="381" stroke-dasharray="5,5"/><line x1="325" y1="382" x2="325" y2="391"/><line x1="391" y1="64" x2="391" y2="381" stroke-dasharray="5,5"/><line x1="391" y1="382" x2="391" y2="391"/><line x1="457" y1="64" x2="457" y2="381" stroke-dasharray="5,5"/><line x1="457" y1="382" x2="457" y2="391"/><line x1="523" y1="64" x2="523" y2="381" stroke-dasharray="5,5"/><line x1="523" y1="382" x2="523" y2="391"/></g><g stroke="#949494" stroke-width="1"><rect x="191" y="70" height="34" width="284" fill="#2196f3"/><rect x="191" y="116" height="34" width="281" fill="#2196f3"/><rect x="191" y="162" height="34" width="283" fill="#2196f3"/><rect x="191" y="208" height="34" width="278" fill="#2196f3"/><rect x="191" y="254" height="34" width="279" fill="#2196f3"/><rect x="191" y="300" height="34" width="297" fill="#2196f3"/><rect x="191" y="346" height="34" width="302" fill="#2196f3"/></g><g font-size="8" fill="#065695" text-anchor="end"><text y="101" x="186">SE +/- 0.21, N = 10</text><text y="147" x="186">SE +/- 0.07, N = 10</text><text y="193" x="186">SE +/- 0.20, N = 10</text><text y="239" x="186">SE +/- 0.18, N = 10</text><text y="285" x="186">SE +/- 0.15, N = 10</text><text y="331" x="186">SE +/- 0.10, N = 10</text><text y="377" x="186">SE +/- 0.21, N = 10</text></g><g font-size="10" fill="#FFFFFF" font-weight="bold" text-anchor="end"><text x="470" y="93">38.94</text><text x="467" y="139">38.50</text><text x="469" y="185">38.85</text><text x="464" y="231">38.10</text><text x="465" y="277">38.19</text><text x="483" y="323">40.65</text><text x="488" y="369">41.37</text></g><text x="5" y="426" font-size="8" fill="#231f20" text-anchor="start">1. (CC) gcc options: -lm</text></svg>
