<?xml version="1.0"?>
<!DOCTYPE svg PUBLIC "-//W3C//DTD SVG 1.1//EN" "http://www.w3.org/Graphics/SVG/1.1/DTD/svg11.dtd">
<!--Phoronix Test Suite v10.4.0 [ http://www.phoronix-test-suite.com/ ]-->
<svg xmlns="http://www.w3.org/2000/svg" xmlns:xlink="http://www.w3.org/1999/xlink" version="1.1" font-family="sans-serif, droid-sans, helvetica, verdana, tahoma" viewbox="0 0 600 425" width="600" height="425" preserveAspectRatio="xMinYMin meet"><rect x="0" y="0" width="600" height="425" fill="#FEFEFE"/><g stroke="#757575" stroke-width="1"><line x1="191" y1="64" x2="191" y2="387"/><line x1="191" y1="386" x2="586" y2="386"/></g><text x="585" y="59" font-size="8" fill="#065695" text-anchor="end" font-weight="bold">Phoronix Test Suite 10.4.0</text><polygon points="191,56 200,61 200,51" fill="#065695" stroke="#949494" stroke-width="1"/><text x="203" y="59" font-size="8" font-weight="bold" fill="#065695" text-anchor="start">Seconds, Fewer Is Better</text><a xlink:href="https://openbenchmarking.org/test/pts/build-linux-kernel" target="_blank"><text x="6" y="19" font-size="17" fill="#231f20" text-anchor="start" font-weight="bold">Timed Linux Kernel Compilation 5.10.20</text></a><text x="6" y="36" font-size="11" font-weight="bold" fill="#231f20" text-anchor="start">Time To Compile</text><path d="m74 22v9m-5-16v16m-5-28v28m-23-2h12.5c2.485281 0 4.5-2.014719 4.5-4.5s-2.014719-4.5-4.5-4.5h-8c-2.485281 0-4.5-2.014719-4.5-4.5s2.014719-4.5 4.5-4.5h12.5m-21 5h-11m11 13h-2c-4.970563 0-9-4.029437-9-9v-20m-24 40v-20c0-4.970563 4.0294373-9 9-9 4.970563 0 9 4.029437 9 9s-4.029437 9-9 9h-9" stroke="#231f20" stroke-width="4" fill="none" transform="translate(508,4)"/><line x1="191" y1="110" x2="191" y2="375" stroke="#757575" stroke-width="11" stroke-dasharray="1,45"/><g font-size="11" fill="#231f20" font-weight="bold"><text x="186" y="85" text-anchor="end">apparmor-passive</text><text x="186" y="131" text-anchor="end">apparmor-allow</text><text x="186" y="177" text-anchor="end">apparmor-complaining</text><text x="186" y="223" text-anchor="end">base</text><text x="186" y="269" text-anchor="end">bpfcontain-passive</text><text x="186" y="315" text-anchor="end">bpfcontain-complaining</text><text x="186" y="361" text-anchor="end">bpfcontain-allow</text></g><g font-size="10" fill="#065695" text-anchor="middle"><text x="259" y="401">60</text><text x="325" y="401">120</text><text x="391" y="401">180</text><text x="457" y="401">240</text><text x="523" y="401">300</text></g><g stroke="#BABABA" stroke-width="1"><line x1="259" y1="64" x2="259" y2="381" stroke-dasharray="5,5"/><line x1="259" y1="382" x2="259" y2="391"/><line x1="325" y1="64" x2="325" y2="381" stroke-dasharray="5,5"/><line x1="325" y1="382" x2="325" y2="391"/><line x1="391" y1="64" x2="391" y2="381" stroke-dasharray="5,5"/><line x1="391" y1="382" x2="391" y2="391"/><line x1="457" y1="64" x2="457" y2="381" stroke-dasharray="5,5"/><line x1="457" y1="382" x2="457" y2="391"/><line x1="523" y1="64" x2="523" y2="381" stroke-dasharray="5,5"/><line x1="523" y1="382" x2="523" y2="391"/></g><g stroke="#949494" stroke-width="1"><rect x="191" y="70" height="34" width="259" fill="#2196f3"/><rect x="191" y="116" height="34" width="260" fill="#2196f3"/><rect x="191" y="162" height="34" width="316" fill="#2196f3"/><rect x="191" y="208" height="34" width="258" fill="#2196f3"/><rect x="191" y="254" height="34" width="260" fill="#2196f3"/><rect x="191" y="300" height="34" width="296" fill="#2196f3"/><rect x="191" y="346" height="34" width="295" fill="#2196f3"/></g><g font-size="8" fill="#065695" text-anchor="end"><text y="101" x="186">SE +/- 0.62, N = 11</text><text y="147" x="186">SE +/- 0.60, N = 11</text><text y="193" x="186">SE +/- 0.60, N = 11</text><text y="239" x="186">SE +/- 0.58, N = 11</text><text y="285" x="186">SE +/- 0.66, N = 11</text><text y="331" x="186">SE +/- 0.64, N = 11</text><text y="377" x="186">SE +/- 0.62, N = 11</text></g><g font-size="10" fill="#FFFFFF" font-weight="bold" text-anchor="end"><text x="445" y="93">236.26</text><text x="446" y="139">237.33</text><text x="502" y="185">288.89</text><text x="444" y="231">235.50</text><text x="446" y="277">237.14</text><text x="482" y="323">270.00</text><text x="481" y="369">269.27</text></g></svg>
