<?xml version="1.0"?>
<!DOCTYPE svg PUBLIC "-//W3C//DTD SVG 1.1//EN" "http://www.w3.org/Graphics/SVG/1.1/DTD/svg11.dtd">
<!--Phoronix Test Suite v10.4.0 [ http://www.phoronix-test-suite.com/ ]-->
<svg xmlns="http://www.w3.org/2000/svg" xmlns:xlink="http://www.w3.org/1999/xlink" version="1.1" font-family="sans-serif, droid-sans, helvetica, verdana, tahoma" viewbox="0 0 900 1012" width="900" height="1012" preserveAspectRatio="xMinYMin meet"><rect x="0" y="0" width="900" height="1012" fill="#FEFEFE"/><g stroke="#757575" stroke-width="1"><rect x="166.6" y="52" width="10" height="10" fill="#f44336"/><rect x="352.6" y="52" width="10" height="10" fill="#673ab7"/><rect x="538.6" y="52" width="10" height="10" fill="#009688"/><rect x="166.6" y="68" width="10" height="10" fill="#4caf50"/><rect x="352.6" y="68" width="10" height="10" fill="#e91e63"/><rect x="538.6" y="68" width="10" height="10" fill="#795548"/><rect x="166.6" y="84" width="10" height="10" fill="#9e9e9e"/></g><g font-size="9" text-anchor="start" font-weight="bold"><text x="179.6" y="61" fill="#f44336">apparmor-passive</text><text x="365.6" y="61" fill="#673ab7">apparmor-allow</text><text x="551.6" y="61" fill="#009688">apparmor-complaining</text><text x="179.6" y="77" fill="#4caf50">base</text><text x="365.6" y="77" fill="#e91e63">bpfcontain-passive</text><text x="551.6" y="77" fill="#795548">bpfcontain-complaining</text><text x="179.6" y="93" fill="#9e9e9e">bpfcontain-allow</text></g><path d="m74 22v9m-5-16v16m-5-28v28m-23-2h12.5c2.485281 0 4.5-2.014719 4.5-4.5s-2.014719-4.5-4.5-4.5h-8c-2.485281 0-4.5-2.014719-4.5-4.5s2.014719-4.5 4.5-4.5h12.5m-21 5h-11m11 13h-2c-4.970563 0-9-4.029437-9-9v-20m-24 40v-20c0-4.970563 4.0294373-9 9-9 4.970563 0 9 4.029437 9 9s-4.029437 9-9 9h-9" stroke="#231f20" stroke-width="4" fill="none" transform="translate(10,2)"/><text x="100" y="21" font-size="17" fill="#231f20" text-anchor="start">Result Overview</text><a xlink:href="http://www.phoronix-test-suite.com/" target="_blank"><text x="100" y="33" font-size="9" fill="#231f20" text-anchor="start">Phoronix Test Suite 10.4.0</text></a><g font-size="10" fill="#757575"/><g font-size="9" fill="#949494" text-anchor="middle"><text x="450" y="683" dominant-baseline="hanging">100%</text><text x="450" y="732" dominant-baseline="hanging">141%</text><text x="450" y="781" dominant-baseline="hanging">182%</text><text x="450" y="830" dominant-baseline="hanging">223%</text><text x="450" y="879" dominant-baseline="hanging">265%</text></g><g font-size="10.5" fill="#757575" font-weight="800" dominant-baseline="text-after-edge"><text x="775" y="562" text-anchor="start">OSBench</text><text x="655" y="815" text-anchor="start">OSBench</text><text x="378" y="879" text-anchor="end">Timed Linux Kernel Compilation</text><text x="159" y="705" text-anchor="end">OSBench</text><text x="159" y="415" text-anchor="end">Apache Benchmark</text><text x="378" y="241" text-anchor="end">OSBench</text><text x="655" y="305" text-anchor="start">OSBench</text></g><g font-size="10" fill="#757575" dominant-baseline="text-after-edge"><text x="775" y="572" text-anchor="start">Create Files</text><text x="655" y="825" text-anchor="start">Launch Programs</text><text x="378" y="889" text-anchor="end">Time To Compile</text><text x="159" y="715" text-anchor="end">Create Threads</text><text x="159" y="430" text-anchor="end">S.W.P.S</text><text x="378" y="256" text-anchor="end">Create Processes</text><text x="655" y="320" text-anchor="start">Memory Allocations</text></g><circle stroke="#949494" stroke-width="1" stroke-dasharray="10,10,10" cx="450" cy="562" r="119" fill="transparent"/><circle stroke="#949494" stroke-width="1" stroke-dasharray="10,10,10" cx="450" cy="562" r="168" fill="transparent"/><circle stroke="#949494" stroke-width="1" stroke-dasharray="10,10,10" cx="450" cy="562" r="217" fill="transparent"/><circle stroke="#949494" stroke-width="1" stroke-dasharray="10,10,10" cx="450" cy="562" r="266" fill="transparent"/><circle stroke="#949494" stroke-width="1" stroke-dasharray="10,10,10" cx="450" cy="562" r="315" fill="transparent"/><line x1="755" y1="562" x2="558" y2="696" stroke="#f44336" stroke-width="3"/><line x1="729" y1="562" x2="557" y2="694" stroke="#673ab7" stroke-width="3"/><line x1="569" y1="562" x2="525" y2="655" stroke="#009688" stroke-width="3"/><line x1="765" y1="562" x2="563" y2="701" stroke="#4caf50" stroke-width="3"/><line x1="735" y1="562" x2="560" y2="697" stroke="#e91e63" stroke-width="3"/><line x1="685" y1="562" x2="543" y2="677" stroke="#795548" stroke-width="3"/><line x1="689" y1="562" x2="547" y2="682" stroke="#9e9e9e" stroke-width="3"/><line x1="558" y1="696" x2="417" y2="704" stroke="#f44336" stroke-width="3"/><line x1="557" y1="694" x2="417" y2="703" stroke="#673ab7" stroke-width="3"/><line x1="525" y1="655" x2="423" y2="678" stroke="#009688" stroke-width="3"/><line x1="563" y1="701" x2="417" y2="704" stroke="#4caf50" stroke-width="3"/><line x1="560" y1="697" x2="417" y2="703" stroke="#e91e63" stroke-width="3"/><line x1="543" y1="677" x2="421" y2="686" stroke="#795548" stroke-width="3"/><line x1="547" y1="682" x2="421" y2="686" stroke="#9e9e9e" stroke-width="3"/><line x1="417" y1="704" x2="324" y2="624" stroke="#f44336" stroke-width="3"/><line x1="417" y1="703" x2="325" y2="623" stroke="#673ab7" stroke-width="3"/><line x1="423" y1="678" x2="324" y2="623" stroke="#009688" stroke-width="3"/><line x1="417" y1="704" x2="324" y2="624" stroke="#4caf50" stroke-width="3"/><line x1="417" y1="703" x2="326" y2="622" stroke="#e91e63" stroke-width="3"/><line x1="421" y1="686" x2="343" y2="614" stroke="#795548" stroke-width="3"/><line x1="421" y1="686" x2="342" y2="614" stroke="#9e9e9e" stroke-width="3"/><line x1="324" y1="624" x2="338" y2="507" stroke="#f44336" stroke-width="3"/><line x1="325" y1="623" x2="339" y2="508" stroke="#673ab7" stroke-width="3"/><line x1="324" y1="623" x2="337" y2="507" stroke="#009688" stroke-width="3"/><line x1="324" y1="624" x2="324" y2="500" stroke="#4caf50" stroke-width="3"/><line x1="326" y1="622" x2="335" y2="506" stroke="#e91e63" stroke-width="3"/><line x1="343" y1="614" x2="343" y2="510" stroke="#795548" stroke-width="3"/><line x1="342" y1="614" x2="337" y2="507" stroke="#9e9e9e" stroke-width="3"/><line x1="338" y1="507" x2="422" y2="439" stroke="#f44336" stroke-width="3"/><line x1="339" y1="508" x2="421" y2="437" stroke="#673ab7" stroke-width="3"/><line x1="337" y1="507" x2="421" y2="438" stroke="#009688" stroke-width="3"/><line x1="324" y1="500" x2="421" y2="436" stroke="#4caf50" stroke-width="3"/><line x1="335" y1="506" x2="421" y2="436" stroke="#e91e63" stroke-width="3"/><line x1="343" y1="510" x2="423" y2="444" stroke="#795548" stroke-width="3"/><line x1="337" y1="507" x2="423" y2="446" stroke="#9e9e9e" stroke-width="3"/><line x1="422" y1="439" x2="525" y2="469" stroke="#f44336" stroke-width="3"/><line x1="421" y1="437" x2="525" y2="469" stroke="#673ab7" stroke-width="3"/><line x1="421" y1="438" x2="526" y2="468" stroke="#009688" stroke-width="3"/><line x1="421" y1="436" x2="526" y2="468" stroke="#4caf50" stroke-width="3"/><line x1="421" y1="436" x2="526" y2="468" stroke="#e91e63" stroke-width="3"/><line x1="423" y1="444" x2="528" y2="466" stroke="#795548" stroke-width="3"/><line x1="423" y1="446" x2="526" y2="468" stroke="#9e9e9e" stroke-width="3"/><line x1="525" y1="469" x2="755" y2="562" stroke="#f44336" stroke-width="2"/><line x1="525" y1="469" x2="729" y2="562" stroke="#673ab7" stroke-width="2"/><line x1="526" y1="468" x2="569" y2="562" stroke="#009688" stroke-width="2"/><line x1="526" y1="468" x2="765" y2="562" stroke="#4caf50" stroke-width="2"/><line x1="526" y1="468" x2="735" y2="562" stroke="#e91e63" stroke-width="2"/><line x1="528" y1="466" x2="685" y2="562" stroke="#795548" stroke-width="2"/><line x1="526" y1="468" x2="689" y2="562" stroke="#9e9e9e" stroke-width="2"/></svg>
