<?xml version="1.0"?>
<!DOCTYPE svg PUBLIC "-//W3C//DTD SVG 1.1//EN" "http://www.w3.org/Graphics/SVG/1.1/DTD/svg11.dtd">
<!--Phoronix Test Suite v10.4.0 [ http://www.phoronix-test-suite.com/ ]-->
<svg xmlns="http://www.w3.org/2000/svg" xmlns:xlink="http://www.w3.org/1999/xlink" version="1.1" font-family="sans-serif, droid-sans, helvetica, verdana, tahoma" viewbox="0 0 1000 310" width="1000" height="310" preserveAspectRatio="xMinYMin meet"><rect x="0" y="0" width="1000" height="310" fill="#FEFEFE"/><g stroke="#757575" stroke-width="1"/><g font-size="9" text-anchor="start" font-weight="bold"/><rect x="30" y="97.166666666667" width="960" height="120" fill="#BABABA" stroke="#757575" stroke-width="1"/><text x="988" y="109.16666666667" font-size="10" fill="#065695" text-anchor="end" font-weight="bold">Phoronix Test Suite 10.4.0</text><g stroke="#757575" stroke-width="1" stroke-dasharray="5,5"><line x1="30" y1="198" x2="990" y2="198"/><line x1="30" y1="178" x2="990" y2="178"/><line x1="30" y1="158" x2="990" y2="158"/><line x1="30" y1="138" x2="990" y2="138"/><line x1="30" y1="118" x2="990" y2="118"/></g><g stroke="#757575" stroke-width="1"><line x1="26" y1="198" x2="34" y2="198"/><line x1="26" y1="178" x2="34" y2="178"/><line x1="26" y1="158" x2="34" y2="158"/><line x1="26" y1="138" x2="34" y2="138"/><line x1="26" y1="118" x2="34" y2="118"/></g><g stroke="#949494" stroke-width="1" stroke-dasharray="5,5"/><g font-size="10" fill="#065695" text-anchor="end"/><text x="98.5" y="220" font-size="6.5" fill="#231f20" text-anchor="middle" dominant-baseline="text-before-edge">OSBench</text><rect x="43.7" y="102" width="15" height="115" fill="#f44336" stroke="#949494" stroke-width="1"/><rect x="58.7" y="112" width="15" height="105" fill="#673ab7" stroke="#949494" stroke-width="1"/><rect x="73.7" y="173" width="15" height="44" fill="#009688" stroke="#949494" stroke-width="1"/><rect x="88.7" y="98" width="15" height="119" fill="#4caf50" stroke="#949494" stroke-width="1"/><rect x="103.7" y="110" width="15" height="107" fill="#e91e63" stroke="#949494" stroke-width="1"/><rect x="118.7" y="129" width="15" height="88" fill="#795548" stroke="#949494" stroke-width="1"/><rect x="133.7" y="127" width="15" height="90" fill="#9e9e9e" stroke="#949494" stroke-width="1"/><text x="235.5" y="220" font-size="6.5" fill="#231f20" text-anchor="middle" dominant-baseline="text-before-edge">OSBench</text><rect x="180.7" y="98" width="15" height="119" fill="#f44336" stroke="#949494" stroke-width="1"/><rect x="195.7" y="99" width="15" height="118" fill="#673ab7" stroke="#949494" stroke-width="1"/><rect x="210.7" y="99" width="15" height="118" fill="#009688" stroke="#949494" stroke-width="1"/><rect x="225.7" y="98" width="15" height="119" fill="#4caf50" stroke="#949494" stroke-width="1"/><rect x="240.7" y="101" width="15" height="116" fill="#e91e63" stroke="#949494" stroke-width="1"/><rect x="255.7" y="117" width="15" height="100" fill="#795548" stroke="#949494" stroke-width="1"/><rect x="270.7" y="116" width="15" height="101" fill="#9e9e9e" stroke="#949494" stroke-width="1"/><text x="372.5" y="220" font-size="6.5" fill="#231f20" text-anchor="middle" dominant-baseline="text-before-edge">OSBench</text><rect x="317.7" y="103" width="15" height="114" fill="#f44336" stroke="#949494" stroke-width="1"/><rect x="332.7" y="104" width="15" height="113" fill="#673ab7" stroke="#949494" stroke-width="1"/><rect x="347.7" y="138" width="15" height="79" fill="#009688" stroke="#949494" stroke-width="1"/><rect x="362.7" y="98" width="15" height="119" fill="#4caf50" stroke="#949494" stroke-width="1"/><rect x="377.7" y="101" width="15" height="116" fill="#e91e63" stroke="#949494" stroke-width="1"/><rect x="392.7" y="119" width="15" height="98" fill="#795548" stroke="#949494" stroke-width="1"/><rect x="407.7" y="115" width="15" height="102" fill="#9e9e9e" stroke="#949494" stroke-width="1"/><text x="509.5" y="220" font-size="6.5" fill="#231f20" text-anchor="middle" dominant-baseline="text-before-edge">OSBench</text><rect x="454.7" y="101" width="15" height="116" fill="#f44336" stroke="#949494" stroke-width="1"/><rect x="469.7" y="99" width="15" height="118" fill="#673ab7" stroke="#949494" stroke-width="1"/><rect x="484.7" y="100" width="15" height="117" fill="#009688" stroke="#949494" stroke-width="1"/><rect x="499.7" y="98" width="15" height="119" fill="#4caf50" stroke="#949494" stroke-width="1"/><rect x="514.7" y="98" width="15" height="119" fill="#e91e63" stroke="#949494" stroke-width="1"/><rect x="529.7" y="106" width="15" height="111" fill="#795548" stroke="#949494" stroke-width="1"/><rect x="544.7" y="108" width="15" height="109" fill="#9e9e9e" stroke="#949494" stroke-width="1"/><text x="646.5" y="220" font-size="6.5" fill="#231f20" text-anchor="middle" dominant-baseline="text-before-edge">OSBench</text><rect x="591.7" y="102" width="15" height="115" fill="#f44336" stroke="#949494" stroke-width="1"/><rect x="606.7" y="102" width="15" height="115" fill="#673ab7" stroke="#949494" stroke-width="1"/><rect x="621.7" y="101" width="15" height="116" fill="#009688" stroke="#949494" stroke-width="1"/><rect x="636.7" y="101" width="15" height="116" fill="#4caf50" stroke="#949494" stroke-width="1"/><rect x="651.7" y="101" width="15" height="116" fill="#e91e63" stroke="#949494" stroke-width="1"/><rect x="666.7" y="98" width="15" height="119" fill="#795548" stroke="#949494" stroke-width="1"/><rect x="681.7" y="100" width="15" height="117" fill="#9e9e9e" stroke="#949494" stroke-width="1"/><text x="783.5" y="220" font-size="6.5" fill="#231f20" text-anchor="middle" dominant-baseline="text-before-edge">Timed Linux Kernel Compilation</text><rect x="728.7" y="99" width="15" height="118" fill="#f44336" stroke="#949494" stroke-width="1"/><rect x="743.7" y="99" width="15" height="118" fill="#673ab7" stroke="#949494" stroke-width="1"/><rect x="758.7" y="120" width="15" height="97" fill="#009688" stroke="#949494" stroke-width="1"/><rect x="773.7" y="98" width="15" height="119" fill="#4caf50" stroke="#949494" stroke-width="1"/><rect x="788.7" y="99" width="15" height="118" fill="#e91e63" stroke="#949494" stroke-width="1"/><rect x="803.7" y="113" width="15" height="104" fill="#795548" stroke="#949494" stroke-width="1"/><rect x="818.7" y="113" width="15" height="104" fill="#9e9e9e" stroke="#949494" stroke-width="1"/><text x="920.5" y="220" font-size="6.5" fill="#231f20" text-anchor="middle" dominant-baseline="text-before-edge">Apache Benchmark</text><rect x="865.7" y="112" width="15" height="105" fill="#f44336" stroke="#949494" stroke-width="1"/><rect x="880.7" y="113" width="15" height="104" fill="#673ab7" stroke="#949494" stroke-width="1"/><rect x="895.7" y="111" width="15" height="106" fill="#009688" stroke="#949494" stroke-width="1"/><rect x="910.7" y="98" width="15" height="119" fill="#4caf50" stroke="#949494" stroke-width="1"/><rect x="925.7" y="109" width="15" height="108" fill="#e91e63" stroke="#949494" stroke-width="1"/><rect x="940.7" y="117" width="15" height="100" fill="#795548" stroke="#949494" stroke-width="1"/><rect x="955.7" y="111" width="15" height="106" fill="#9e9e9e" stroke="#949494" stroke-width="1"/><line x1="167" y1="217" x2="949" y2="217" stroke="#757575" stroke-width="10" stroke-dasharray="1,136"/><line x1="30" y1="217" x2="990" y2="217" stroke="#757575" stroke-width="1"/><text x="495" y="19" font-size="17" fill="#231f20" text-anchor="middle">results</text><text x="990" y="94.166666666667" font-size="7" fill="#949494" text-anchor="end">Phoronix Test Suite 10.4.0</text></svg>
