<?xml version="1.0"?>
<!DOCTYPE svg PUBLIC "-//W3C//DTD SVG 1.1//EN" "http://www.w3.org/Graphics/SVG/1.1/DTD/svg11.dtd">
<!--Phoronix Test Suite v10.4.0 [ http://www.phoronix-test-suite.com/ ]-->
<svg xmlns="http://www.w3.org/2000/svg" xmlns:xlink="http://www.w3.org/1999/xlink" version="1.1" font-family="sans-serif, droid-sans, helvetica, verdana, tahoma" viewbox="0 0 768 201" width="768" height="201" preserveAspectRatio="xMinYMin meet"><rect x="0" y="0" width="768" height="201" fill="#FEFEFE"/><rect x="1" y="1" width="767" height="200" fill="#FEFEFE" stroke="#757575" stroke-width="1"/><path d="m74 22v9m-5-16v16m-5-28v28m-23-2h12.5c2.485281 0 4.5-2.014719 4.5-4.5s-2.014719-4.5-4.5-4.5h-8c-2.485281 0-4.5-2.014719-4.5-4.5s2.014719-4.5 4.5-4.5h12.5m-21 5h-11m11 13h-2c-4.970563 0-9-4.029437-9-9v-20m-24 40v-20c0-4.970563 4.0294373-9 9-9 4.970563 0 9 4.029437 9 9s-4.029437 9-9 9h-9" stroke="#000000" stroke-width="4" fill="none" transform="translate(92,28)"/><line x1="264" y1="105" x2="768" y2="105" stroke="#BABABA" stroke-width="160" stroke-dasharray="168,168"/><line x1="384" y1="73" x2="384" y2="185" stroke="#949494" stroke-width="768" stroke-dasharray="16,16"/><line x1="264" y1="105" x2="768" y2="105" stroke="#757575" stroke-width="160" stroke-dasharray="1,167"/><rect x="1" y="1" width="766" height="25" fill="#231f20"/><text x="5" y="19" font-size="17" fill="#FEFEFE" text-anchor="start">bpfcontain-updated</text><line x1="1" y1="25" x2="767" y2="25" stroke="#757575" stroke-width="1"/><g font-size="10" font-weight="bold" fill="#065695" text-anchor="end"><a xlink:href="https://openbenchmarking.org/test/pts/osbench-1.0.2" target="_blank"><text x="262" y="85">osbench: Create Files</text></a><a xlink:href="https://openbenchmarking.org/test/pts/osbench-1.0.2" target="_blank"><text x="262" y="101">osbench: Create Threads</text></a><a xlink:href="https://openbenchmarking.org/test/pts/osbench-1.0.2" target="_blank"><text x="262" y="117">osbench: Launch Programs</text></a><a xlink:href="https://openbenchmarking.org/test/pts/osbench-1.0.2" target="_blank"><text x="262" y="133">osbench: Create Processes</text></a><a xlink:href="https://openbenchmarking.org/test/pts/osbench-1.0.2" target="_blank"><text x="262" y="149">osbench: Memory Allocations</text></a><a xlink:href="https://openbenchmarking.org/test/pts/build-linux-kernel-1.11.0" target="_blank"><text x="262" y="165">build-linux-kernel: Time To Compile</text></a><a xlink:href="https://openbenchmarking.org/test/pts/apache-1.7.2" target="_blank"><text x="262" y="181">apache: Static Web Page Serving</text></a></g><g font-size="10" fill="#065695" font-weight="bold" text-anchor="middle" dominant-baseline="text-before-edge"><text x="348" y="49">bpfcontain-allow</text><text x="516" y="49">bpfcontain-passive</text><text x="684" y="49">bpfcontain-complaining</text></g><g fill="#BABABA"/><g text-anchor="middle" font-size="10" fill="#065695"><text x="348" y="86" fill="#C80000">46.146000</text><text x="348" y="102" fill="#C80000">21.511316</text><text x="348" y="118">63.192606</text><text x="348" y="134">41.540861</text><text x="348" y="150">117.596483</text><text x="348" y="166" fill="#005a00">236.369</text><text x="348" y="182" fill="#C80000">19489.04</text><text x="516" y="86" fill="#005a00">45.164641</text><text x="516" y="102" fill="#005a00">20.547390</text><text x="516" y="118" fill="#005a00">63.057184</text><text x="516" y="134" fill="#005a00">40.844917</text><text x="516" y="150" fill="#005a00">117.455912</text><text x="516" y="166" fill="#C80000">236.534</text><text x="516" y="182" fill="#005a00">20481.42</text><text x="684" y="86">45.957794</text><text x="684" y="102">21.497249</text><text x="684" y="118" fill="#C80000">63.296318</text><text x="684" y="134" fill="#C80000">41.677714</text><text x="684" y="150" fill="#C80000">118.626165</text><text x="684" y="166">236.375</text><text x="684" y="182">19976.29</text></g><line x1="384" y1="73" x2="384" y2="185" stroke="#949494" stroke-width="768" stroke-dasharray="1,15"/><rect x="0" y="185" width="768" height="16" fill="#231f20"/><text x="766" y="198" font-size="10" fill="#FFFFFF" text-anchor="end">Phoronix Test Suite 10.4.0</text></svg>
