<?xml version="1.0"?>
<!DOCTYPE svg PUBLIC "-//W3C//DTD SVG 1.1//EN" "http://www.w3.org/Graphics/SVG/1.1/DTD/svg11.dtd">
<!--Phoronix Test Suite v10.4.0 [ http://www.phoronix-test-suite.com/ ]-->
<svg xmlns="http://www.w3.org/2000/svg" xmlns:xlink="http://www.w3.org/1999/xlink" version="1.1" font-family="sans-serif, droid-sans, helvetica, verdana, tahoma" viewbox="0 0 900 980" width="900" height="980" preserveAspectRatio="xMinYMin meet"><rect x="0" y="0" width="900" height="980" fill="#FEFEFE"/><g stroke="#757575" stroke-width="1"><rect x="166.6" y="52" width="10" height="10" fill="#f44336"/><rect x="352.6" y="52" width="10" height="10" fill="#673ab7"/><rect x="538.6" y="52" width="10" height="10" fill="#009688"/></g><g font-size="9" text-anchor="start" font-weight="bold"><text x="179.6" y="61" fill="#f44336">bpfcontain-allow</text><text x="365.6" y="61" fill="#673ab7">bpfcontain-passive</text><text x="551.6" y="61" fill="#009688">bpfcontain-complaining</text></g><path d="m74 22v9m-5-16v16m-5-28v28m-23-2h12.5c2.485281 0 4.5-2.014719 4.5-4.5s-2.014719-4.5-4.5-4.5h-8c-2.485281 0-4.5-2.014719-4.5-4.5s2.014719-4.5 4.5-4.5h12.5m-21 5h-11m11 13h-2c-4.970563 0-9-4.029437-9-9v-20m-24 40v-20c0-4.970563 4.0294373-9 9-9 4.970563 0 9 4.029437 9 9s-4.029437 9-9 9h-9" stroke="#231f20" stroke-width="4" fill="none" transform="translate(10,2)"/><text x="100" y="21" font-size="17" fill="#231f20" text-anchor="start">Result Overview</text><a xlink:href="http://www.phoronix-test-suite.com/" target="_blank"><text x="100" y="33" font-size="9" fill="#231f20" text-anchor="start">Phoronix Test Suite 10.4.0</text></a><g font-size="10" fill="#757575"/><g font-size="9" fill="#949494" text-anchor="middle"><text x="450" y="832" dominant-baseline="hanging">100%</text><text x="450" y="836" dominant-baseline="hanging">101%</text><text x="450" y="839" dominant-baseline="hanging">103%</text><text x="450" y="843" dominant-baseline="hanging">104%</text></g><g font-size="10.5" fill="#757575" font-weight="800" dominant-baseline="text-after-edge"><text x="775" y="530" text-anchor="start">Apache Benchmark</text><text x="655" y="783" text-anchor="start">OSBench</text><text x="378" y="847" text-anchor="end">OSBench</text><text x="159" y="673" text-anchor="end">OSBench</text><text x="159" y="383" text-anchor="end">OSBench</text><text x="378" y="209" text-anchor="end">OSBench</text><text x="655" y="273" text-anchor="start">Timed Linux Kernel Compilation</text></g><g font-size="10" fill="#757575" dominant-baseline="text-after-edge"><text x="775" y="540" text-anchor="start">S.W.P.S</text><text x="655" y="793" text-anchor="start">Create Threads</text><text x="378" y="857" text-anchor="end">Create Files</text><text x="159" y="683" text-anchor="end">Create Processes</text><text x="159" y="398" text-anchor="end">Memory Allocations</text><text x="378" y="224" text-anchor="end">Launch Programs</text><text x="655" y="288" text-anchor="start">Time To Compile</text></g><circle stroke="#949494" stroke-width="1" stroke-dasharray="10,10,10" cx="450" cy="530" r="300" fill="transparent"/><circle stroke="#949494" stroke-width="1" stroke-dasharray="10,10,10" cx="450" cy="530" r="304" fill="transparent"/><circle stroke="#949494" stroke-width="1" stroke-dasharray="10,10,10" cx="450" cy="530" r="307" fill="transparent"/><circle stroke="#949494" stroke-width="1" stroke-dasharray="10,10,10" cx="450" cy="530" r="311" fill="transparent"/><line x1="750" y1="530" x2="639" y2="763" stroke="#f44336" stroke-width="3"/><line x1="765" y1="530" x2="647" y2="774" stroke="#673ab7" stroke-width="3"/><line x1="757" y1="530" x2="639" y2="763" stroke="#009688" stroke-width="3"/><line x1="639" y1="763" x2="383" y2="822" stroke="#f44336" stroke-width="3"/><line x1="647" y1="774" x2="381" y2="828" stroke="#673ab7" stroke-width="3"/><line x1="639" y1="763" x2="382" y2="823" stroke="#009688" stroke-width="3"/><line x1="383" y1="822" x2="180" y2="662" stroke="#f44336" stroke-width="3"/><line x1="381" y1="828" x2="175" y2="664" stroke="#673ab7" stroke-width="3"/><line x1="382" y1="823" x2="181" y2="661" stroke="#009688" stroke-width="3"/><line x1="180" y1="662" x2="178" y2="397" stroke="#f44336" stroke-width="3"/><line x1="175" y1="664" x2="178" y2="397" stroke="#673ab7" stroke-width="3"/><line x1="181" y1="661" x2="181" y2="399" stroke="#009688" stroke-width="3"/><line x1="178" y1="397" x2="382" y2="237" stroke="#f44336" stroke-width="3"/><line x1="178" y1="397" x2="382" y2="237" stroke="#673ab7" stroke-width="3"/><line x1="181" y1="399" x2="383" y2="238" stroke="#009688" stroke-width="3"/><line x1="382" y1="237" x2="639" y2="297" stroke="#f44336" stroke-width="3"/><line x1="382" y1="237" x2="639" y2="297" stroke="#673ab7" stroke-width="3"/><line x1="383" y1="238" x2="639" y2="297" stroke="#009688" stroke-width="3"/><line x1="639" y1="297" x2="750" y2="530" stroke="#f44336" stroke-width="2"/><line x1="639" y1="297" x2="765" y2="530" stroke="#673ab7" stroke-width="2"/><line x1="639" y1="297" x2="757" y2="530" stroke="#009688" stroke-width="2"/></svg>
